<?xml version="1.0" encoding="UTF-8"?>
<svg id="_图层_1" data-name="图层 1" xmlns="http://www.w3.org/2000/svg" viewBox="0 0 24 24">
  <defs>
    <style>
      .cls-1 {
        fill: #040000;
        stroke: #040000;
        stroke-miterlimit: 10;
        stroke-width: .25px;
      }
    </style>
  </defs>
  <g id="Layer_1-2" data-name="Layer 1-2">
    <g>
      <path class="cls-1" d="M21.61,12c.31.31.46.66.34,1.08-.08.29-.25.52-.53.64-.17.07-.24.18-.28.35-.99,3.79-3.38,6.21-7.19,7.09-4.94,1.14-9.96-2.09-11.08-7.03-.05-.2-.12-.33-.33-.43-.57-.28-.71-1.02-.31-1.52.05-.06.1-.12.16-.19-.05-.06-.1-.11-.14-.16-.43-.51-.26-1.3.34-1.57.16-.07.22-.17.26-.33.79-3.22,2.73-5.46,5.79-6.71,1.48-.6,3.04-.75,4.63-.54,3.57.47,6.83,3.13,7.82,6.97,0,.02.02.05.02.08.03.27.14.45.41.59.55.29.64,1.04.24,1.52-.04.05-.09.1-.14.16h0ZM3.45,10.28c.23,0,.45,0,.67,0,.98-.03,1.79-.42,2.45-1.14.17-.19.35-.37.55-.53,1.66-1.38,3.57-1.94,5.71-1.73,1.43.14,2.72.66,3.84,1.56.35.28.65.62.98.93.62.57,1.34.88,2.19.91.23,0,.46.02.7.03-.43-2.87-3.18-6.84-8.24-7.04-4.77-.18-8.21,3.35-8.85,7.01ZM12.17,20.72c.85,0,1.85-.17,2.81-.53,2.11-.78,3.69-2.17,4.74-4.15.36-.67.62-1.38.78-2.12.04-.17-.01-.23-.18-.22-.18.01-.35.02-.53.03-.93.04-1.69.43-2.32,1.09-.23.24-.47.47-.73.68-1.63,1.29-3.49,1.81-5.56,1.6-1.84-.19-3.4-.95-4.66-2.3-.79-.85-1.8-1.12-2.92-1.1-.11,0-.15.05-.12.16.05.2.09.41.15.61,1.11,3.73,4.5,6.26,8.54,6.25h0ZM4.55,12.17v.02c-.5,0-1-.03-1.5,0-.38.03-.56.3-.53.66.03.34.28.55.64.55.45,0,.9,0,1.35,0,.96.01,1.73.42,2.34,1.16.32.39.65.76,1.08,1.04,1.98,1.29,4.1,1.58,6.34.87,1.1-.34,2.08-.9,2.8-1.83.65-.84,1.5-1.27,2.57-1.24.4.01.81,0,1.21,0,.3,0,.54-.2.59-.47.09-.46-.16-.77-.65-.78-.88-.01-1.76-.02-2.64,0-.4,0-.74.21-.97.54-.33.48-.69.92-1.14,1.28-1.88,1.56-3.98,1.92-6.26,1.1-1.23-.44-2.18-1.25-2.92-2.32-.27-.4-.64-.62-1.13-.61-.39,0-.78,0-1.17,0h0ZM4.54,11.83c.38,0,.77,0,1.15,0,.51.01.89-.21,1.18-.63,1.22-1.76,2.92-2.7,5.06-2.72,2.23-.02,3.98.95,5.24,2.79.2.3.49.52.83.53.98.03,1.97.02,2.95,0,.37-.01.56-.3.53-.64-.03-.35-.28-.58-.64-.58-.46,0-.91,0-1.37,0-.96-.01-1.72-.42-2.32-1.15-.32-.39-.66-.76-1.08-1.03-1.89-1.24-3.92-1.57-6.09-.96-1.21.34-2.29.92-3.09,1.94-.62.8-1.44,1.21-2.47,1.2-.43,0-.86,0-1.29,0-.33,0-.57.23-.61.57-.03.33.14.58.48.65.11.02.22.03.33.03.4,0,.81,0,1.21,0h0ZM12,8.9c-1.69,0-3.1,1.39-3.09,3.06,0,1.74,1.38,3.12,3.1,3.11,1.7,0,3.08-1.39,3.07-3.1,0-1.69-1.39-3.08-3.08-3.08h0Z"/>
      <path class="cls-1" d="M13.19,12.01c0,.65-.54,1.18-1.19,1.18-.66,0-1.19-.54-1.19-1.2,0-.66.54-1.19,1.2-1.19.65,0,1.18.54,1.18,1.21h0Z"/>
    </g>
  </g>
</svg>