<svg xmlns="http://www.w3.org/2000/svg" viewBox="0 0 24 24"><path fill="currentColor" d="m22 11.86-3.77-2.29a4.2 4.2 0 0 0-.86-1.49l.69-2.51-2.57.8a4.7 4.7 0 0 0-1.32-.75L12 1.91 9.71 5.8s-.45.21-1.37.57l-2.4-1L6.69 8a5 5 0 0 0-.75 1.6L2 11.86l3.83 2.23a6.5 6.5 0 0 0 .68 1.49L5.66 18l2.63-.63a11 11 0 0 0 1.71 1l1.94 3.66 2.17-3.66a16 16 0 0 0 1.72-.85l2.57.68-.8-2.63a16 16 0 0 0 .91-1.57Zm-7.2 3.31a4.7 4.7 0 0 1-2.46 1s-2.41.32-3.25-.8l1.91-.71s2.87-.94 2.92-1.95a2.78 2.78 0 0 0-.35-3l-.11-.28-.23.06a2.34 2.34 0 0 0-2.34.68 1.47 1.47 0 0 0 .11 1.74s.43.25.4-.22l-.12-.63s1.75-.83 1.78 1.83a2.55 2.55 0 0 1-2.92.51s-1.9-1.69-1.54-3l-.06-.68L9.83 8.6l1.66-1 .57.11.51-.23.29.35 1.6.4s1.41 1.45 1.43 2.06c0 .02 1.02 3.18-1.09 4.88"/></svg>