<?xml version="1.0" encoding="UTF-8"?>
<svg id="Layer_1" data-name="Layer 1" xmlns="http://www.w3.org/2000/svg" viewBox="0 0 180 180">
  <defs>
    <style>
      .cls-1 {
        fill: #f3b123;
      }
    </style>
  </defs>
  <path class="cls-1" d="M90.03,26.7c-9.13,5.27-18.23,10.53-27.3,15.76-.12.33-.04.6.01.86.87,4.41,1.91,8.78,3.15,13.1.37,1.27.74,2.54,1.13,3.8.32,1.02.69,2.02.99,3.05.34,1.18.83,2.32,1.2,3.49.28.88.63,1.75.98,2.61.33.84.7,1.67,1.04,2.51,3.88,9.52,8.89,18.89,14.83,27.45,3.29,4.75,6.88,9.26,10.76,13.54,2.71,2.99,5.52,5.87,8.5,8.6,2.24,2.05,4.55,4.02,6.92,5.92.15.12.31.22.46.32.67-.57,2.29-2.88,5.27-7.52,1.66-2.58,3.22-5.21,4.77-7.95,1.21,1.44,2.26,2.9,3.35,4.34,1.12,1.47,2.22,2.96,3.31,4.45,1.08,1.47,2.14,2.95,3.17,4.38.01.28-.13.42-.23.58-4.38,7.14-9.27,13.92-14.69,20.31-3.18,3.75-6.53,7.35-10.07,10.76-3.53,3.39-7.32,6.47-11.27,9.35-1.96,1.43-3.96,2.82-5.94,4.22-.13.09-.28.17-.44.28-1.09-.77-2.17-1.53-3.25-2.31-4.23-3.06-8.33-6.28-12.22-9.76-3.13-2.8-6.09-5.78-8.9-8.89-3.24-3.58-6.33-7.3-9.23-11.17-3.08-4.11-5.96-8.36-8.64-12.74-.1-.16-.19-.33-.31-.55.74-1.16,1.59-2.23,2.39-3.35.79-1.1,1.6-2.18,2.41-3.27.82-1.11,1.65-2.21,2.49-3.31.81-1.07,1.61-2.16,2.44-3.15.34.02.39.23.48.39,1.84,3.24,3.77,6.42,5.85,9.52,1.11,1.65,2.25,3.27,3.39,4.91.11.16.23.3.39.5.83-.47,1.5-1.12,2.22-1.7.71-.57,1.4-1.16,2.09-1.76.71-.61,1.42-1.23,2.12-1.85.68-.61,1.35-1.22,2.01-1.82.29.02.39.24.53.4,2.57,3.15,5.25,6.19,8.06,9.12.53.56,1.06,1.12,1.63,1.71-.64.8-1.44,1.39-2.16,2.06-.73.68-1.49,1.32-2.24,1.97-.73.63-1.47,1.25-2.22,1.87-.76.63-1.53,1.26-2.29,1.88.4.74,2.96,3.46,6.25,6.62,2.19,2.1,4.43,4.14,6.81,6.12,4.68-3.92,9.04-8.09,13.06-12.58-.1-.32-.33-.42-.52-.57-5.48-4.35-10.6-9.1-15.38-14.21-8.61-9.2-15.89-19.36-21.98-30.38-2.3-4.16-4.4-8.41-6.33-12.75-.94-2.11-1.82-4.25-2.66-6.39-3.08-7.82-5.24-15.01-7.05-22.53-.9-3.75-1.64-7.53-2.25-11.34-.11-.67-.11-1.37-.41-2.01-.05-.11-.03-.27-.03-.41.02-.42-.03-.82-.11-1.23-.23-1.13-.27-2.28-.42-3.47,14.69-8.49,29.36-16.96,44.06-25.45,14.63,8.45,29.25,16.89,43.92,25.36,0,.5.06,1-.07,1.53-.12.49-.17,1.02-.21,1.53-.04.47-.05.93-.13,1.39-.17,1-.19,2.03-.55,2.99.06.78-.18,1.53-.3,2.29-.22,1.38-.59,2.73-.82,4.1-.31,1.88-.77,3.72-1.2,5.57-1.58,6.66-3.62,13.18-6.03,19.59-.51,1.36-1.05,2.71-1.6,4.06-.49,1.19-.99,2.38-1.5,3.56-1.22,2.8-2.5,5.57-3.88,8.3-1.37,2.71-2.8,5.39-4.31,8.02-1.53,2.66-3.13,5.26-4.82,7.82-1.43,2.17-2.92,4.29-4.45,6.38-.1.13-.21.25-.36.42-3.63-3.75-6.98-7.7-10.06-11.82,0-.34.2-.52.34-.72,3.72-5.39,7.07-11,10.01-16.86,1.14-2.27,2.25-4.55,3.23-6.89.55-1.3,1.24-2.55,1.6-3.93,3.04-7.08,5.27-14.42,7.08-21.9.53-2.2.98-4.41,1.45-6.62.05-.21.05-.43.09-.72-9.12-5.27-18.24-10.54-27.39-15.81h0Z"/>
  <path class="cls-1" d="M119.12,98.63c1.36-2.45,2.66-4.88,3.89-7.35,1.21-2.43,2.34-4.9,3.45-7.4,1.27.93,9.99,11.71,17.29,21.4,5.5,7.3,10.7,14.81,15.72,22.42-.73,1.09-7.06,6.36-11.23,9.26-3.97,2.76-8.1,5.26-12.42,7.43-4.33,2.17-8.8,4.01-13.46,5.47-.06-.06-.12-.11-.14-.14.82-.99,1.62-1.93,2.4-2.89,5.26-6.49,9.96-13.36,14.23-20.53.26-.43.38-.86.37-1.26-6.32-9.04-13.02-17.85-20.09-26.39h0Z"/>
  <path class="cls-1" d="M57.69,149.74c-.29.08-.53-.06-.79-.14-9.76-3.17-18.28-7.87-25.22-12.74-3.71-2.6-7.23-5.45-10.58-8.5-.18-.17-.38-.32-.54-.46.53-1.44,9.54-14.39,15.69-22.62,5.49-7.33,11.19-14.5,17.24-21.52,1.19,2.61,2.32,5.12,3.55,7.58,1.22,2.44,2.5,4.85,3.86,7.27-7.13,8.6-13.87,17.47-20.23,26.59-.02.28.15.45.25.63,3.76,6.38,7.87,12.52,12.42,18.37,1.27,1.63,2.6,3.22,3.9,4.83.17.21.39.39.47.67l-.03.03h0Z"/>
  <path class="cls-1" d="M146.18,98.88c-.26-.23-10.45-12.96-10.97-13.69-.03-.38.17-.72.3-1.08,1.43-4,2.72-8.04,3.91-12.12,1.35-4.63,2.53-9.31,3.58-14.01.04-.19.05-.38.08-.64-2.13-1.29-4.33-2.48-6.44-3.75-.1-.25-.02-.43.02-.62.33-1.53.63-3.07.95-4.6.31-1.51.61-3.02.86-4.54.17-1,.32-2.01.46-3.02.15-1.03.24-2.07.5-3.08.62.21,19.23,10.89,20.67,11.85-.16,1.66-.59,3.31-.86,4.98-.27,1.7-.64,3.38-1,5.07-.35,1.67-.73,3.33-1.12,4.99-.39,1.66-.79,3.32-1.22,4.98-.43,1.68-.89,3.36-1.36,5.03-.46,1.64-.94,3.29-1.45,4.92-.5,1.63-1.03,3.25-1.57,4.86-.54,1.61-1.1,3.22-1.66,4.83-.58,1.63-1.21,3.25-1.83,4.87-.61,1.59-1.26,3.17-1.87,4.78h0Z"/>
  <path class="cls-1" d="M19.88,49.6c1.93-1.26,20.07-11.67,20.71-11.89.23.82.31,1.67.37,2.51.03.5.18.96.23,1.45.08.73.18,1.46.3,2.19.08.51.25,1,.34,1.52.22,1.28.5,2.54.73,3.82.24,1.35.59,2.68.89,4.02.02.08,0,.16,0,.33-2.13,1.23-4.29,2.48-6.43,3.72.01,1.2,1.82,8.62,3.4,14.1,1.33,4.62,2.81,9.19,4.46,13.77-3.72,4.52-7.39,9.07-10.97,13.81-.73-1.66-1.36-3.25-1.97-4.84-.61-1.62-1.24-3.23-1.8-4.87-.56-1.62-1.13-3.23-1.67-4.85-.54-1.62-1.06-3.25-1.57-4.88-.51-1.65-1-3.31-1.47-4.97-.46-1.64-.9-3.28-1.32-4.93-.42-1.66-.82-3.32-1.2-4.98-.39-1.66-.76-3.32-1.11-4.99-.35-1.69-.66-3.4-1.01-5.1-.34-1.66-.5-3.34-.9-4.94h0Z"/>
  <path class="cls-1" d="M89.99,47.61c5.72,4.67,11.12,9.54,16.34,14.65-1.78,5.22-3.87,10.25-6.25,15.28-3.31-3.35-6.61-6.58-10.07-9.7-1.23,1.01-2.32,2.1-3.44,3.16-1.12,1.06-2.23,2.14-3.33,3.22-1.1,1.08-2.18,2.17-3.34,3.33-2.43-5.03-4.45-10.1-6.28-15.28,5.24-5.08,10.64-9.98,16.36-14.65h0Z"/>
  <path class="cls-1" d="M57.72,149.72s.08.06.12.09c-.08.05-.15.07-.15-.07l.03-.03h0Z"/>
</svg>