<?xml version="1.0" encoding="UTF-8"?>
<svg id="Layer_1" data-name="Layer 1" xmlns="http://www.w3.org/2000/svg" viewBox="0 0 180 180">
  <defs>
    <style>
      .cls-1 {
        fill: #7b4181;
      }
    </style>
  </defs>
  <path class="cls-1" d="M21.47,113.4c.95,1.2,1.9,2.41,2.86,3.6,4.42,5.5,9.45,10.31,15.51,14.01,3.12,1.9,6.27,3.72,9.57,5.26,5.34,2.48,10.9,4.3,16.67,5.44,3.51.69,7.06,1.1,10.65.97,4.98-.17,9.82-1.11,14.55-2.7,3.34-1.13,6.57-2.49,9.63-4.25.11-.06.2-.13.43-.28-2.05-.57-3.94-1.24-5.63-2.53,1.42-.37,2.83-.57,4.2-.97,3.16-.92,6.08-2.34,8.36-4.71,3.25-3.37,5.27-7.35,4.94-12.2-.18-2.62-1.47-4.7-3.51-6.32-1.28-1.02-2.73-1.48-4.41-1.6-3.28-.24-6.3-1.35-8.75-3.69-.23-.22-.39-.58-.93-.58.78,2.49,2.16,4.54,4.01,6.33,0,1.01-.33,1.97-.62,2.91-1.69,5.48-4.43,10.33-8.77,14.16-3.58,3.16-7.74,5.2-12.46,6.04-1.72.31-3.46.67-5.21.54-2.48-.19-4.96-.48-7.35-1.33.6-.2,1.23-.22,1.83-.32,1.91-.31,3.59-1.1,5.07-2.33.95-.79,1.11-1.63.54-2.56-.96-.22-1.93-.02-2.87.18-2.54.53-5.11.6-7.68.53-4.84-.13-9.48-1.22-13.95-3.07-5.63-2.33-10.3-6.01-14.29-10.54-3.39-3.84-5.91-8.19-7.18-13.2-.41-1.62-.85-3.25-.64-5.09.41.64.75,1.19,1.11,1.73,1.08,1.64,2.41,3.06,3.99,4.23.65.48,1.32,1,2.24.8.45-.43.37-.95.26-1.49-.25-1.24-1.06-2.2-1.66-3.26-2.95-5.15-5.11-10.62-6.56-16.37-.75-2.98-1.26-6-1.55-9.06-.2-2.12-.39-4.24-.33-6.38.2-7.05,2.08-13.54,6.56-19.12.82-1.02,1.59-2.09,2.67-2.87l.04.03c-.06.68-.48,1.22-.68,1.84-.42,1.36-.75,2.72-.67,4.15.02.35.07.68.18,1.01.56,1.76,1.92,2.2,3.45,1.15.71-.49,1.25-1.15,1.77-1.81,2.74-3.48,5.54-6.9,8.6-10.12,4.52-4.76,9.49-8.97,14.94-12.62,5.98-4,12.46-6.88,19.48-8.47,2.66-.6,5.34-1.04,8.07-1.26,3.02-.25,6.03-.17,9.05-.1,1.9.04,3.81.29,5.68.7.12.03.25.02.32.26-.45.24-.98.23-1.47.29-5.34.61-10.55,1.77-15.62,3.58-3.48,1.25-6.71,2.97-9.93,4.75-3.64,2.01-7.05,4.36-10.28,6.97-3.43,2.77-6.62,5.78-9.5,9.13-2.52,2.95-4.79,6.07-6.54,9.53-1.68,3.31-2.94,6.79-3.83,10.39-.78,3.17-1.31,6.37-1.56,9.63-.09,1.24-.13,2.47-.14,3.89.82-.75,1.45-1.45,2.21-1.99.84-.6,1.67-1.21,2.7-1.47h0c-.18,1.24-.8,2.36-1.05,3.59-.39,1.9-.89,3.78-.83,5.74.09,2.99.82,5.82,2.37,8.41,1.23,2.07,2.68,3.95,4.72,5.3,3.48,2.3,7.3,2.23,10.6.03.72-.48,1.25-1.13,1.73-1.84,1.53-2.3,3.47-4.13,5.98-5.32,1.02-.48,2.12-.73,3.31-1.08-1.45-.46-2.82-.3-4.17-.35-1.37-.04-2.74.12-4.05.53-1.75-1.53-3.26-3.16-4.6-4.96-2.62-3.52-4.47-7.39-5.38-11.7-.55-2.6-.61-5.2-.36-7.84.28-2.91,1.07-5.65,2.29-8.29.96-2.1,2.19-4.02,3.67-5.79.5-.6,1.04-1.18,1.57-1.75.16-.18.31-.41.61-.39l.03.03c-.07.44-.26.83-.43,1.24-.76,1.79-.86,3.66-.68,5.55.12,1.28.81,1.97,1.93,2.06.62-.39.82-1.09,1.03-1.72,2.09-6.22,5.69-11.45,10.44-15.91,3.54-3.33,7.64-5.79,12.18-7.54,2.85-1.1,5.78-1.86,8.79-2.35,2.11-.34,4.26-.17,6.39-.24,3.03-.09,5.92.51,8.74,1.53.99.36,1.98.72,2.99,1.44-1.43.1-2.7,0-3.96.24-1.67.32-3.29.79-4.79,1.63-.37.2-.66.47-.85.77-.13.51.11.82.47.98.68.3,1.37.61,2.15.6,1.54-.01,3.08.01,4.63,0,1.45-.02,2.87.21,4.3.33,2.13.18,4.22.56,6.3.98,3.98.8,7.83,2.01,11.56,3.6,3.83,1.64,7.46,3.62,10.79,6.13,3.1,2.33,5.65,5.16,7.61,8.52,1.42,2.43,2.42,5.03,3.25,7.7.04.12.09.24,0,.45-.62-.75-1.18-1.51-1.81-2.19-1.01-1.09-2.13-2.04-3.59-2.5-.86-.27-1.7-.33-2.36.4-.65.72-.83,1.58-.53,2.53.66,2.1,1.55,4.11,2.32,6.16,2.11,5.61,3.87,11.32,4.93,17.23.42,2.37.71,4.76.98,7.16.43,3.89.44,7.77.27,11.65-.16,3.72-.91,7.39-1.92,10.99-1.14,4.06-2.67,7.97-4.63,11.71-1.8,3.43-3.95,6.64-6.38,9.65-.13.16-.25.37-.52.35-.22-.3.02-.54.13-.79,1.72-3.98,3.18-8.05,4.15-12.27.68-2.96,1.16-5.94,1.35-8.99.2-3.3.11-6.59.12-9.88,0-2.53-.3-5.05-.68-7.56-.51-3.35-1.2-6.65-2.13-9.91-1.9-6.62-4.76-12.73-9.2-18.07-3.94-4.73-8.57-8.65-13.75-11.94-.21-.13-.44-.25-.66-.36-.08-.04-.18-.04-.42-.1.72,1.97.64,3.93.58,6.05-.47-.53-.87-.99-1.26-1.44-2.57-2.94-5.57-5.26-9.33-6.46-2.27-.73-4.58-.91-6.96-.64-2.26.26-4.39.79-6.28,2.06-3.18,2.13-4.42,5.18-4.07,8.93.06.66.32,1.28.64,1.86,1.42,2.63,1.85,5.45,1.59,8.39-.08.86-.33,1.7-.44,2.57,1.88-1.93,3.02-4.26,3.7-6.84,1.76-.73,3.6-1.11,5.45-1.4,1.85-.29,3.73-.45,5.61-.4,6.11.17,11.64,1.97,16.43,5.86,4.41,3.59,7.29,8.16,8.84,13.6.06.21.13.42.03.67-.36-.11-.5-.44-.71-.7-1.11-1.4-2.41-2.56-4.04-3.33-.6-.29-1.22-.49-1.9-.46-.61.02-1.1.22-1.42.77-.04.74.45,1.23.88,1.71,2.48,2.79,4.48,5.9,6.02,9.3,1.5,3.3,2.53,6.73,3.13,10.31.51,3.04.55,6.1.28,9.12-.66,7.49-3.07,14.39-7.8,20.35-1.67,2.1-3.63,3.9-5.99,5.34-.12-.4.12-.62.26-.86,1.28-2.34,2.15-4.8,2.12-7.52,0-.44.02-.89-.37-1.23-.58-.21-1,.12-1.42.47-.76.62-1.15,1.49-1.6,2.31-2.16,3.89-4.75,7.47-7.68,10.81-3.82,4.35-8.1,8.16-12.99,11.26-3.73,2.36-7.61,4.38-11.95,5.41-2.75.65-5.52.75-8.32.69-2.21-.04-4.33-.55-6.47-1.04-.14-.03-.28-.12-.53-.23,2.09-.08,3.99-.47,5.77-1.36.66-.33,1.2-.81,1.67-1.36.8-.95.62-2.12-.39-2.87-1.03-.76-2.26-.9-3.46-1.07-7.28-.99-14.45-2.45-21.38-4.91-5.94-2.11-11.63-4.72-16.87-8.25-3.4-2.29-6.52-4.92-9.34-7.9-4.22-4.46-7.71-9.43-10.38-14.96-.68-1.41-1.27-2.87-1.87-4.32-.15-.37-.33-.75-.3-1.18l.06-.06h0ZM95.62,102.58s-.03-.04-.04-.06c-.02.02-.05.03-.05.05,0,.02.02.04.04.06.02-.02.04-.03.05-.05h0Z"/>
</svg>