<?xml version="1.0" encoding="UTF-8"?>
<svg id="Layer_1" data-name="Layer 1" xmlns="http://www.w3.org/2000/svg" viewBox="0 0 180 180">
  <defs>
    <style>
      .cls-1 {
        fill: #329044;
      }

      .cls-2 {
        fill: #328f44;
      }
    </style>
  </defs>
  <path class="cls-1" d="M65.31,67.95c.28-.09.43.05.6.13,3.83,1.79,7.41,4,10.85,6.45,1.81,1.29,3.55,2.65,5.27,4.04,1,.8,1.94,1.69,2.91,2.53,2,1.75,3.87,3.64,5.83,5.44,1.69,1.57,3.23,3.27,4.81,4.94,2.01,2.12,3.86,4.39,5.65,6.71,1.74,2.25,3.54,4.45,5.3,6.68,1.31,1.65,2.58,3.33,3.89,4.97,1.3,1.62,2.65,3.21,3.94,4.83,1.13,1.41,2.31,2.78,3.53,4.11,1.09,1.19,2.23,2.34,3.46,3.4.85.73,1.69,1.48,2.55,2.2,1.47,1.24,3.03,2.33,4.63,3.39,1.6,1.06,3.26,2.02,4.97,2.88,1.96.98,3.98,1.82,6.05,2.53,1.86.63,3.77,1.13,5.7,1.49,1.42.27,2.85.52,4.3.56.39.01.79.12,1.17.18,0,.06,0,.11-.01.11-.56.34-1.13.67-1.69,1-19.59,11.31-39.17,22.62-58.72,33.91-.28-.14-.22-.33-.18-.47.39-1.45.68-2.92,1.01-4.38.31-1.38.56-2.78.78-4.18.2-1.26.43-2.52.61-3.79.15-1.08.21-2.17.39-3.25.13-.78.06-1.59.27-2.35.01-.05.02-.11.02-.16-.05-.99.13-1.96.21-2.94.11-1.28.05-2.57.17-3.85.21-2.22.08-4.43.13-6.65.02-.74-.02-1.48,0-2.22.03-1.51-.14-3.01-.2-4.51-.06-1.41-.13-2.84-.31-4.24-.16-1.27-.23-2.55-.43-3.82-.14-.89-.23-1.78-.35-2.68-.22-1.7-.53-3.39-.87-5.07-.4-1.98-.85-3.95-1.35-5.9-.7-2.7-1.55-5.35-2.48-7.98-.81-2.29-1.73-4.55-2.71-6.77-.96-2.18-2.03-4.31-3.15-6.41-1.61-3.02-3.44-5.91-5.43-8.69-.95-1.34-1.95-2.64-2.99-3.91-1.28-1.57-2.65-3.06-4.1-4.48-1.19-1.17-2.38-2.34-3.7-3.37-.13-.1-.27-.19-.31-.4h0Z"/>
  <path class="cls-1" d="M20.31,107.41c0-8.78,0-17.55,0-26.33,0-1.01.32-1.86,1-2.61,1.15-1.25,2.43-2.36,3.67-3.51,1.84-1.69,3.86-3.13,5.96-4.49,3.15-2.03,6.55-3.51,10.21-4.33.85-.19,1.71-.32,2.58-.42.71-.08,1.41-.11,2.12-.15,1.8-.09,3.53.29,5.23.82,2.07.64,4.03,1.54,5.91,2.62,1.9,1.09,3.66,2.38,5.36,3.77,1.66,1.36,3.2,2.84,4.65,4.4,1.03,1.1,1.99,2.26,2.93,3.43,1.42,1.77,2.73,3.62,3.96,5.54,1.21,1.89,2.33,3.83,3.4,5.81.77,1.42,1.45,2.88,2.15,4.34.93,1.95,1.74,3.95,2.49,5.98.57,1.54,1.1,3.09,1.61,4.65.46,1.43.88,2.87,1.1,4.35,0,.04-.03.09-.05.14-.19-.03-.26-.18-.36-.31-.99-1.31-2.06-2.55-3.14-3.78-.98-1.11-2.02-2.16-3.08-3.19-1.18-1.14-2.46-2.17-3.78-3.15-1.74-1.29-3.57-2.44-5.42-3.55-2.26-1.34-4.63-2.47-7.1-3.39-2.05-.76-4.16-1.33-6.3-1.74-1.15-.22-2.32-.34-3.49-.42-1.04-.08-2.07-.12-3.11-.12-1.12,0-2.23.17-3.34.28-1.5.16-2.96.47-4.41.87-1.53.42-3.02.94-4.48,1.57-.98.42-1.94.89-2.89,1.37-2.27,1.16-4.4,2.54-6.4,4.12-1.38,1.09-2.66,2.29-3.84,3.58-1.09,1.19-2.1,2.45-2.95,3.83-.06,0-.11,0-.17,0h0Z"/>
  <path class="cls-1" d="M58.26,104.4c.19.67-.08,1.18-.15,1.71-.09.7-.2,1.4-.3,2.1-.23,1.53-.13,3.06-.15,4.59-.03,1.84.3,3.64.74,5.42.66,2.64,1.83,5.04,3.46,7.2,1.34,1.78,2.94,3.32,4.75,4.62,2.11,1.51,4.4,2.66,6.87,3.43,1.43.45,2.9.74,4.39.94,1.67.22,3.34.18,5,.1,1.38-.07,2.76-.35,4.1-.71.34-.09.67-.23,1-.22.13.13.13.27.13.41,0,2.3.28,4.6.14,6.9-.1,1.7-.07,3.4-.18,5.09-.06.87-.02,1.76-.16,2.61-.15.89-.07,1.8-.25,2.69-.13.63-.11,1.3-.18,1.95-.14,1.25-.28,2.49-.48,3.73-.14.83-.23,1.67-.36,2.51-.25,1.62-.54,3.23-.89,4.82-.2.91-.4,1.81-.6,2.71-.05.21-.1.42-.32.62-.35-.18-.72-.35-1.07-.55-2.42-1.4-4.84-2.78-7.24-4.2-2.21-1.31-4.41-2.65-6.6-3.98-2.15-1.31-4.25-2.69-6.33-4.11-1.94-1.33-3.84-2.71-5.64-4.23-.79-.67-1.61-1.33-2.34-2.06-1.95-1.94-3.59-4.12-5.05-6.45-.89-1.42-1.67-2.89-2.37-4.41-1.16-2.49-1.97-5.08-2.56-7.76-.55-2.49-.55-5-.44-7.51.04-1,.24-2,.5-2.98.4-1.48.91-2.93,1.63-4.28.71-1.33,1.55-2.57,2.5-3.75.77-.97,1.64-1.85,2.55-2.67,1.79-1.61,3.72-3.04,5.89-4.29h0Z"/>
  <path class="cls-1" d="M90.18,68.04c-.42-1.16-.71-2.28-1.03-3.4-.51-1.79-1.11-3.55-1.79-5.27-.74-1.88-1.56-3.74-2.51-5.53-1.49-2.8-3.17-5.49-5.08-8.04-2.04-2.74-4.41-5.17-6.89-7.48-1.18-1.1-2.45-2.1-3.77-3.03-.83-.58-1.63-1.21-2.52-1.69-.06-.03-.09-.12-.16-.21,10.73-5.06,18.55-12.99,23.58-23.82.42.68.67,1.33,1,1.93.34.63.64,1.27,1,1.88.37.64.72,1.29,1.13,1.91.39.6.76,1.2,1.16,1.79.4.59.81,1.17,1.24,1.73.43.57.88,1.12,1.33,1.67.45.55.89,1.11,1.37,1.64.5.55,1.02,1.07,1.54,1.6.5.51,1,1.02,1.53,1.5.52.48,1.07.94,1.62,1.39.55.45,1.1.9,1.67,1.33.56.43,1.13.86,1.72,1.26.58.41,1.18.8,1.78,1.17.63.39,1.27.76,1.91,1.12.62.35,1.25.68,1.88,1.01.62.33,1.27.59,1.91.98-.32.36-.7.55-1.03.77-1.39.92-2.72,1.93-3.99,3.02-1.34,1.14-2.65,2.3-3.85,3.57-1.9,2.01-3.67,4.12-5.27,6.38-1.39,1.97-2.64,4.02-3.8,6.14-1.98,3.61-3.48,7.42-4.72,11.34-.27.86-.48,1.74-.72,2.6-.07.26-.17.51-.25.76h0Z"/>
  <path class="cls-1" d="M104.41,93.41c.24-.01.41.13.6.23.91.5,1.81,1.02,2.73,1.51,1.3.69,2.61,1.4,3.94,2.04,2.59,1.25,5.19,2.46,7.84,3.55,2.3.95,4.62,1.83,6.98,2.62,3.03,1.01,6.11,1.84,9.25,2.41,1.18.21,2.36.4,3.56.51,1.44.13,2.88.31,4.33.29,1.45-.02,2.89-.14,4.33-.29,1.11-.12,2.21-.3,3.31-.52,2.26-.44,4.45-1.09,6.58-1.97.53-.22,1.05-.44,1.56-.65.06.07.13.11.13.14.03,1.04.16,2.07.16,3.11-.02,6.58,0,13.16,0,19.74,0,.19,0,.38,0,.58-.05.72-.32,1.33-.94,1.74-1.23.82-2.57,1.33-4.07,1.32-.52,0-1.04,0-1.56,0-1.18,0-2.34-.17-3.51-.28-1.42-.14-2.8-.4-4.19-.68-1.88-.38-3.7-.95-5.49-1.61-1.77-.66-3.49-1.43-5.16-2.32-2.48-1.34-4.85-2.85-7.07-4.61-1.33-1.05-2.58-2.19-3.85-3.32-1.09-.97-2.03-2.07-3.02-3.13-1.01-1.07-1.9-2.26-2.83-3.4-1.02-1.25-2.04-2.5-3.05-3.76-.94-1.17-1.87-2.36-2.8-3.53-.95-1.2-1.9-2.4-2.85-3.6-.9-1.14-1.79-2.28-2.7-3.4-.57-.7-1.18-1.37-1.76-2.05-.17-.2-.45-.34-.42-.67h0s0,0,0,0Z"/>
  <path class="cls-2" d="M46.48,145.42c-.59-.1-1.02-.52-1.51-.79-1.57-.88-3.12-1.81-4.68-2.71-1.84-1.07-3.69-2.14-5.53-3.21-1.21-.7-2.41-1.4-3.62-2.1-1.7-.99-3.41-1.97-5.11-2.96-1.14-.66-2.28-1.3-3.41-1.97-.33-.19-.66-.4-.95-.64-.92-.76-1.42-1.72-1.34-2.94.02-.33,0-.66,0-.99.03-1.34.15-2.67.28-4,.11-1.09.31-2.16.52-3.23.36-1.8.95-3.53,1.63-5.23.74-1.81,1.7-3.49,2.85-5.07,1.24-1.71,2.65-3.26,4.27-4.64,1.97-1.68,4.12-3.08,6.4-4.27,2.63-1.37,5.39-2.41,8.31-2.96,1.37-.26,2.75-.43,4.15-.39.6.02,1.21,0,1.81,0,1.92,0,3.8.31,5.66.76.37.09.73.2,1.07.29.03.24-.12.28-.23.34-1.91,1.07-3.72,2.29-5.4,3.71-1.5,1.28-2.88,2.69-4.18,4.18-1.12,1.28-2.18,2.6-3.12,4.01-1.1,1.64-2.08,3.34-2.8,5.19-.62,1.58-1.13,3.19-1.43,4.86-.12.64-.17,1.3-.26,1.94-.14,1.01-.12,2.02-.13,3.03-.02,1.56.22,3.09.45,4.64.31,2.09.92,4.1,1.57,6.09.89,2.72,2.22,5.23,3.85,7.58.25.36.49.72.75,1.08.08.12.15.23.13.38h0Z"/>
  <path class="cls-2" d="M103.3,51.71c-.1-.21.02-.36.12-.52.83-1.26,1.69-2.48,2.64-3.65,1.17-1.45,2.37-2.87,3.72-4.16,2.38-2.27,4.96-4.3,7.85-5.9,1.03-.57,2.09-1.08,3.17-1.55.12-.05.25-.09.41-.15.75.31,1.52.59,2.26.94,2.74,1.26,5.36,2.74,7.83,4.48,1.63,1.15,3.24,2.33,4.76,3.62,1.02.87,2.02,1.77,3.01,2.66.96.86,1.9,1.75,2.77,2.69,1.25,1.34,2.49,2.68,3.67,4.09,2.08,2.48,4,5.06,5.76,7.78,1.67,2.58,3.17,5.25,4.46,8.03.93,2.01,1.78,4.06,2.43,6.18.55,1.8,1.01,3.62,1.23,5.5.08.68.15,1.34.12,2.02-.21.01-.26-.13-.32-.25-.89-1.79-1.94-3.5-3.04-5.16-1.04-1.57-2.16-3.09-3.33-4.57-1.67-2.11-3.53-4.04-5.43-5.93-1.83-1.81-3.81-3.46-5.88-4.99-2.74-2.02-5.63-3.79-8.7-5.26-1.77-.85-3.59-1.61-5.45-2.26-1.86-.65-3.73-1.23-5.65-1.65-1.04-.22-2.09-.4-3.13-.6-.72-.14-1.44-.28-2.17-.4-.67-.11-1.35-.18-2.03-.26-.78-.09-1.57-.19-2.35-.28-.68-.08-1.36-.15-2.04-.18-2.02-.09-4.04-.28-6.07-.18-.21.01-.44.06-.64-.08h0Z"/>
  <path class="cls-2" d="M159.49,97.49c-.38.34-.9.55-1.37.79-1.84.92-3.75,1.66-5.75,2.14-1.45.35-2.93.59-4.43.76-2,.22-4,.17-5.99.09-1.22-.05-2.44-.21-3.65-.4-1.35-.21-2.69-.44-4.02-.72-.91-.19-1.8-.42-2.7-.63-.1-.02-.22-.03-.27-.15.41-.82.85-1.64,1.24-2.48.92-1.99,1.56-4.08,1.99-6.22.27-1.36.45-2.74.54-4.13.06-.87.17-1.75.08-2.62-.11-1.03-.09-2.07-.25-3.1-.12-.75-.22-1.51-.33-2.26-.29-1.89-.78-3.74-1.37-5.55-1.19-3.64-2.92-7.01-5.14-10.13-.36-.51-.77-.99-1.15-1.49-.08-.1-.14-.21-.24-.35.38-.1.64.1.91.2,2.1.79,4.14,1.72,6.11,2.8,2.47,1.36,4.8,2.93,7.03,4.66,2.35,1.82,4.45,3.89,6.47,6.06,1.27,1.36,2.39,2.84,3.49,4.35,2.25,3.08,4.11,6.39,5.72,9.85.8,1.71,1.52,3.45,2.14,5.23.31.88.6,1.76.91,2.63.07.21.16.41.06.68h0Z"/>
</svg>