<?xml version="1.0" encoding="UTF-8"?>
<svg id="Layer_1" data-name="Layer 1" xmlns="http://www.w3.org/2000/svg" viewBox="0 0 180 180">
  <defs>
    <style>
      .cls-1 {
        fill: #0092c8;
      }

      .cls-2 {
        fill: #0093c8;
      }
    </style>
  </defs>
  <path class="cls-2" d="M149.52,85.24c-2.56-3.03-5.22-5.92-8-8.6-.07-.3.09-.44.17-.6,1.28-2.35,2.33-4.79,2.93-7.41.36-1.56.53-3.14.39-4.73-.22-2.52-1.18-4.72-2.93-6.58-1.69-1.8-3.78-2.92-6.05-3.77-1.32-.49-2.67-.83-4.05-1.08-2.87-.53-5.77-.63-8.68-.47-.74.04-1.49.07-2.24.23-.56.12-1.17.08-1.76.16-3.33.46-6.61,1.18-9.84,2.11-1.86.54-3.71,1.12-5.53,1.78-.15.05-.32.06-.44.27.21.13.43.28.65.4,4.8,2.58,9.43,5.44,13.92,8.52,3.62,2.49,7.13,5.12,10.52,7.92,2.54,2.1,4.99,4.28,7.38,6.54,2.49,2.35,4.87,4.81,7.13,7.39,3.68,4.21,6.96,8.71,9.7,13.6,1.65,2.94,3.08,5.98,4.1,9.21.59,1.88,1.04,3.78,1.28,5.74.21,1.67.24,3.34.08,5-.16,1.71-.52,3.39-1.19,4.99-.69,1.62-1.55,3.14-2.67,4.5-1.61,1.97-3.58,3.49-5.78,4.73-2.8,1.57-5.8,2.56-8.92,3.24-1.31.28-2.64.48-3.98.67-1.41.2-2.82.28-4.24.35-1.29.06-2.59.17-3.88.08-1.53-.11-3.07-.03-4.6-.25-.16-.02-.32-.02-.48-.02-1.32,0-2.61-.3-3.92-.43-.67-.06-1.33-.2-2-.25-.63-.04-1.26-.25-1.89-.36-4.11-.75-8.14-1.78-12.11-3.07-1.48-.49-2.94-1.05-4.41-1.57-.08-.03-.15-.06-.19-.22,1.56-.73,3.13-1.46,4.7-2.21,1.58-.76,3.14-1.55,4.7-2.35,1.55-.8,3.09-1.64,4.67-2.48,1.36.29,2.75.58,4.14.89.16.04.31.05.47.06,1.12.1,2.24.23,3.35.46.1.02.21.04.32.04,1.86-.03,3.71.25,5.57.16,1.18-.06,2.38-.02,3.55-.17,3.1-.4,6.15-1.04,8.91-2.63,1.9-1.09,3.54-2.46,4.69-4.35.84-1.38,1.3-2.88,1.5-4.48.3-2.38-.13-4.66-.79-6.92-.85-2.89-2.19-5.55-3.71-8.14-.38-.65-.79-1.29-1.19-1.92-.11-.18-.25-.35-.36-.5-.27-.05-.37.13-.5.26-1.11,1.07-2.19,2.15-3.31,3.21-3.47,3.28-7.16,6.3-11,9.14-3.73,2.76-7.59,5.32-11.58,7.69-5.05,3-10.27,5.7-15.62,8.12-6.31,2.85-12.77,5.32-19.38,7.4-4.57,1.44-9.19,2.66-13.91,3.54-1.05.2-2.11.41-3.17.57-1.03.16-2.08.24-3.12.38-1.98.27-3.97.29-5.95.41-1.02.06-2.05.09-3.07-.05-.24-.03-.48-.03-.73-.03-1.24,0-2.46-.15-3.68-.29-1.74-.21-3.44-.58-5.12-1.04-3.12-.85-6.03-2.17-8.61-4.13-3.82-2.9-6.26-6.69-7.39-11.34-.16-.65-.19-1.33-.46-1.95-.02-.05-.02-.11-.02-.16.07-1.11-.19-2.2-.14-3.31.04-.99.19-1.98.14-2.98.36-.99.44-2.04.7-3.06.99-3.89,2.56-7.54,4.5-11.03.85-1.53,1.77-3.02,2.76-4.47.16-.24.29-.52.59-.74.86.99,1.71,1.99,2.59,2.96.88.98,1.79,1.95,2.7,2.9.91.95,1.85,1.88,2.78,2.82,0,.31-.18.51-.31.74-.84,1.57-1.6,3.18-2.16,4.87-.74,2.18-1.18,4.42-1.05,6.74.15,2.62,1.09,4.91,2.87,6.86,1.69,1.84,3.8,2.98,6.1,3.83,1.21.45,2.46.79,3.73,1.01.68.12,1.35.29,2.03.44.05.01.11,0,.16,0,2.05.06,4.09.26,6.14.14.91-.06,1.82-.15,2.74-.15.39,0,.79-.13,1.19-.18,3.93-.5,7.77-1.36,11.56-2.51,1.52-.46,3.03-.95,4.53-1.48.17-.06.37-.08.49-.3-.92-.51-1.84-1.01-2.75-1.53-5.24-2.95-10.29-6.2-15.16-9.73-3.71-2.69-7.29-5.55-10.73-8.57-2.61-2.3-5.13-4.7-7.55-7.2-3.92-4.06-7.5-8.4-10.59-13.13-1.92-2.94-3.65-5.98-5.06-9.19-1.13-2.57-2.02-5.22-2.57-7.97-.22-1.08-.31-2.18-.43-3.28-.14-1.33-.06-2.64.08-3.95.28-2.69,1.14-5.19,2.59-7.49,1.74-2.76,4.12-4.81,6.93-6.41,2.86-1.62,5.94-2.63,9.14-3.32,1.55-.33,3.12-.5,4.68-.76.05,0,.11-.01.16-.02,1.15-.07,2.3-.16,3.45-.21,1.13-.05,2.26-.18,3.39-.11,1.77.11,3.57.02,5.32.31.99.16,1.98.09,2.96.27,1.29.24,2.61.34,3.91.56,2.86.49,5.7,1.12,8.5,1.88,2.94.79,5.82,1.75,8.68,2.8.15.05.29.14.43.21-.04.3-.3.32-.47.4-2.42,1.11-4.84,2.25-7.22,3.45-2.09,1.06-4.16,2.16-6.22,3.32-1.12-.22-2.25-.45-3.38-.66-1.64-.3-3.28-.57-4.95-.64-.66-.03-1.33-.13-1.99-.19-1.91-.16-3.82-.17-5.73,0-.72.07-1.45.08-2.17.19-2.2.34-4.39.74-6.44,1.65-1.89.84-3.62,1.91-5.04,3.43-1.58,1.69-2.48,3.69-2.81,5.97-.39,2.65.11,5.2.9,7.71.91,2.86,2.27,5.52,3.83,8.09.42.69.81,1.39,1.32,2,.25,0,.36-.18.49-.31,1.28-1.28,2.57-2.54,3.9-3.76,2.3-2.12,4.68-4.15,7.13-6.08,3.51-2.78,7.17-5.35,10.94-7.76,2.91-1.86,5.88-3.6,8.91-5.26,2.77-1.51,5.58-2.93,8.43-4.27,4.07-1.92,8.21-3.66,12.42-5.24,2.62-.98,5.26-1.92,7.92-2.78,4.95-1.59,9.95-2.97,15.06-3.9.98-.18,1.96-.34,2.94-.48.85-.12,1.7-.25,2.54-.38.08-.01.16-.05.24-.04.89.03,1.76-.14,2.64-.22,1.07-.1,2.14-.12,3.21-.21,1.29-.1,2.58-.11,3.87,0,.38.03.75.04,1.13.05,4.04.2,7.96.93,11.71,2.48,2.82,1.16,5.36,2.77,7.49,4.97,2.32,2.38,3.9,5.18,4.84,8.37.81,2.76.97,5.57.72,8.4-.2,2.3-.76,4.55-1.49,6.75-1.32,3.96-3.19,7.65-5.41,11.17-.42.66-.85,1.31-1.29,1.96-.09.13-.15.29-.39.38h0ZM48.53,90.08c.26.22.48.38.67.56,1.81,1.74,3.67,3.42,5.54,5.08,2.72,2.41,5.53,4.73,8.43,6.93,3.29,2.5,6.77,4.7,10.57,6.36,3.07,1.34,6.25,2.32,9.54,2.93.18.03.37.1.55-.07.01-.06.05-.15.03-.22-.2-.57-.12-1.17-.13-1.75,0-.43,0-.86-.12-1.29-.09-.33-.21-.68-.2-1.01.04-.88-.18-1.71-.35-2.55-.52-2.57-1.32-5.05-2.59-7.36-1.88-3.42-4.57-5.96-8.23-7.43-.14-.06-.3-.09-.41-.26.22-.11.44-.21.66-.31.22-.1.45-.18.67-.29,3.22-1.54,5.62-3.94,7.33-7.05,1.14-2.09,1.91-4.33,2.43-6.65.19-.87.39-1.74.47-2.62.06-.64.18-1.27.23-1.91.04-.53.1-1.06.11-1.59,0-.32-.04-.64.12-.95.07-.15.1-.37-.12-.53-.11,0-.25,0-.38.02-1.96.37-3.89.85-5.78,1.49-4.11,1.39-7.96,3.3-11.53,5.75-4.39,3.01-8.45,6.42-12.4,9.97-.92.83-1.84,1.66-2.75,2.5-.77.71-1.51,1.44-2.35,2.25h0ZM96.28,111.96c.17-.01.34,0,.49-.03.79-.16,1.58-.31,2.36-.51,5.16-1.31,9.97-3.44,14.39-6.4,4.71-3.15,9.03-6.81,13.23-10.6,1.04-.94,2.08-1.88,3.1-2.84.52-.49,1.09-.94,1.54-1.58-.21-.21-.39-.41-.58-.59-1.74-1.65-3.51-3.27-5.3-4.86-2.74-2.43-5.57-4.76-8.48-6.99-3.2-2.45-6.58-4.59-10.26-6.24-3.2-1.44-6.53-2.5-9.97-3.17-.18-.03-.37-.08-.56.02-.09.14-.07.3-.06.46.05.72.03,1.43.14,2.16.21,1.49.38,2.99.69,4.46.55,2.62,1.41,5.14,2.75,7.47,1.87,3.26,4.51,5.67,8.01,7.09.15.06.29.15.49.26-.24.1-.38.16-.53.22-1.91.8-3.63,1.88-5.11,3.33-1.98,1.94-3.36,4.26-4.34,6.83-.8,2.12-1.33,4.31-1.66,6.55-.21,1.44-.36,2.88-.44,4.33-.01.18-.05.38.1.62h0Z"/>
  <path class="cls-1" d="M89.91,43.85c-6.69-3.32-13.76-5.54-21.02-7.13,0-.08-.01-.1,0-.13,0-.03,0-.06.02-.08,7-8.3,13.99-16.6,20.99-24.9.03-.03.09-.04.2-.08,7.03,8.34,14.07,16.7,21.1,25.04-.12.25-.32.27-.49.31-7.05,1.82-13.93,4.1-20.63,6.94-.02.01-.05,0-.17.03h0Z"/>
  <path class="cls-2" d="M90.09,136.21c6.7,3.33,13.78,5.58,21.19,7.19-7,8.31-13.93,16.52-20.87,24.73-.12.14-.22.31-.43.35-.15-.02-.24-.13-.32-.23-6.95-8.26-13.91-16.52-20.93-24.87,1.51-.45,2.94-.78,4.36-1.2,1.45-.42,2.89-.85,4.33-1.3,1.41-.45,2.81-.92,4.21-1.41,1.42-.5,2.83-1.02,4.24-1.57,1.38-.53,2.75-1.1,4.22-1.7h0Z"/>
</svg>