<?xml version="1.0" encoding="UTF-8"?>
<svg id="Layer_1" data-name="Layer 1" xmlns="http://www.w3.org/2000/svg" viewBox="0 0 180 180">
  <defs>
    <style>
      .cls-1 {
        fill: #97a3ae;
      }
    </style>
  </defs>
  <path class="cls-1" d="M94.66,12.74c1.14.65,2.29,1.29,3.43,1.95,5.33,3.08,10.65,6.16,15.98,9.25,2.14,1.24,4.28,2.47,6.42,3.71.14.08.26.18.42.3v57.16c2.73,1.63,5.48,3.19,8.18,4.77.26-.11.17-.29.18-.44.01-.24,0-.48,0-.73,0-17.24,0-34.48,0-51.72,0-.32,0-.63.01-.97.15.03.24.02.3.05,8.73,5.04,17.45,10.08,26.18,15.12v20.24c-1.92,2.19-3.85,4.39-5.78,6.6v23.55c.13.24.36.33.57.45,2.31,1.33,4.61,2.65,6.92,3.98.21.12.44.21.57.42.14,1.42.14,20.18,0,21.61-.49.39-66.94,38.83-68.03,39.35-.03,0-.06,0-.08,0s-.06,0-.08-.01c-22.55-13.02-45.11-26.04-67.66-39.06-.11-.07-.22-.15-.35-.23v-21.69c1.3-.83,2.7-1.57,4.06-2.36,1.37-.8,2.74-1.58,4.11-2.36v-23.6c-1.94-2.2-3.91-4.43-5.87-6.65v-20.22c8.76-5.06,17.51-10.11,26.26-15.15.04-.02.1,0,.22.02.02.71.07,1.43.07,2.15,0,13.39,0,26.79,0,40.18,0,3.55,0,7.1,0,10.65,0,.26-.05.53.1.85,2.74-1.59,5.45-3.16,8.17-4.75V27.93c8.84-5.12,17.66-10.23,26.46-15.32.09.05.12.06.13.08.02.02.03.05.03.07,0,37.39.01,74.77.02,112.16,0,.13-.01.26-.02.38-.23.05-.31-.12-.42-.22-1.95-1.89-3.91-3.77-5.86-5.66-3.29-3.18-6.57-6.36-9.86-9.53-2.67-2.58-5.34-5.16-8.01-7.73-.14-.13-.27-.27-.41-.39-.11-.09-.24-.12-.41-.03.26.58.52,1.15.79,1.73,1.15,2.46,2.32,4.91,3.43,7.38.47,1.04,1.09,2.02,1.4,3.14.91,1.56,1.58,3.23,2.34,4.85,1.63,3.45,3.23,6.91,4.85,10.37.12.26.31.51.18.83-5.77-1.3-11.53-2.49-17.29-3.74-5.74-1.24-11.48-2.45-17.27-3.55,16.96,9.23,33.92,18.47,50.83,27.67.31,0,.47-.16.66-.27,4.61-2.5,9.21-5,13.81-7.5,6.28-3.42,12.55-6.85,18.83-10.27,3.92-2.13,7.84-4.26,11.76-6.39,1.84-1,3.68-2.01,5.52-3.01.3,0,.48-.22.72-.4-.3-.11-.51.02-.72.12-3.54.75-7.08,1.5-10.61,2.26-3.87.83-7.74,1.69-11.61,2.53-3.93.85-7.86,1.68-11.79,2.53-.14.03-.19-.02-.26-.09,2.2-4.72,4.4-9.44,6.61-14.16,2.2-4.71,4.38-9.43,6.63-14.2-.44.02-.56.26-.72.41-1.09,1.04-2.16,2.1-3.24,3.15-3.5,3.38-6.99,6.77-10.49,10.15-3.19,3.08-6.38,6.16-9.57,9.25-.27.26-.52.54-.85.67-.17-.11-.21-.24-.21-.37,0-.27-.01-.54-.01-.81,0-36.78,0-73.57,0-110.35,0-.3.02-.59.02-.89.11-.01.21-.02.32-.03h0Z"/>
</svg>