<svg xmlns="http://www.w3.org/2000/svg" viewBox="0 0 100 140"><rect width="100" height="140" rx="4.564" style="fill:#231815"/><rect width="92.247" height="132.164" x="3.824" y="3.866" rx="1.837" style="fill:#fff"/><path d="M92.779 15.026H7.244A6.36 6.36 0 0 1 5.6 10.585a6.36 6.36 0 0 1 1.646-4.44h85.533a5.9 5.9 0 0 1 1.7 4.44 5.9 5.9 0 0 1-1.7 4.441Zm1.664 67.655a5.9 5.9 0 0 0-1.7-4.44H7.3a6.52 6.52 0 0 0 0 8.881h85.439a5.9 5.9 0 0 0 1.704-4.441Zm-87.1-67.655L7.3 78.241m85.436 0 .04-63.215M7.3 87.122l.04 42.261h85.4V87.122" style="fill:none;stroke:#231815;stroke-miterlimit:10;stroke-width:1.99212761635983px" transform="translate(0 .189)"/></svg>