<svg xmlns="http://www.w3.org/2000/svg" xmlns:xlink="http://www.w3.org/1999/xlink" viewBox="0 0 100 140"><defs><linearGradient id="a" x2="100" y1="70" y2="70" gradientUnits="userSpaceOnUse"><stop offset="0" stop-color="#b63427"/><stop offset=".003" stop-color="#b73527"/><stop offset=".098" stop-color="#ca5726"/><stop offset=".194" stop-color="#d97226"/><stop offset=".292" stop-color="#e48525"/><stop offset=".393" stop-color="#eb9025"/><stop offset=".5" stop-color="#ed9425"/><stop offset="1" stop-color="#b63427"/></linearGradient><linearGradient xlink:href="#a" id="c" x1="4.561" x2="95.479" y1="67.764" y2="67.764"/><linearGradient xlink:href="#a" id="e" x1="-8.663" x2="108.663" y1="128.663" y2="11.337"/><linearGradient xlink:href="#a" id="f" x1="-2.992" x2="103.048" y1="121.039" y2="14.999"/><linearGradient id="b" x1="-8.663" x2="108.663" y1="128.663" y2="11.337" gradientUnits="userSpaceOnUse"><stop offset="0" stop-color="#8f7734"/><stop offset=".02" stop-color="#947c39"/><stop offset=".135" stop-color="#af9753"/><stop offset=".252" stop-color="#c2aa65"/><stop offset=".372" stop-color="#cdb56f"/><stop offset=".5" stop-color="#d1b973"/><stop offset="1" stop-color="#8f7734"/></linearGradient><linearGradient xlink:href="#b" id="i" x1="-2.95" x2="103.006" y1="120.996" y2="15.04"/><clipPath id="d" transform="translate(0 .189)"><path d="M100 140V0L0 140z" style="fill:none"/></clipPath><clipPath id="h" transform="translate(0 .189)"><path d="M0 .189V140L100 0z" style="fill:none"/></clipPath></defs><rect width="100" height="140" rx="4.564" style="fill:url(#a)"/><rect width="92.247" height="132.164" x="3.824" y="3.866" rx="1.837" style="fill:#fff"/><path d="M92.779 15.026H7.244A6.36 6.36 0 0 1 5.6 10.585a6.36 6.36 0 0 1 1.646-4.44h85.533a5.9 5.9 0 0 1 1.7 4.44 5.9 5.9 0 0 1-1.7 4.441Zm1.664 67.655a5.9 5.9 0 0 0-1.7-4.44H7.3a6.52 6.52 0 0 0 0 8.881h85.439a5.9 5.9 0 0 0 1.704-4.441Zm-87.1-67.655L7.3 78.241m85.436 0 .04-63.215M7.3 87.122l.04 42.261h85.4V87.122" style="fill:none;stroke-miterlimit:10;stroke-width:1.99212761635983px;stroke:url(#c)" transform="translate(0 .189)"/><g style="clip-path:url(#d)"><rect width="100" height="140" rx="4.564" style="fill:url(#e)"/><rect width="92.247" height="132.164" x="3.824" y="3.866" rx="1.837" style="fill:#fff"/><path d="M92.779 15.026H7.244A6.36 6.36 0 0 1 5.6 10.585a6.36 6.36 0 0 1 1.646-4.44h85.533a5.9 5.9 0 0 1 1.7 4.44 5.9 5.9 0 0 1-1.7 4.441Zm1.664 67.655a5.9 5.9 0 0 0-1.7-4.44H7.3a6.52 6.52 0 0 0 0 8.881h85.439a5.9 5.9 0 0 0 1.704-4.441Zm-87.1-67.655L7.3 78.241m85.436 0 .04-63.215M7.3 87.122l.04 42.261h85.4V87.122" style="fill:none;stroke-miterlimit:10;stroke-width:1.99212761635983px;stroke:url(#f)" transform="translate(0 .189)"/></g><g style="clip-path:url(#h)"><rect width="100" height="140" rx="4.564" style="fill:url(#b)"/><rect width="92.247" height="132.164" x="3.824" y="3.866" rx="1.837" style="fill:#fff"/><path d="M92.779 15.1H7.244A6.35 6.35 0 0 1 5.6 10.663a6.35 6.35 0 0 1 1.644-4.435h85.535a5.9 5.9 0 0 1 1.7 4.435 5.9 5.9 0 0 1-1.7 4.437Zm1.664 67.564a5.9 5.9 0 0 0-1.7-4.434H7.3a6.5 6.5 0 0 0 0 8.869h85.439a5.9 5.9 0 0 0 1.704-4.438ZM7.343 15.1 7.3 78.227m85.436 0 .04-63.13M7.3 87.1l.04 42.2h85.4V87.1" style="fill:none;stroke-miterlimit:10;stroke-width:1.99078530820441px;stroke:url(#i)" transform="translate(0 .189)"/></g></svg>
