<svg xmlns="http://www.w3.org/2000/svg" xmlns:xlink="http://www.w3.org/1999/xlink" viewBox="0 0 100 140"><defs><linearGradient id="a" x1="-8.663" x2="108.663" y1="128.663" y2="11.337" gradientUnits="userSpaceOnUse"><stop offset="0" stop-color="#67767f"/><stop offset=".092" stop-color="#82949f"/><stop offset=".189" stop-color="#98adba"/><stop offset=".289" stop-color="#a8becd"/><stop offset=".391" stop-color="#b2c9d8"/><stop offset=".5" stop-color="#b5ccdc"/><stop offset="1" stop-color="#67767f"/></linearGradient><linearGradient xlink:href="#a" id="b" x1="-2.992" x2="103.048" y1="121.039" y2="14.999"/></defs><rect width="100" height="140" rx="4.564" style="fill:url(#a)"/><rect width="92.247" height="132.164" x="3.824" y="3.866" rx="1.837" style="fill:#fff"/><path d="M92.779 15.026H7.244A6.36 6.36 0 0 1 5.6 10.585a6.36 6.36 0 0 1 1.646-4.44h85.533a5.9 5.9 0 0 1 1.7 4.44 5.9 5.9 0 0 1-1.7 4.441Zm1.664 67.655a5.9 5.9 0 0 0-1.7-4.44H7.3a6.52 6.52 0 0 0 0 8.881h85.439a5.9 5.9 0 0 0 1.704-4.441Zm-87.1-67.655L7.3 78.241m85.436 0 .04-63.215M7.3 87.122l.04 42.261h85.4V87.122" style="fill:none;stroke-miterlimit:10;stroke-width:1.99212761635983px;stroke:url(#b)" transform="translate(0 .189)"/></svg>
