<svg xmlns="http://www.w3.org/2000/svg" viewBox="0 0 119.87 99"><path d="M72.21 1.5c-37.4 0-71 47.87-71 47.87s33.64 49.13 71 49.13 46.62-36.57 46.62-48.5-9.21-48.5-46.62-48.5Z" style="fill:#fff;stroke:#231815;stroke-miterlimit:10;stroke-width:2px" transform="translate(.05 -.5)"/><path d="M72.21 90.14c-24.09 0-49.25-26-60.59-40.66a161.5 161.5 0 0 1 16.92-18.09C39.33 21.57 55.66 9.86 72.21 9.86c13.17 0 23.38 5.39 30.35 16 5.8 8.85 7.91 19.28 7.91 24.14s-2.11 15.29-7.91 24.14c-6.97 10.61-17.18 16-30.35 16Z" style="fill:none;stroke:#231815;stroke-miterlimit:10" transform="translate(.05 -.5)"/><path d="M68.79 29.58 50.1 59.65h37.38z" style="fill:#231815;stroke:#231815;stroke-linecap:round;stroke-linejoin:round;stroke-width:10px"/></svg>