<svg xmlns="http://www.w3.org/2000/svg" xmlns:xlink="http://www.w3.org/1999/xlink" viewBox="0 0 100 140"><defs><linearGradient id="a" y1="70" x2="100" y2="70" gradientUnits="userSpaceOnUse"><stop offset="0" stop-color="#b63427"/><stop offset="0.003" stop-color="#b73527"/><stop offset="0.098" stop-color="#ca5726"/><stop offset="0.194" stop-color="#d97226"/><stop offset="0.292" stop-color="#e48525"/><stop offset="0.393" stop-color="#eb9025"/><stop offset="0.5" stop-color="#ed9425"/><stop offset="1" stop-color="#b63427"/></linearGradient><linearGradient id="b" x1="4.561" y1="67.764" x2="95.479" y2="67.764" xlink:href="#a"/></defs><rect width="100" height="140" rx="4.564" style="fill:url(#a)"/><rect x="3.824" y="3.866" width="92.247" height="132.164" rx="1.837" style="fill:#fff"/><path d="M92.779,15.026H7.244A6.361,6.361,0,0,1,5.6,10.585a6.36,6.36,0,0,1,1.646-4.44H92.779a5.907,5.907,0,0,1,1.7,4.44A5.908,5.908,0,0,1,92.779,15.026Zm1.664,67.655a5.907,5.907,0,0,0-1.7-4.44H7.3a6.52,6.52,0,0,0,0,8.881H92.739A5.908,5.908,0,0,0,94.443,82.681ZM7.343,15.026,7.3,78.241m85.436,0,.04-63.215M7.3,87.122l.04,42.261h85.4V87.122" transform="translate(0 0.189)" style="fill:none;stroke-miterlimit:10;stroke-width:1.99212761635983px;stroke:url(#b)"/></svg>