<svg xmlns="http://www.w3.org/2000/svg" xmlns:xlink="http://www.w3.org/1999/xlink" viewBox="0 0 100 140"><defs><linearGradient id="a" y1="70" x2="100" y2="70" gradientUnits="userSpaceOnUse"><stop offset="0" stop-color="#b63427"/><stop offset="0.003" stop-color="#b73527"/><stop offset="0.098" stop-color="#ca5726"/><stop offset="0.194" stop-color="#d97226"/><stop offset="0.292" stop-color="#e48525"/><stop offset="0.393" stop-color="#eb9025"/><stop offset="0.5" stop-color="#ed9425"/><stop offset="1" stop-color="#b63427"/></linearGradient><linearGradient id="b" x1="4.561" y1="67.764" x2="95.479" y2="67.764" xlink:href="#a"/><clipPath id="c" transform="translate(0 0.189)"><polygon points="100 140 100 0 0 140 100 140" style="fill:none"/></clipPath><linearGradient id="d" x1="-8.663" y1="128.663" x2="108.663" y2="11.337" xlink:href="#a"/><linearGradient id="e" x1="-2.992" y1="121.039" x2="103.048" y2="14.999" xlink:href="#a"/><clipPath id="f" transform="translate(0 0.189)"><polygon points="0 0.189 0 140 100 0 0 0.189" style="fill:none"/></clipPath><linearGradient id="g" x1="-8.663" y1="128.663" x2="108.663" y2="11.337" gradientUnits="userSpaceOnUse"><stop offset="0" stop-color="#8f7734"/><stop offset="0.02" stop-color="#947c39"/><stop offset="0.135" stop-color="#af9753"/><stop offset="0.252" stop-color="#c2aa65"/><stop offset="0.372" stop-color="#cdb56f"/><stop offset="0.5" stop-color="#d1b973"/><stop offset="1" stop-color="#8f7734"/></linearGradient><linearGradient id="h" x1="-2.95" y1="120.996" x2="103.006" y2="15.04" xlink:href="#g"/></defs><rect width="100" height="140" rx="4.564" style="fill:url(#a)"/><rect x="3.824" y="3.866" width="92.247" height="132.164" rx="1.837" style="fill:#fff"/><path d="M92.779,15.026H7.244A6.361,6.361,0,0,1,5.6,10.585a6.36,6.36,0,0,1,1.646-4.44H92.779a5.907,5.907,0,0,1,1.7,4.44A5.908,5.908,0,0,1,92.779,15.026Zm1.664,67.655a5.907,5.907,0,0,0-1.7-4.44H7.3a6.52,6.52,0,0,0,0,8.881H92.739A5.908,5.908,0,0,0,94.443,82.681ZM7.343,15.026,7.3,78.241m85.436,0,.04-63.215M7.3,87.122l.04,42.261h85.4V87.122" transform="translate(0 0.189)" style="fill:none;stroke-miterlimit:10;stroke-width:1.99212761635983px;stroke:url(#b)"/><g style="clip-path:url(#c)"><rect width="100" height="140" rx="4.564" style="fill:url(#d)"/><rect x="3.824" y="3.866" width="92.247" height="132.164" rx="1.837" style="fill:#fff"/><path d="M92.779,15.026H7.244A6.361,6.361,0,0,1,5.6,10.585a6.36,6.36,0,0,1,1.646-4.44H92.779a5.907,5.907,0,0,1,1.7,4.44A5.908,5.908,0,0,1,92.779,15.026Zm1.664,67.655a5.907,5.907,0,0,0-1.7-4.44H7.3a6.52,6.52,0,0,0,0,8.881H92.739A5.908,5.908,0,0,0,94.443,82.681ZM7.343,15.026,7.3,78.241m85.436,0,.04-63.215M7.3,87.122l.04,42.261h85.4V87.122" transform="translate(0 0.189)" style="fill:none;stroke-miterlimit:10;stroke-width:1.99212761635983px;stroke:url(#e)"/></g><g style="clip-path:url(#f)"><rect width="100" height="140" rx="4.564" style="fill:url(#g)"/><rect x="3.824" y="3.866" width="92.247" height="132.164" rx="1.837" style="fill:#fff"/><path d="M92.779,15.1H7.244A6.348,6.348,0,0,1,5.6,10.663,6.349,6.349,0,0,1,7.244,6.228H92.779a5.9,5.9,0,0,1,1.7,4.435A5.9,5.9,0,0,1,92.779,15.1Zm1.664,67.564a5.9,5.9,0,0,0-1.7-4.434H7.3a6.5,6.5,0,0,0,0,8.869H92.739A5.9,5.9,0,0,0,94.443,82.661ZM7.343,15.1,7.3,78.227m85.436,0,.04-63.13M7.3,87.1l.04,42.2h85.4V87.1" transform="translate(0 0.189)" style="fill:none;stroke-miterlimit:10;stroke-width:1.99078530820441px;stroke:url(#h)"/></g></svg>