<svg xmlns="http://www.w3.org/2000/svg" width="24" height="31" fill="none"><path fill="#fff" d="M20.486 9.351c.11-5.99.07-5.507-5.715-5.474a8 8 0 0 0-.1.29c-1.755 5.987-1.753 12.9 0 18.884v.005c.032.1.068.198.1.285.113-.007 3.193.008 3.302-.002 2.635 0 2.444-1.97 2.444-2.62l-.041-2.839c-.126-2.326-.616-2.797-3.573-4.258h7.085C23.985 15.762 23.986 31 23.986 31c-1.67-3.165-1.668-3.918-6.181-3.916 0 0-4.717.044-5.99-.002a.88.88 0 0 1-.828-.633C8.853 20.047 8.644 7.596 10.927.764a1.01 1.01 0 0 1 .966-.68c5.442 0 11.923-1.307 12.092 6.353.031 1.175.005 3.46.01 4.626L20.486 9.35zM5.95 22.113a47 47 0 0 1-2.364-4.236 52 52 0 0 0 2.364 4.236"/><path fill="#ff3c3c" d="M9.538 27.065c.017.027-.022.05-.04.027-.837-1.05-2.34-3.025-3.547-4.979a52 52 0 0 1-2.454-4.422l-.093-.19-.088-.185-.08-.167C.846 12.096.3 8.36.063 6.677a15 15 0 0 1-.059-.466c-.034-.31.15-.61.459-.743l3.468-1.5a28 28 0 0 0-.066 1.398c-.021.944 0 2.101.104 3.456a45 45 0 0 0 .792 5.551q.02.09.037.181l.042.199.044.205c.863 3.982 3.229 9.829 4.654 12.106z"/><path fill="#ff3c3c" d="M10.366 27.053c.01.029-.033.045-.046.017-.62-1.292-1.785-3.653-2.591-6.02a58 58 0 0 1-1.474-5.023l-.052-.218-.052-.222-.05-.216-.044-.195C4.73 9.277 4.975 5.136 5.097 3.292q.018-.297.04-.513a.78.78 0 0 1 .614-.687l3.809-.848a29 29 0 0 0-.363 1.474c-.222 1-.448 2.237-.631 3.703a52 52 0 0 0-.385 6.083l-.001.202-.001.22v.228c.021 4.545.606 8.258 1.114 10.483q.007.027.013.056c.23.981.803 2.6 1.06 3.361z"/></svg>