<svg xmlns="http://www.w3.org/2000/svg" width="60" height="60" color-interpolation-filters="sRGB" style="margin:auto"><g fill="#133157" class="icon-text-wrapper icon-svg-group iconsvg"><g class="iconsvg-imagesvg"><svg width="60" height="60" class="image-svg-svg primary" style="overflow:visible"><svg xmlns="http://www.w3.org/2000/svg" xmlns:xlink="http://www.w3.org/1999/xlink" xml:space="preserve" fill-rule="evenodd" stroke-linejoin="round" stroke-miterlimit="2" clip-rule="evenodd" viewBox="1.999 2 44.001 44"><path d="M39.998 46H45a1 1 0 0 0 1-1v-2a3 3 0 0 0-3.001-3H5a3 3 0 0 0-3 3v2a1 1 0 0 0 1 1h28.999a1 1 0 1 0 0-2h-28v-1A1 1 0 0 1 5 42H43a1 1 0 0 1 1 1v1h-4.001A1 1 0 0 0 39 45c0 .551.447 1 .997 1M28 12c0-.797-.317-1.56-.877-2.122A3 3 0 0 0 25 8.999H5c-.796 0-1.56.316-2.123.879a3 3 0 0 0-.877 2.121v2a1 1 0 0 0 1 1h24A1 1 0 0 0 28 14zM26 12v1H4v-1c0-.266.107-.52.294-.707a1 1 0 0 1 .707-.294H25c.266 0 .519.106.707.294a1 1 0 0 1 .294.706"/><path d="M16 16v-2a1 1 0 0 0-1-1H5a1 1 0 0 0-1 1v2a3 3 0 0 0 3 3h6a3 3 0 0 0 3-3m-2 0a1 1 0 0 1-1 1H7a1 1 0 0 1-1-1v-1h8zM30 16v-2a1 1 0 0 0-1-1H19a1 1 0 0 0-1 1v2a3 3 0 0 0 3 3h6a3 3 0 0 0 3-3m-2 0a1 1 0 0 1-1 1h-6a1 1 0 0 1-1-1v-1h8zM16 39a3 3 0 0 0-3-3H7a3 3 0 0 0-3 3v2a1 1 0 0 0 1 1h10a1 1 0 0 0 1-1zm-2 0v1H6v-1a1 1 0 0 1 1-1h6a1 1 0 0 1 1 1M30 39a3 3 0 0 0-3-3h-6a3 3 0 0 0-3 3v2a1 1 0 0 0 1 1h10a1 1 0 0 0 1-1zm-2 0v1h-8v-1a1 1 0 0 1 1-1h6a1 1 0 0 1 1 1M44 39a3 3 0 0 0-3-3h-6a3 3 0 0 0-3 3v2a1 1 0 0 0 1 1h10a1 1 0 0 0 1-1zm-2 0v1h-8v-1a1 1 0 0 1 1-1h6a1 1 0 0 1 1 1"/><path d="M13 18a1 1 0 0 0-1-1H8a1 1 0 0 0-1 1v19a1 1 0 0 0 1 1h4a1 1 0 0 0 1-1zm-2 1v17H9V19zM27 18a1 1 0 0 0-1-1h-4a1 1 0 0 0-1 1v19a1 1 0 0 0 1 1h4a1 1 0 0 0 1-1zm-2 1v17h-2V19zM41 21a1 1 0 0 0-.4-.8l-4-3a1 1 0 0 0-1.6.8v19a1 1 0 0 0 1 1h4a1 1 0 0 0 1-1zm-2 .5V36h-2V20zM6.401 10.916l14.135-6.184-.506 2.025c-.085.341.015.702.263.95l3 3a1 1 0 0 0 1.414-1.414l-2.6-2.6.863-3.45a1 1 0 0 0-1.371-1.159l-16 7a1 1 0 0 0 .802 1.832"/><circle cx="33" cy="24" r="1" transform="translate(3 21)"/></svg></svg></g></g></svg>
