<svg xmlns="http://www.w3.org/2000/svg" height="1255"><symbol id="a" viewBox="0 0 100 100"><circle cx="50" cy="50" r="48.5" fill="none" stroke="#0d0f0f" stroke-width="3"/><path fill="#0d0f0f" d="M23 52.428c0-9.787 2.061-18.813 6.191-27.072q7.677-15.355 21.012-15.355c8.797 0 15.666 4.359 20.605 13.064q6.19 10.78 6.191 25.051 0 14.82-6.191 26.803C65.777 84.977 58.773 90 49.797 90c-8.531 0-15.305-4.307-20.336-12.926Q22.999 66.033 23 52.428m11.309-4.444q-.001 19.39 5.795 30.168 4.036 7.54 10.367 7.541 15.22 0 15.221-31.518c0-9.244-.809-17.059-2.422-23.434q-4.176-15.758-14.145-15.76-14.817.002-14.816 30.443z"/></symbol><symbol id="b" viewBox="0 0 100 100"><circle cx="50" cy="50" r="48.5" fill="none" stroke="#0d0f0f" stroke-width="3"/><path fill="#0d0f0f" d="M55.685 11.001v64.108c0 7.671 3.226 11.504 9.687 11.504h1.684v4.388H32.945v-4.388h2.141q9.37.001 9.369-11.504V33.055c0-7.758-2.697-11.643-8.081-11.643h-3.429v-4.247h1.237c6.66 0 12.691-2.057 18.08-6.165z"/></symbol><symbol id="c" viewBox="0 0 100 100"><circle cx="50" cy="50" r="48.5" fill="none" stroke="#0d0f0f" stroke-width="3"/><path fill="#0d0f0f" d="m77.442 71.103-5.896 19.898H22.555v-4.254q3.57-3.977 15.646-16.053a336 336 0 0 0 14.407-15.371c2.378-2.651 4.21-4.942 5.487-6.862q4.255-6.17 4.255-12.624c0-4.204-1.301-7.912-3.908-11.112q-3.91-4.807-10.09-4.808c-8.871 0-15.823 5.998-20.854 17.98l-4.395-1.647c5.947-16.829 15.321-25.249 28.131-25.249q9.469 0 16.124 6.448c4.439 4.3 6.656 9.604 6.656 15.92q.002 12.077-13.858 23.601l-9.604 7.956c-6.131 5.127-11.212 9.929-15.231 14.412-.28.273-.826.916-1.647 1.921h25.521q5.9.002 8.918-2.335c1.735-1.372 3.434-3.98 5.08-7.821z"/></symbol><symbol id="d" viewBox="0 0 100 100"><circle cx="50" cy="50" r="48.5" fill="none" stroke="#0d0f0f" stroke-width="3"/><path fill="#0d0f0f" d="m39.561 53.562-2.018-3.771 1.337-.807c5.174-3.145 9.903-6.33 14.189-9.563q6.426-4.848 6.427-11.048 0-4.168-3.085-6.998c-2.061-1.892-4.472-2.834-7.244-2.834-6.439 0-13.234 4.001-20.392 11.991l-3.354-2.559Q36.6 10.999 52.762 10.999q7.133 0 12.122 3.503 5.656 3.91 5.655 10.642c0 3.229-1.349 6.374-4.039 9.426-1.528 1.798-4.226 4.132-8.083 7.004l-1.616 1.213a21 21 0 0 1 2.56-.134q7.404.001 12.188 5.657 4.782 5.657 4.783 13.196c0 8.532-3.595 15.667-10.774 21.416q-9.971 8.079-23.032 8.077Q30.54 91 23.668 85.75l2.429-3.371c5.387 2.608 10.279 3.907 14.681 3.907q9.56 0 17.032-6.33c4.988-4.22 7.475-9.469 7.475-15.755q.001-6.196-3.77-10.576-3.774-4.373-9.832-4.374-5.525.002-12.122 4.311"/></symbol><symbol id="e" viewBox="0 0 100 100"><circle cx="50" cy="50" r="48.5" fill="none" stroke="#0d0f0f" stroke-width="3"/><path fill="#0d0f0f" d="M64.27 68.359v6.723c0 7.684 2.695 11.525 8.094 11.525h2.33v4.394H42.036v-4.394h2.607c5.303 0 7.961-3.798 7.961-11.392v-6.856H19.809v-6.861l34.578-50.497h9.883v51.592h.82q5.074-.002 7.408-7.816h4.115l-1.92 13.583zm-11.666-5.766V21.135L24.711 62.593z"/></symbol><symbol id="f" viewBox="0 0 100 100"><circle cx="50" cy="50" r="48.5" fill="none" stroke="#0d0f0f" stroke-width="3"/><path fill="#0d0f0f" d="M34.957 12.352h28.941q5.63 0 6.703-1.352h4.156l-2.422 10.925H37.021l-3.408 15.789q7.69-3.105 13.625-3.104 11.595 0 19.559 7.758 7.96 7.756 7.961 19.357 0 13.494-10.394 21.722C57.979 88.486 50.202 91 41.026 91a52.1 52.1 0 0 1-15.785-2.426l1.617-4.046q6.479 1.752 11.469 1.751 9.98.001 17.473-6.544c4.99-4.358 7.488-9.826 7.488-16.392q0-8.499-5.533-13.959-5.532-5.469-14.033-5.468-7.82.001-14.568 5.396l-2.701-.538z"/></symbol><symbol id="g" viewBox="0 0 100 100"><circle cx="50" cy="50" r="48.5" fill="none" stroke="#0d0f0f" stroke-width="3"/><path fill="#0d0f0f" d="M36.58 45.675c5.934-5.577 11.91-8.364 17.939-8.364q9.847 0 15.787 7.821c3.682 4.77 5.529 10.521 5.529 17.27q0 11.063-6.475 19.425Q62.209 91 51.553 91.001q-12.82-.002-20.504-11.063-6.884-9.715-6.883-23.071 0-14.16 7.824-26.101 7.821-11.938 20.906-16.928c4.947-1.888 10.168-2.839 15.65-2.839v4.184q-17.535.946-26.174 14.031c-2.958 4.501-4.895 9.983-5.792 16.461m-.812 8.092a92 92 0 0 0-.133 4.857q0 9.305 3.236 17.269c2.785 6.922 6.883 10.385 12.279 10.385 4.674 0 8.18-2.381 10.52-7.151q2.696-5.525 2.697-13.355c0-5.571-.857-10.342-2.563-14.299q-3.509-8.093-10.793-8.092c-5.933-.001-11.017 3.464-15.243 10.386"/></symbol><symbol id="h" viewBox="0 0 100 100"><circle cx="50" cy="50" r="48.5" fill="none" stroke="#0d0f0f" stroke-width="3"/><path fill="#0d0f0f" d="M53.494 91H41.851v-1.238c0-7.396 2.328-16.659 6.98-27.808Q59.384 36.756 68.284 23.33l.822-1.232H41.85q-5.894-.002-8.975 2.463c-2.059 1.645-3.582 4.387-4.586 8.222h-4.52l4.926-21.782h2.881c1.734.914 4.742 1.371 9.041 1.371h35.609v6.165q-1.913 2.742-4.926 8.768c-3.838 7.485-7.352 16.208-10.553 26.163C56.004 68.17 53.584 80.677 53.494 91"/></symbol><symbol id="i" viewBox="0 0 100 100"><circle cx="50" cy="50" r="48.5" fill="none" stroke="#0d0f0f" stroke-width="3"/><path fill="#0d0f0f" d="m40.965 50.463-1.746-1.211c-5.119-3.502-8.492-6.33-10.107-8.489-2.066-2.691-3.096-5.83-3.096-9.426q-.002-9.157 7.678-14.949Q40.831 11.002 50.262 11c5.922 0 11.18 1.573 15.756 4.713 5.203 3.503 7.813 8.127 7.813 13.876 0 7.004-4.898 12.66-14.682 16.967q16.698 8.081 16.699 22.492c0 6.914-2.646 12.389-7.949 16.434C63.146 89.164 57.17 91 49.99 91c-6.734 0-12.525-1.703-17.377-5.119-5.568-3.856-8.348-8.976-8.348-15.349s2.963-11.63 8.889-15.761c1.616-1.074 4.223-2.51 7.811-4.308m4.572 1.912c-8.08 3.677-12.111 9.466-12.111 17.361 0 5.113 1.635 9.218 4.916 12.314q4.915 4.644 12.594 4.643c4.574 0 8.461-1.232 11.646-3.695q4.78-3.696 4.781-10.28 0-9.94-13.098-16.122zm9.031-7.973c7.088-3.141 10.641-7.854 10.641-14.139 0-4.313-1.506-7.766-4.51-10.375q-4.517-3.905-11.113-3.906c-3.684 0-6.869.991-9.563 2.964-2.965 2.154-4.443 5.03-4.443 8.62q-.002 6.6 6.195 10.643 1.207.805 10.775 5.25z"/></symbol><symbol id="j" viewBox="0 0 100 100"><circle cx="50" cy="50" r="48.5" fill="none" stroke="#0d0f0f" stroke-width="3"/><path fill="#0d0f0f" d="M63.402 56.524c-5.922 5.567-11.898 8.353-17.91 8.353q-9.833 0-15.758-7.814-5.525-7.139-5.523-17.241c0-7.272 2.152-13.777 6.461-19.526Q37.68 10.999 48.32 11q12.932 0 20.605 11.181c4.582 6.554 6.867 14.319 6.867 23.302 0 12.746-4.224 23.498-12.655 32.257Q50.475 90.87 31.484 91.001v-4.175c3.859-.176 6.953-.626 9.297-1.344 12.922-3.951 20.469-13.601 22.621-28.958m.813-8.082q.129-2.56.129-4.846.002-9.43-3.23-17.24c-2.875-6.916-7-10.374-12.386-10.374-4.676 0-8.125 2.385-10.375 7.141-1.797 3.683-2.691 8.126-2.691 13.334q0 8.349 2.559 14.275 3.5 8.082 10.777 8.083 8.878 0 15.217-10.373"/></symbol><symbol id="k" viewBox="0 0 100 100"><circle cx="50" cy="50" r="48.5" fill="none" stroke="#0d0f0f" stroke-width="3"/><path fill="#0d0f0f" d="M35.306 19.633v50.439c0 5.998 2.567 8.998 7.693 8.998h1.305v3.42H17.438v-3.42h1.727q7.398 0 7.4-8.998v-33.08q0-9.121-6.467-9.123h-2.66v-3.424h1.016q7.857 0 14.191-4.813zm9.76 33.328q0-11.787 4.94-21.668Q56.221 19.002 66.988 19c6.931 0 12.422 3.508 16.476 10.516q4.945 8.622 4.945 19.898 0 11.787-4.945 21.545Q77.254 83.001 66.611 83q-10.263 0-16.352-10.395-5.194-8.742-5.193-19.644m9.122-3.676q0 10.018 2.156 17.996 3.294 12.294 10.771 12.295 12.166.001 12.165-25.346 0-31.302-13.182-31.301c-7.941 0-11.912 8.105-11.912 24.328z"/></symbol><symbol id="l" viewBox="0 0 100 100"><circle cx="50" cy="50" r="48.5" fill="none" stroke="#0d0f0f" stroke-width="3"/><path fill="#0d0f0f" d="M56.641 80v-3.297c4.703-.521 7.059-1.887 7.059-4.082q-.001-2.373-1.883-4.746l-13.008-16.01-10.273 12.111c-2.57 2.973-3.863 5.432-3.863 7.354 0 2.976 2.354 4.771 7.07 5.387V80H16.692v-3.287c3.172-.609 5.867-1.752 8.102-3.416 1.539-1.223 3.637-3.371 6.285-6.438l15.449-17.915-17.867-21.66c-2.315-2.797-4.121-4.633-5.401-5.51-1.724-1.225-4.121-2.012-7.203-2.361V16h29.539v3.285q-6.678 1.315-6.676 4.074c0 1.23.594 2.586 1.793 4.072l11.816 14.322 9.508-11.691c1.711-2.104 2.57-3.941 2.57-5.52 0-2.629-2.105-4.34-6.301-5.129V16h23.512v3.291c-2.055.439-3.473.834-4.23 1.188-2.57 1.229-6.496 4.869-11.797 10.92-.852.969-4.453 5.393-10.789 13.285l18.977 23.363c4.113 5.078 8.305 7.971 12.586 8.666V80z"/></symbol><symbol id="m" viewBox="0 0 100 100"><circle cx="50" cy="50" r="48.5" fill="none" stroke="#0d0f0f" stroke-width="3"/><path fill="#0d0f0f" d="M54.91 65.695q0 5.982 1.963 8.414t6.639 2.431l.748-.095V80H35.464v-3.553h.934q4.675.094 6.639-2.338Q45 71.679 45 65.79V53.26L26.675 26.427l-1.964-2.618q-.842-1.121-1.589-1.776-1.216-1.029-2.571-1.45t-3.506-.701v-3.647H45v3.553q-4.209.376-5.703 1.168-1.496.795-1.496 2.945a5 5 0 0 0 .373 1.87q.373.936 1.029 1.963l14.212 20.569 10.378-15.24q1.494-2.056 2.15-3.553.652-1.494.841-2.804v-.749q0-2.898-1.589-4.3-1.59-1.403-5.516-1.776v-3.647h23.093v3.553q-1.123.187-2.056.514a8 8 0 0 0-1.777.889q-1.497.841-3.085 2.665-1.59 1.824-3.833 5.096L54.911 53.26v12.436h-.001z"/></symbol><symbol id="n" viewBox="0 0 100 100"><circle cx="50" cy="50" r="48.5" fill="none" stroke="#0d0f0f" stroke-width="3"/><path fill="#0d0f0f" d="M74.355 79.999h-53.76v-2.711l42.635-57.22H44.251q-4.676.095-7.2.981-2.525.89-4.675 3.413-.187.189-.327.374-.14.189-.327.373-.374.562-.702.982t-.607.889a2.4 2.4 0 0 1-.28.561l-.374.562q-.189.562-.467 1.168-.283.609-.654 1.449l-3.367-.094V16.235H76.32v2.524L33.313 76.165h18.605q4.207.094 6.685-.188 2.475-.28 4.628-1.213l.514-.188.421-.188a20.6 20.6 0 0 0 2.524-1.496 22.6 22.6 0 0 0 2.431-1.963 33 33 0 0 0 1.683-1.822 56 56 0 0 0 1.777-2.197l2.431-3.461h3.552z"/></symbol><symbol id="o" viewBox="0 0 100 100"><circle cx="50" cy="50" r="48.5" fill="none" stroke="#89723e" stroke-width="3"/><path fill="#89723e" d="M97.691 57.064q-9.843-5.55-12.617-5.551-2.016.001-3.154 3.092c-.758 2.063-2.27 3.09-4.541 3.09q-1.388 0-5.678-1.008-2.397 3.66-2.398 4.668c0 .926.689 2.016 2.064 3.281q2.062 1.892 3.482 1.891.901.001 2.449-.379 1.548-.376 2.064-.377 1.548 0 1.547 5.678 0 5.425-2.523 16.654-3.282-12.87-6.938-12.871-.506-.001-2.082.76-1.579.754-2.334.754-3.657.002-6.561-6.688-5.804.884-5.805 5.934-.001 2.525 2.336 4.035c1.553 1.008 2.334 1.727 2.334 2.145q0 3.41-9.969 10.473c-3.531 2.523-5.973 4.289-7.316 5.297q1.761-2.267 3.533-5.928 2.017-4.162 2.018-6.436 0-1.262-2.902-3.533-2.902-2.269-2.9-4.793-.001-2.141 1.512-5.299-1.64-1.894-3.91-1.895c-3.365 0-5.045 1.096-5.045 3.28v3.406q.124 4.164-6.311 4.164c-3.279 0-8.791-.759-16.527-2.271q13.121-3.282 13.121-7.57 0 .505-.504-3.028c-.338-2.604 1.514-4.961 5.551-7.063-.758-3.867-2.773-5.806-6.057-5.806-.504 0-1.432.884-2.775 2.647-1.346 1.771-2.607 2.652-3.783 2.652q-3.031.001-7.822-6.563-2.274-3.277-6.941-9.715 2.901 1.516 5.805 3.031 3.784 1.765 6.057 1.766 1.767 0 3.469-3.092 1.703-3.092 4.479-3.092.38-.001 5.047 1.516c1.596-2.439 2.398-4.248 2.398-5.426q0-1.514-1.83-3.471-1.83-1.955-3.344-1.955-.631-.001-1.957.379-1.322.379-1.953.379-2.274 0-2.273-5.678 0-1.514 2.904-17.285-.128 1.892 1.639 7.064 2.144 6.31 5.049 6.309.502 0 2.018-.758 1.512-.755 2.396-.754 2.9.001 4.795 3.277l1.893 3.406q2.65.001 4.414-1.891 1.767-1.894 1.768-4.543 0-2.776-2.334-4.227-2.337-1.45-2.336-2.207 0-2.65 8.328-8.958 6.685-5.045 8.707-5.93-5.426 7.317-5.426 10.724-.001 1.768 2.145 3.785 2.649 2.398 3.027 3.406 1.26 2.906-.252 7.949c2.271 1.6 3.994 2.396 5.174 2.396 2.436 0 3.658-1.264 3.658-3.785q0-.378-.314-2.396c-.213-1.344-.273-2.102-.191-2.271q.505-1.768 6.939-1.768 4.035 0 16.781 2.273-2.778.756-8.326 2.27-5.048 1.515-5.049 3.406-.001.884.631 3.027c.42 1.432.633 2.48.633 3.156q0 1.765-2.271 3.277l-4.291 3.031q1.514 2.778 2.02 3.279 1.26 1.513 3.406 1.514 1.514 0 2.775-2.648 1.262-2.651 4.037-2.65 3.407 0 7.697 6.311 2.391 3.538 7.44 10.727m-28.007-7.316q-.001-8.072-5.932-14.006-5.93-5.93-14.004-5.93-8.204 0-14.131 5.869-5.93 5.866-6.055 14.066-.128 8.075 5.992 13.938 6.12 5.869 14.193 5.869 8.579-.001 14.318-5.615 5.743-5.61 5.619-14.191m-1.893 0c0 5.131-1.725 9.381-5.174 12.74q-5.176 5.05-12.869 5.049-7.445.001-12.742-5.174-5.298-5.169-5.299-12.615-.001-7.318 5.359-12.553 5.365-5.237 12.682-5.238 7.316 0 12.68 5.301 5.362 5.299 5.363 12.49"/></symbol><symbol id="p" viewBox="0 0 100 100"><circle cx="50" cy="50" r="48.5" fill="none" stroke="#0172bb" stroke-width="3"/><path fill="#0172bb" d="M67.488 83.719q-7.181 7.307-17.688 7.307-11.791 0-18.711-8.073-6.538-7.69-6.537-19.606 0-12.816 11.15-29.224 9.097-13.454 21.402-23.58-1.794 8.203-1.793 11.662-.001 7.947 4.996 15.508c4.102 5.98 7.219 10.426 9.357 13.328q4.998 7.564 4.998 14.737.002 10.64-7.174 17.941m-.129-27.362q-1.922-4.291-4.486-5.703.385.77.385 2.18 0 2.692-1.539 7.689l-1.664 5.127q-.002 4.486 4.484 4.486 4.741-.001 4.742-6.281 0-3.2-1.922-7.498"/></symbol><symbol id="q" viewBox="0 0 100 100"><circle cx="50" cy="50" r="48.5" fill="none" stroke="#281c1c" stroke-width="3"/><path fill="#281c1c" d="M90.695 49.619q-.001 8.277-6.02 11.287-1.757.878-11.037 2.383-6.018 1.005-6.018 4.639v10.158c0 .422.125 1.715.375 3.889l.377 4.014q0 1.884-.879 6.146a769 769 0 0 1-5.518 1.132q-1.004-3.765-1.004-5.146 0-.625.313-1.882c.207-.834.316-1.461.316-1.883 0-.58-.52-2.213-1.559-4.887h-1.945q-.386.627-.26 1.629.5 2.132.377 3.637a283 283 0 0 1-5.895 4.013q-.877-.25-.629-.25v-8.904q-.248-.622-1.254-.502h-1.504l-1.504 11.787c-1.174.084-2.592.084-4.264 0q-.88-4.136-3.135-12.289h-1.004q-1.381 4.394-1.506 4.769 0 .5.314 1.942.312 1.442.313 1.943 0 .375-.25 1.881l-.377 3.01a.86.86 0 0 1-.627.25q-3.764 0-5.016-1.879-1.255-1.883-1.004-5.271l1.004-15.047q-.001-.377.25-1.004c.164-.418.25-.711.25-.877q0-1.005-2.131-4.014c-.248-.082-1.549-.377-3.887-.879q-2.136-.5-8.402-1.756-8.655-1.627-8.654-13.92 0-18.31 15.051-30.475c.414 2.258 1.127 5.266 2.129 9.029q1.131.254 4.891 1.129.755.252 7.652 2.76c-2.344-1.422-5.393-3.719-9.156-6.898q-2.133-2.507-2.133-8.4 0-1.38 4.768-3.264c2.84-1.17 4.975-1.836 6.396-2.006 4.514-.582 7.984-.879 10.41-.879q15.673.001 25.328 8.029c-2.088 2.426-5.684 5.014-10.783 7.773 2.008.084 4.934-.707 8.779-2.383q5.766-2.507 4.891-2.508 1.004.001 4.014 4.014c1.504 2.006 2.715 3.807 3.637 5.391q4.01 7.15 5.393 15.426 0 2.889.125 4.139v1.004zm-48.031 2.258q0-5.391-4.703-10.223-4.705-4.827-10.096-4.826-4.766.001-8.402 4.039-3.638 4.04-3.637 8.963c0 2.859 1.379 4.713 4.139 5.553 1.756.506 4.219.801 7.398.883h6.898c5.598.084 8.403-1.379 8.403-4.389M56.332 67.43v-3.889a123 123 0 0 1-1.754-3.387q-.753-2.51-2.76-7.025l-1.381 14.674q0 1.757-.752 1.756-.5 0-.752-.248-.879-13.294-.879-11.541v-4.387q-.251-.38-.625-.379-4.265 4.393-4.264 14.172c0 3.596.33 5.811 1.002 6.648q1.005-.25 2.258-.877.5-.252 2.887-.252c1.584 0 3.51.502 5.766 1.504q1.254 0 1.254-6.769m28.344-17.475q0-5.05-3.762-9.025-3.766-3.974-8.652-3.975-5.269-.001-9.846 4.826-4.579 4.828-4.578 10.096-.001 4.39 4.264 4.389h14.422q8.15-.123 8.152-6.311"/></symbol><symbol id="r" viewBox="0 0 100 100"><circle cx="50" cy="50" r="48.5" fill="none" stroke="#fd2302" stroke-width="3"/><path fill="#fd2302" d="M91.965 66.617Q86.362 79.985 69.69 79.984q-3.057 0-6.621.762-5.346 1.148-5.346 3.186-.002.635.891 1.463c.592.553 1.104.826 1.527.826q-3.184 0 4.326.191 7.511.19 9.422.191-11.075 6.489-37.043 5.981-8.53-.126-14.639-7.51c-3.992-4.669-5.984-9.888-5.984-15.658q-.001-9.163 6.176-15.595c4.113-4.282 9.229-6.427 15.338-6.427q2.035 0 5.41.891 3.373.891 4.518.891 4.71.001 11.713-3.883 7-3.883 6.621-3.883-1.274 13.369-8.914 17.948-5.473 3.184-5.473 6.236 0 1.91 2.291 3.057 1.781.892 3.945.892 3.31 0 6.494-4.071c2.119-2.718 3.055-5.177 2.801-7.386-.254-2.545-.084-5.603.51-9.164q.252-1.529 1.844-3.754 1.591-2.228 2.865-2.738 0 1.145-.828 3.818c-.553 1.781-.826 3.1-.826 3.947q0 2.8 1.527 4.326 2.287-.888 4.074-5.729 1.523-3.69 1.781-7.127-5.349-.254-10.248-4.838-4.901-4.584-4.9-9.928c0-.594.082-1.188.256-1.783q.762 1.147 2.289 3.564 2.164 3.182 3.313 3.182 1.525 0 1.525-3.182-.001-4.073-2.164-7.383-2.42-3.947-6.238-3.947-1.784 0-5.344 1.91-3.568 1.908-6.492 1.91-.895-.001-7.895-2.293 12.347-2.033 12.348-3.691-.001-4.329-16.93-5.855a729 729 0 0 1-6.111-.51q.507-.636 7.258-1.4c3.818-.422 6.492-.637 8.018-.637q30.296.002 38.443 29.408 1.401-1.162 1.402-3.871 0-3.486-2.037-8.777a296 296 0 0 0-2.42-6.193c6.957 8.867 10.439 17.27 10.439 25.199q-.002 6.268-2.93 11.381c-1.27 2.303-3.65 5.244-7.127 8.826q-5.22 5.37-7.131 8.313 7.003-1.907 9.168-2.928 4.834-2.161 8.783-6.492 0 1.66-1.4 4.967M36.463 16.592q-.001 2.289-2.545 2.926l-3.311.51q-1.783.892-5.219 7a294 294 0 0 0-1.146-5.346q-1.145.128-3.818 2.037-1.147.89-3.693 2.672c.512-3.055 2.207-6.148 5.094-9.293q4.582-5.216 8.91-5.217 5.727.001 5.728 4.711m22.15 11.709q0 2.166-2.355 3.629-2.355 1.465-4.646 1.465-3.057 0-5.473-3.438-2.93-4.2-5.984-5.477a2.1 2.1 0 0 1 1.529-.635c.764 0 2.055.594 3.881 1.781q2.735 1.783 3.502 1.783.635 0 2.1-1.783 1.463-1.782 3.246-1.781 4.2.002 4.2 4.456"/></symbol><symbol id="s" viewBox="0 0 100 100"><circle cx="50" cy="50" r="48.5" fill="none" stroke="#027920" stroke-width="3"/><path fill="#027920" d="M93.762 56.225c0 1.668-.645 3.164-1.936 4.498q-1.935 1.998-4.436 1.998c-2.662 0-4.623-1.25-5.869-3.748l-5.871-.25q-1.878.001-7.371 1.625-5.872 1.623-6.746 2.623-1.373 1.499-2.248 6.996c-.502 2.998-.748 5.205-.748 6.621q-.001 3.37 1.061 4.934 1.063 1.562 4.371 2.623 3.31 1.062 4.061 1.187.498 0 1.625-.125h1.498c1.08 0 2.205.17 3.373.5q2.5.75 2.125 2-1.751-.249-6.121.75l3.496 1.748q0 1.499-4.246 1.498-1.127 0-3.063-.498c-1.291-.336-2.145-.5-2.559-.5h-1.625q-.125 1.248-.75 3.746c-1.418-.084-3.08-.918-4.996-2.498q-2.875-2.371-3.621-2.373-.754.002-2.125 2.373-1.376 2.371-1.375 3.248-1.621-.877-2.75-3.248a50 50 0 0 0-1.121-3.248q-1.25.127-4.621 5.248h-.627c-.166-.252-.795-2-1.873-5.248q-3.872-1.248-7.246-1.248-1.623 0-4.996.748l-3.496-.248q.747-.75 4.371-2.873 4.246-2.5 6.496-2.5.368.001 1 .125c.414.086.75.125 1 .125.578 0 1.518-.312 2.809-.938q1.936-.936 2.246-1.684.316-.754.316-3.875 0-7.119-3.75-10.617c-2.168-2.082-5.746-3.58-10.744-4.498q-1.999 7.121-11.24 7.123-3 0-5.996-3.623-2.995-3.624-2.996-6.621-.002-4.622 3.869-7.623-3.12-3.244-3.121-6.617c0-2.084.643-3.914 1.936-5.5q1.936-2.369 5.059-2.748-.25-3.994 2.623-5.496-1.374-1.371-1.373-4.869 0-4.123 2.748-6.871 2.746-2.749 6.869-2.75c3 0 5.457 1.045 7.371 3.125Q36.054 6.386 48.042 6.385q6.246 0 10.994 4.998c1.166 1.248 1.748 1.916 1.748 1.996q-1.498 0 1.5-.561 2.993-.563 4.373-.563 4.869 0 8.619 3.623 3.247 3.247 4.498 8.244.871.125 2.748.748c1.83.92 2.748 2.498 2.748 4.748q-.002.627-1 2.373 7.993 4.497 7.994 12.492c0 1.498-.582 3.584-1.748 6.247q3.248 1.872 3.246 5.495m-51.467 5.496v-1.623q0-2.872-2.809-5.246-2.813-2.373-5.684-2.373c-2.334 0-4.496.541-6.496 1.621q6.62-.371 14.989 7.621m-2.246-15.489a31.5 31.5 0 0 1-3.25-4.373q-5.246 1.374-5.246 3.121c1-.08 2.457.105 4.371.564q2.872.688 4.125.688m7.621-3.873v-5.496c-2-.332-3.211-.5-3.623-.5v1.873zm16.238-3.498q-1.501-.625-5.621-2.498v10.742q5.867-3.375 5.621-8.244m6.867 14.741-2.746-3.373a1872 1872 0 0 0-5.061 3.561c-1.709 1.207-3.186 2.563-4.432 4.06 3.747-2.002 7.829-3.414 12.239-4.248"/></symbol><symbol id="t" viewBox="0 0 100 100"><circle cx="50" cy="50" r="48.5" fill="none" stroke="#0d0f0f" stroke-width="3"/><path d="M49.687 12.026c2.475 4.968 5.504 9.793 9.096 14.475a92 92 0 0 0 5.254 6.147 91 91 0 0 0 6.451 6.344 71 71 0 0 0 7.756 5.951 71 71 0 0 0 9.096 5.129c-4.78 2.556-9.516 5.665-14.225 9.346a91 91 0 0 0-6.147 5.325 87 87 0 0 0-6.263 6.576 85 85 0 0 0-5.897 7.827 75 75 0 0 0-5.12 8.953c-2.395-4.7-5.379-9.346-8.962-13.956-3.074-3.931-6.96-8.059-11.66-12.42-4.691-4.36-10.373-8.238-17.03-11.651 4.789-2.484 9.525-5.557 14.224-9.221q6.018-4.744 12.411-11.848c4.27-4.736 7.933-10.383 11.016-16.977m-5.504 52.895c2.225 2.824 4.056 5.683 5.504 8.578 1.885-4.021 4.146-7.47 6.781-10.365 2.645-2.913 5.218-5.343 7.693-7.309a61 61 0 0 1 8.837-5.772c-4.101-1.859-7.586-4.128-10.436-6.773-2.868-2.645-5.281-5.2-7.237-7.684a48 48 0 0 1-5.638-8.953c-1.876 4.092-4.128 7.595-6.719 10.49-2.609 2.913-5.146 5.325-7.622 7.309a53 53 0 0 1-8.837 5.629c4.101 2.127 7.595 4.521 10.499 7.166s5.299 5.218 7.175 7.684"/></symbol><symbol id="u" viewBox="0 0 100 100"><circle cx="50" cy="50" r="48.5" fill="none" stroke="#0d0f0f" stroke-width="3"/><path fill="none" stroke="#0d0f0f" stroke-width="3" d="m15.645 84.355 68.71-68.71z"/><path fill="#0172bb" d="M76.722 83.675q-4.038 4.109-9.946 4.109-6.634-.001-10.525-4.541-3.677-4.324-3.676-11.028 0-7.205 6.271-16.434 5.115-7.57 12.037-13.264-1.008 4.613-1.009 6.561-.002 4.47 2.812 8.721 3.459 5.048 5.261 7.496 2.812 4.254 2.813 8.289-.002 5.985-4.038 10.091m-.071-15.388q-1.083-2.415-2.524-3.208.217.433.216 1.226 0 1.516-.864 4.324l-.938 2.885q-.001 2.521 2.524 2.522 2.666 0 2.667-3.532-.001-1.802-1.081-4.217"/><path fill="#89723e" d="M54.667 38.253q-3.656-3.397-4.848-3.682-.866-.208-1.672 1.005t-2.268.858q-.596-.142-2.333-1.016-1.407 1.327-1.511 1.758-.142.596.55 1.621c.46.685.894 1.072 1.301 1.17q.387.094 1.09.09.702-.003.926.051.665.157.079 2.597c-.37 1.552-1.302 3.853-2.794 6.892q-.087-5.862-1.655-6.238-.218-.052-.972.111c-.505.106-.864.138-1.08.086q-1.572-.378-2.131-3.547-2.584-.216-3.103 1.949-.259 1.087.589 1.975.845.89.783 1.16c-.232.978-2.021 2.133-5.355 3.474a216 216 0 0 0-3.688 1.522q.99-.792 2.126-2.183c.862-1.056 1.372-1.905 1.528-2.558.086-.359-.208-.967-.883-1.815q-1.013-1.273-.753-2.354.218-.92 1.193-2.121-.51-.981-1.484-1.215-2.166-.52-2.504.892l-.349 1.462q-.375 1.8-3.138 1.141-2.113-.508-6.864-2.673 5.973-.06 6.412-1.903-.051.217.096-1.353.185-1.73 3.108-2.464.11-2.606-2.003-3.114-.326-.078-1.463.853-1.14.932-1.898.748-1.3-.308-2.684-3.619a267 267 0 0 0-1.982-4.885l2.181 1.896q1.445 1.148 2.419 1.382.759.18 1.808-.973t2.24-.866q.165.037 2.012 1.169 1.405-1.325 1.588-2.084c.102-.435-.04-.991-.431-1.678q-.584-1.026-1.235-1.185-.27-.066-.877-.037-.609.026-.879-.039-.975-.232-.392-2.672.154-.65 3.022-7.123-.249.798-.021 3.203c.181 1.953.687 3.026 1.518 3.228q.216.051.945-.119.727-.17 1.105-.078 1.245.298 1.722 1.901l.463 1.656q1.137.273 2.089-.358a2.83 2.83 0 0 0 1.227-1.769q.284-1.192-.568-2.056-.856-.863-.775-1.188.272-1.137 4.495-2.989 3.39-1.479 4.349-1.651c-2.054 1.725-3.199 3.07-3.431 4.047q-.182.76.531 1.848.893 1.302.95 1.771.243 1.378-.924 3.389 1.216 1.379 1.977 1.562 1.568.375 1.958-1.25.04-.162.112-1.062.07-.9.151-.996.4-.706 3.162-.045 1.733.415 6.972 2.699-1.27.038-3.809.12-2.323.131-2.519.943-.09.38-.04 1.364c.034.656.016 1.133-.053 1.42-.12.507-.558.896-1.311 1.176l-2.156.859c.246.897.42 1.438.531 1.615q.387.78 1.307 1.002.65.156 1.465-.854.814-1.007 2.006-.723 1.463.348 2.658 3.5a355 355 0 0 0 2.092 5.37m-11.275-6.021q.828-3.469-1.108-6.623-1.939-3.156-5.404-3.986-3.524-.843-6.671 1.069-3.148 1.908-4.045 5.417-.885 3.455 1.141 6.603 2.024 3.15 5.493 3.979 3.684.882 6.725-.941 3.038-1.822 3.869-5.518m-.814-.194q-.79 3.307-3.53 4.939-2.74 1.636-6.044.846-3.196-.766-4.94-3.531-1.744-2.763-.979-5.962.753-3.142 3.592-4.841 2.843-1.695 5.983-.943 3.142.75 4.899 3.577c1.171 1.886 1.512 3.854 1.019 5.915"/></symbol><symbol id="v" viewBox="0 0 100 100"><circle cx="50" cy="50" r="48.5" fill="none" stroke="#0d0f0f" stroke-width="3"/><path fill="none" stroke="#0d0f0f" stroke-width="3" d="m15.645 84.355 68.71-68.71z"/><path fill="#281c1c" d="M89.62 65.99q0 4.052-2.947 5.525-.86.432-5.404 1.166-2.945.494-2.946 2.271v4.973q.001.312.185 1.905l.185 1.966q0 .92-.431 3.008-1.166.245-2.701.555-.492-1.844-.491-2.52 0-.306.153-.921.154-.612.154-.922 0-.427-.762-2.394h-.953q-.188.308-.127.797.245 1.044.186 1.781-1.044.736-2.885 1.965c-.289-.082-.389-.123-.308-.123v-4.359q-.121-.305-.614-.246h-.737l-.737 5.771q-.86.062-2.086 0-.43-2.024-1.535-6.017h-.493q-.674 2.15-.737 2.334 0 .244.155.951.153.707.153.951 0 .184-.125.921l-.184 1.475a.43.43 0 0 1-.306.12q-1.843 0-2.455-.919-.618-.922-.493-2.58l.493-7.365q-.001-.184.121-.492.123-.306.123-.428 0-.492-1.043-1.968-.184-.061-1.904-.431-1.043-.244-4.112-.857-4.238-.797-4.238-6.814.001-8.965 7.367-14.92.307 1.658 1.045 4.42l2.394.554q.37.122 3.745 1.351-1.719-1.041-4.48-3.375-1.046-1.228-1.046-4.113c0-.452.778-.982 2.335-1.6q2.086-.856 3.131-.979 3.314-.43 5.096-.431 7.674 0 12.401 3.932c-1.022 1.188-2.783 2.453-5.279 3.806q1.473.062 4.298-1.168c1.882-.815 2.68-1.228 2.394-1.228q.491 0 1.965 1.965 1.102 1.474 1.78 2.64a23.1 23.1 0 0 1 2.641 7.552q0 1.413.061 2.025zm-23.516 1.108q0-2.641-2.301-5.006-2.305-2.363-4.944-2.363-2.332 0-4.113 1.978-1.78 1.978-1.78 4.39 0 2.102 2.026 2.719 1.29.371 3.621.434h3.377q4.114.053 4.114-2.152m6.693 7.612v-1.901a62 62 0 0 1-.858-1.66q-.37-1.225-1.351-3.439l-.676 7.184q0 .863-.369.861-.245 0-.368-.123-.43-6.508-.429-5.646v-2.148q-.124-.189-.308-.188-2.086 2.154-2.086 6.938 0 2.64.49 3.257a5.5 5.5 0 0 0 1.106-.431q.244-.124 1.411-.123c.775 0 1.72.245 2.823.735.411-.003.615-1.105.615-3.316m13.876-8.556q0-2.47-1.842-4.418-1.843-1.945-4.234-1.945-2.58 0-4.821 2.361-2.242 2.364-2.242 4.945 0 2.148 2.088 2.147h7.059q3.993-.059 3.992-3.09"/><path fill="#89723e" d="M54.667 38.253q-3.656-3.397-4.848-3.682-.866-.208-1.672 1.005t-2.268.858q-.596-.142-2.333-1.016-1.407 1.327-1.511 1.758-.142.596.55 1.621c.46.685.894 1.072 1.301 1.17q.387.094 1.09.09.702-.003.926.051.665.157.079 2.597c-.37 1.552-1.302 3.853-2.794 6.892q-.087-5.862-1.655-6.238-.218-.052-.972.111c-.505.106-.864.138-1.08.086q-1.572-.378-2.131-3.547-2.584-.216-3.103 1.949-.259 1.087.589 1.975.845.89.783 1.16c-.232.978-2.021 2.133-5.355 3.474a216 216 0 0 0-3.688 1.522q.99-.792 2.126-2.183c.862-1.056 1.372-1.905 1.528-2.558.086-.359-.208-.967-.883-1.815q-1.013-1.273-.753-2.354.218-.92 1.193-2.121-.51-.981-1.484-1.215-2.166-.52-2.504.892l-.349 1.462q-.375 1.8-3.138 1.141-2.113-.508-6.864-2.673 5.973-.06 6.412-1.903-.051.217.096-1.353.185-1.73 3.108-2.464.11-2.606-2.003-3.114-.326-.078-1.463.853-1.14.932-1.898.748-1.3-.308-2.684-3.619a267 267 0 0 0-1.982-4.885l2.181 1.896q1.445 1.148 2.419 1.382.759.18 1.808-.973t2.24-.866q.165.037 2.012 1.169 1.405-1.325 1.588-2.084c.102-.435-.04-.991-.431-1.678q-.584-1.026-1.235-1.185-.27-.066-.877-.037-.609.026-.879-.039-.975-.232-.392-2.672.154-.65 3.022-7.123-.249.798-.021 3.203c.181 1.953.687 3.026 1.518 3.228q.216.051.945-.119.727-.17 1.105-.078 1.245.298 1.722 1.901l.463 1.656q1.137.273 2.089-.358a2.83 2.83 0 0 0 1.227-1.769q.284-1.192-.568-2.056-.856-.863-.775-1.188.272-1.137 4.495-2.989 3.39-1.479 4.349-1.651c-2.054 1.725-3.199 3.07-3.431 4.047q-.182.76.531 1.848.893 1.302.95 1.771.243 1.378-.924 3.389 1.216 1.379 1.977 1.562 1.568.375 1.958-1.25.04-.162.112-1.062.07-.9.151-.996.4-.706 3.162-.045 1.733.415 6.972 2.699-1.27.038-3.809.12-2.323.131-2.519.943-.09.38-.04 1.364c.034.656.016 1.133-.053 1.42-.12.507-.558.896-1.311 1.176l-2.156.859c.246.897.42 1.438.531 1.615q.387.78 1.307 1.002.65.156 1.465-.854.814-1.007 2.006-.723 1.463.348 2.658 3.5a355 355 0 0 0 2.092 5.37m-11.275-6.021q.828-3.469-1.108-6.623-1.939-3.156-5.404-3.986-3.524-.843-6.671 1.069-3.148 1.908-4.045 5.417-.885 3.455 1.141 6.603 2.024 3.15 5.493 3.979 3.684.882 6.725-.941 3.038-1.822 3.869-5.518m-.814-.194q-.79 3.307-3.53 4.939-2.74 1.636-6.044.846-3.196-.766-4.94-3.531-1.744-2.763-.979-5.962.753-3.142 3.592-4.841 2.843-1.695 5.983-.943 3.142.75 4.899 3.577c1.171 1.886 1.512 3.854 1.019 5.915"/></symbol><symbol id="w" viewBox="0 0 100 100"><circle cx="50" cy="50" r="48.5" fill="none" stroke="#0d0f0f" stroke-width="3"/><path fill="none" stroke="#0d0f0f" stroke-width="3" d="m15.645 84.355 68.71-68.71z"/><path fill="#0172bb" d="M41.116 48.156q-4.038 4.105-9.946 4.107-6.632 0-10.524-4.541-3.677-4.327-3.677-11.027 0-7.208 6.271-16.436 5.116-7.566 12.037-13.262-1.01 4.615-1.009 6.559-.002 4.471 2.811 8.723 3.46 5.045 5.262 7.496 2.812 4.255 2.812 8.287c0 3.993-1.347 7.354-4.037 10.094m-.072-15.386q-1.08-2.416-2.523-3.211.217.432.216 1.228 0 1.514-.864 4.323l-.938 2.885q0 2.521 2.523 2.521 2.667 0 2.668-3.531-.002-1.803-1.082-4.215"/><path fill="#281c1c" d="M89.62 65.99q0 4.052-2.947 5.525-.86.432-5.404 1.166-2.945.494-2.946 2.271v4.973q.001.312.185 1.905l.185 1.966q0 .92-.431 3.008-1.166.245-2.701.555-.492-1.844-.491-2.52 0-.306.153-.921.154-.612.154-.922 0-.427-.762-2.394h-.953q-.188.308-.127.797.245 1.044.186 1.781-1.044.736-2.885 1.965c-.289-.082-.389-.123-.308-.123v-4.359q-.121-.305-.614-.246h-.737l-.737 5.771q-.86.062-2.086 0-.43-2.024-1.535-6.017h-.493q-.674 2.15-.737 2.334 0 .244.155.951.153.707.153.951 0 .184-.125.921l-.184 1.475a.43.43 0 0 1-.306.12q-1.843 0-2.455-.919-.618-.922-.493-2.58l.493-7.365q-.001-.184.121-.492.123-.306.123-.428 0-.492-1.043-1.968-.184-.061-1.904-.431-1.043-.244-4.112-.857-4.238-.797-4.238-6.814.001-8.965 7.367-14.92.307 1.658 1.045 4.42l2.394.554q.37.122 3.745 1.351-1.719-1.041-4.48-3.375-1.046-1.228-1.046-4.113c0-.452.778-.982 2.335-1.6q2.086-.856 3.131-.979 3.314-.43 5.096-.431 7.674 0 12.401 3.932c-1.022 1.188-2.783 2.453-5.279 3.806q1.473.062 4.298-1.168c1.882-.815 2.68-1.228 2.394-1.228q.491 0 1.965 1.965 1.102 1.474 1.78 2.64a23.1 23.1 0 0 1 2.641 7.552q0 1.413.061 2.025zm-23.516 1.108q0-2.641-2.301-5.006-2.305-2.363-4.944-2.363-2.332 0-4.113 1.978-1.78 1.978-1.78 4.39 0 2.102 2.026 2.719 1.29.371 3.621.434h3.377q4.114.053 4.114-2.152m6.693 7.612v-1.901a62 62 0 0 1-.858-1.66q-.37-1.225-1.351-3.439l-.676 7.184q0 .863-.369.861-.245 0-.368-.123-.43-6.508-.429-5.646v-2.148q-.124-.189-.308-.188-2.086 2.154-2.086 6.938 0 2.64.49 3.257a5.5 5.5 0 0 0 1.106-.431q.244-.124 1.411-.123c.775 0 1.72.245 2.823.735.411-.003.615-1.105.615-3.316m13.876-8.556q0-2.47-1.842-4.418-1.843-1.945-4.234-1.945-2.58 0-4.821 2.361-2.242 2.364-2.242 4.945 0 2.148 2.088 2.147h7.059q3.993-.059 3.992-3.09"/></symbol><symbol id="x" viewBox="0 0 100 100"><circle cx="50" cy="50" r="48.5" fill="none" stroke="#0d0f0f" stroke-width="3"/><path fill="none" stroke="#0d0f0f" stroke-width="3" d="m15.645 84.355 68.71-68.71z"/><path fill="#fd2302" d="M88.3 74.439q-2.576 6.148-10.24 6.146-1.406-.001-3.044.35-2.458.529-2.458 1.465 0 .291.41.674.41.38.703.381-1.465 0 1.987.085 3.454.09 4.333.089-5.09 2.984-17.029 2.75-3.921-.056-6.729-3.451-2.752-3.219-2.751-7.197 0-4.214 2.839-7.17 2.836-2.953 7.051-2.953.935 0 2.486.408 1.552.41 2.077.41 2.166-.001 5.385-1.785t3.043-1.785q-.586 6.147-4.097 8.25-2.516 1.467-2.516 2.867 0 .88 1.052 1.406a4 4 0 0 0 1.815.408q1.52 0 2.984-1.872 1.461-1.871 1.286-3.394-.174-1.758.235-4.213.117-.704.848-1.727.733-1.025 1.317-1.262 0 .53-.38 1.756-.38 1.232-.38 1.814 0 1.29.703 1.99 1.05-.407 1.872-2.634c.468-1.13.74-2.224.82-3.274q-2.46-.117-4.711-2.227-2.252-2.106-2.252-4.563a3 3 0 0 1 .117-.819q.348.529 1.053 1.64.994 1.463 1.521 1.463.702 0 .702-1.463 0-1.873-.995-3.395-1.115-1.815-2.867-1.814-.821 0-2.458.878-1.64.877-2.983.878-.41-.001-3.629-1.054 5.675-.937 5.676-1.699 0-1.989-7.783-2.688-.761-.058-2.809-.235.233-.29 3.336-.644c1.755-.192 2.983-.293 3.685-.293q13.927 0 17.673 13.521.646-.536.645-1.78 0-1.602-.937-4.033a131 131 0 0 0-1.113-2.849q4.798 6.114 4.8 11.583-.001 2.884-1.348 5.232c-.583 1.059-1.678 2.41-3.276 4.059q-2.399 2.468-3.277 3.821 3.22-.879 4.214-1.347 2.222-.997 4.037-2.985 0 .766-.643 2.281M62.786 51.443q0 1.053-1.17 1.348l-1.521.232c-.547.272-1.347 1.348-2.398 3.219q-.177-.876-.528-2.457c-.351.037-.935.352-1.755.936q-.526.41-1.699 1.229.354-2.104 2.342-4.271 2.107-2.396 4.096-2.396 2.633-.002 2.633 2.16m10.182 5.385q0 .994-1.083 1.668-1.083.672-2.135.673c-.938 0-1.777-.524-2.517-1.581q-1.346-1.928-2.75-2.516a.96.96 0 0 1 .704-.293q.524-.001 1.783.818 1.256.822 1.61.82.292.002.964-.82.672-.82 1.493-.818 1.931 0 1.931 2.049"/><path fill="#0172bb" d="M41.116 48.156q-4.038 4.105-9.946 4.107-6.632 0-10.524-4.541-3.677-4.327-3.677-11.027 0-7.208 6.271-16.436 5.116-7.566 12.037-13.262-1.01 4.615-1.009 6.559-.002 4.471 2.811 8.723 3.46 5.045 5.262 7.496 2.812 4.255 2.812 8.287c0 3.993-1.347 7.354-4.037 10.094m-.072-15.386q-1.08-2.416-2.523-3.211.217.432.216 1.228 0 1.514-.864 4.323l-.938 2.885q0 2.521 2.523 2.521 2.667 0 2.668-3.531-.002-1.803-1.082-4.215"/></symbol><symbol id="y" viewBox="0 0 100 100"><circle cx="50" cy="50" r="48.5" fill="none" stroke="#0d0f0f" stroke-width="3"/><path fill="none" stroke="#0d0f0f" stroke-width="3" d="m15.645 84.355 68.71-68.71z"/><path fill="#fd2302" d="M88.3 74.439q-2.576 6.148-10.24 6.146-1.406-.001-3.044.35-2.458.529-2.458 1.465 0 .291.41.674.41.38.703.381-1.465 0 1.987.085 3.454.09 4.333.089-5.09 2.984-17.029 2.75-3.921-.056-6.729-3.451-2.752-3.219-2.751-7.197 0-4.214 2.839-7.17 2.836-2.953 7.051-2.953.935 0 2.486.408 1.552.41 2.077.41 2.166-.001 5.385-1.785t3.043-1.785q-.586 6.147-4.097 8.25-2.516 1.467-2.516 2.867 0 .88 1.052 1.406a4 4 0 0 0 1.815.408q1.52 0 2.984-1.872 1.461-1.871 1.286-3.394-.174-1.758.235-4.213.117-.704.848-1.727.733-1.025 1.317-1.262 0 .53-.38 1.756-.38 1.232-.38 1.814 0 1.29.703 1.99 1.05-.407 1.872-2.634c.468-1.13.74-2.224.82-3.274q-2.46-.117-4.711-2.227-2.252-2.106-2.252-4.563a3 3 0 0 1 .117-.819q.348.529 1.053 1.64.994 1.463 1.521 1.463.702 0 .702-1.463 0-1.873-.995-3.395-1.115-1.815-2.867-1.814-.821 0-2.458.878-1.64.877-2.983.878-.41-.001-3.629-1.054 5.675-.937 5.676-1.699 0-1.989-7.783-2.688-.761-.058-2.809-.235.233-.29 3.336-.644c1.755-.192 2.983-.293 3.685-.293q13.927 0 17.673 13.521.646-.536.645-1.78 0-1.602-.937-4.033a131 131 0 0 0-1.113-2.849q4.798 6.114 4.8 11.583-.001 2.884-1.348 5.232c-.583 1.059-1.678 2.41-3.276 4.059q-2.399 2.468-3.277 3.821 3.22-.879 4.214-1.347 2.222-.997 4.037-2.985 0 .766-.643 2.281M62.786 51.443q0 1.053-1.17 1.348l-1.521.232c-.547.272-1.347 1.348-2.398 3.219q-.177-.876-.528-2.457c-.351.037-.935.352-1.755.936q-.526.41-1.699 1.229.354-2.104 2.342-4.271 2.107-2.396 4.096-2.396 2.633-.002 2.633 2.16m10.182 5.385q0 .994-1.083 1.668-1.083.672-2.135.673c-.938 0-1.777-.524-2.517-1.581q-1.346-1.928-2.75-2.516a.96.96 0 0 1 .704-.293q.524-.001 1.783.818 1.256.822 1.61.82.292.002.964-.82.672-.82 1.493-.818 1.931 0 1.931 2.049"/><path fill="#281c1c" d="M55.257 30.111q0 4.052-2.948 5.525-.86.432-5.403 1.166-2.946.495-2.946 2.271v4.973q.001.312.184 1.906l.185 1.965q0 .92-.431 3.008-1.166.244-2.7.555-.492-1.844-.491-2.52 0-.306.152-.921.154-.613.154-.921 0-.428-.762-2.393h-.953q-.188.305-.127.795.246 1.044.185 1.781-1.044.736-2.885 1.965-.431-.123-.308-.123v-4.359q-.123-.304-.614-.245h-.737l-.737 5.771q-.86.062-2.086 0-.431-2.024-1.534-6.015h-.493q-.675 2.149-.737 2.333 0 .244.155.951.152.706.152.951 0 .183-.125.921l-.183 1.474a.42.42 0 0 1-.307.121q-1.843 0-2.455-.919-.617-.922-.493-2.58l.493-7.366q-.001-.181.121-.492.123-.306.123-.428 0-.492-1.043-1.967-.185-.06-1.904-.43-1.044-.245-4.112-.858-4.236-.796-4.237-6.815 0-8.964 7.367-14.918.307 1.656 1.044 4.418l2.394.555q.37.122 3.745 1.352-1.72-1.042-4.48-3.377-1.046-1.227-1.046-4.113 0-.674 2.335-1.599 2.086-.856 3.131-.979 3.314-.43 5.096-.432 7.673.001 12.401 3.932c-1.022 1.188-2.783 2.453-5.279 3.807q1.473.062 4.298-1.168 2.823-1.226 2.394-1.227.49 0 1.965 1.963 1.103 1.475 1.78 2.641a23 23 0 0 1 2.641 7.553q0 1.412.061 2.024zm-23.516 1.108q0-2.641-2.301-5.006-2.304-2.363-4.943-2.363-2.332 0-4.114 1.978-1.78 1.979-1.78 4.389 0 2.103 2.027 2.72 1.288.371 3.621.434h3.376q4.114.053 4.114-2.152m6.692 7.612V36.93a60 60 0 0 1-.858-1.66q-.37-1.225-1.351-3.439l-.676 7.186q.001.86-.368.859-.245 0-.369-.122c-.287-4.339-.429-6.224-.429-5.647v-2.148q-.124-.189-.308-.188-2.086 2.154-2.086 6.938 0 2.64.49 3.257a5.6 5.6 0 0 0 1.107-.431q.244-.124 1.412-.123c.775 0 1.719.246 2.823.735q.613 0 .613-3.316m13.876-8.556q0-2.468-1.842-4.418-1.843-1.945-4.235-1.945-2.58 0-4.821 2.363-2.242 2.362-2.242 4.942 0 2.149 2.088 2.148h7.06q3.992-.058 3.992-3.09"/></symbol><symbol id="z" viewBox="0 0 100 100"><circle cx="50" cy="50" r="48.5" fill="none" stroke="#0d0f0f" stroke-width="3"/><path fill="none" stroke="#0d0f0f" stroke-width="3" d="m15.645 84.355 68.71-68.71z"/><path fill="#281c1c" d="M55.257 30.111q0 4.052-2.948 5.525-.86.432-5.403 1.166-2.946.495-2.946 2.271v4.973q.001.312.184 1.906l.185 1.965q0 .92-.431 3.008-1.166.244-2.7.555-.492-1.844-.491-2.52 0-.306.152-.921.154-.613.154-.921 0-.428-.762-2.393h-.953q-.188.305-.127.795.246 1.044.185 1.781-1.044.736-2.885 1.965-.431-.123-.308-.123v-4.359q-.123-.304-.614-.245h-.737l-.737 5.771q-.86.062-2.086 0-.431-2.024-1.534-6.015h-.493q-.675 2.149-.737 2.333 0 .244.155.951.152.706.152.951 0 .183-.125.921l-.183 1.474a.42.42 0 0 1-.307.121q-1.843 0-2.455-.919-.617-.922-.493-2.58l.493-7.366q-.001-.181.121-.492.123-.306.123-.428 0-.492-1.043-1.967-.185-.06-1.904-.43-1.044-.245-4.112-.858-4.236-.796-4.237-6.815 0-8.964 7.367-14.918.307 1.656 1.044 4.418l2.394.555q.37.122 3.745 1.352-1.72-1.042-4.48-3.377-1.046-1.227-1.046-4.113 0-.674 2.335-1.599 2.086-.856 3.131-.979 3.314-.43 5.096-.432 7.673.001 12.401 3.932c-1.022 1.188-2.783 2.453-5.279 3.807q1.473.062 4.298-1.168 2.823-1.226 2.394-1.227.49 0 1.965 1.963 1.103 1.475 1.78 2.641a23 23 0 0 1 2.641 7.553q0 1.412.061 2.024zm-23.516 1.108q0-2.641-2.301-5.006-2.304-2.363-4.943-2.363-2.332 0-4.114 1.978-1.78 1.979-1.78 4.389 0 2.103 2.027 2.72 1.288.371 3.621.434h3.376q4.114.053 4.114-2.152m6.692 7.612V36.93a60 60 0 0 1-.858-1.66q-.37-1.225-1.351-3.439l-.676 7.186q.001.86-.368.859-.245 0-.369-.122c-.287-4.339-.429-6.224-.429-5.647v-2.148q-.124-.189-.308-.188-2.086 2.154-2.086 6.938 0 2.64.49 3.257a5.6 5.6 0 0 0 1.107-.431q.244-.124 1.412-.123c.775 0 1.719.246 2.823.735q.613 0 .613-3.316m13.876-8.556q0-2.468-1.842-4.418-1.843-1.945-4.235-1.945-2.58 0-4.821 2.363-2.242 2.362-2.242 4.942 0 2.149 2.088 2.148h7.06q3.992-.058 3.992-3.09"/><path fill="#027920" d="M89.519 67.618q0 1.135-.879 2.043-.879.906-2.016.905c-1.207 0-2.098-.566-2.663-1.701l-2.667-.112q-.852 0-3.345.737-2.665.736-3.064 1.189-.622.681-1.02 3.178-.34 2.04-.339 3.006 0 1.531.48 2.24.483.71 1.984 1.189c1 .318 1.616.502 1.844.539q.226 0 .737-.057h.681q.736 0 1.532.227 1.133.339.965.907-.796-.112-2.778.34l1.586.795q0 .68-1.928.679c-.342 0-.806-.072-1.39-.225q-.882-.23-1.163-.229h-.737c-.038.379-.15.943-.34 1.701-.646-.037-1.399-.416-2.27-1.133q-1.305-1.08-1.643-1.079-.343 0-.965 1.079-.625 1.074-.624 1.475-.736-.4-1.249-1.475a23 23 0 0 0-.509-1.479q-.567.06-2.099 2.385h-.284q-.115-.168-.852-2.385-1.758-.563-3.288-.563-.737-.001-2.27.341l-1.587-.113q.34-.341 1.984-1.305 1.927-1.137 2.949-1.137.169.001.454.059.283.058.454.058.394 0 1.275-.427.88-.425 1.019-.766.146-.342.145-1.759c0-2.153-.568-3.763-1.703-4.819q-1.474-1.417-4.877-2.043-.908 3.233-5.103 3.234-1.363 0-2.723-1.646t-1.361-3.007q0-2.098 1.758-3.459-1.417-1.471-1.418-3.006 0-1.416.879-2.496.88-1.075 2.297-1.248-.112-1.814 1.19-2.495-.622-.62-.622-2.211-.001-1.87 1.247-3.119 1.247-1.246 3.117-1.248 2.044.002 3.348 1.418 1.645-5.613 7.089-5.613 2.835 0 4.99 2.27.794.849.793.905-.678-.001.681-.254c.909-.171 1.568-.257 1.986-.257q2.21.001 3.915 1.646 1.473 1.474 2.042 3.742.395.057 1.245.341 1.248.625 1.249 2.155 0 .283-.454 1.079 3.63 2.041 3.63 5.67-.001 1.022-.793 2.836 1.478.853 1.478 2.498m-23.368 2.495v-.736q0-1.304-1.275-2.382-1.276-1.079-2.58-1.077-1.59.001-2.949.734c2.004-.11 4.271 1.041 6.804 3.461m-1.02-7.03a14.6 14.6 0 0 1-1.474-1.985c-1.589.414-2.383.889-2.383 1.416q.68-.056 1.984.256 1.306.313 1.873.313m3.462-1.761v-2.495q-1.365-.225-1.646-.226v.851zm7.372-1.586a109 109 0 0 1-2.554-1.135v4.877q2.666-1.532 2.554-3.742m3.116 6.692-1.246-1.529q-1.133.793-2.298 1.615a10.4 10.4 0 0 0-2.011 1.844c1.699-.911 3.554-1.551 5.555-1.93"/></symbol><symbol id="A" viewBox="0 0 100 100"><circle cx="50" cy="50" r="48.5" fill="none" stroke="#0d0f0f" stroke-width="3"/><path fill="none" stroke="#0d0f0f" stroke-width="3" d="m15.645 84.355 68.71-68.71z"/><path fill="#fd2302" d="M51.937 38.077q-2.576 6.147-10.24 6.146-1.406-.001-3.044.35-2.458.53-2.457 1.465 0 .291.409.674.41.38.703.38-1.464.001 1.987.086 3.453.09 4.332.089-5.092 2.983-17.029 2.75-3.921-.056-6.729-3.451-2.75-3.22-2.75-7.196-.001-4.214 2.839-7.171 2.836-2.952 7.051-2.953.935 0 2.486.408 1.551.41 2.077.41 2.166-.002 5.384-1.785 3.22-1.785 3.044-1.785-.586 6.145-4.097 8.251-2.517 1.467-2.516 2.866-.001.88 1.052 1.406a4 4 0 0 0 1.815.408q1.52 0 2.984-1.871 1.461-1.872 1.286-3.396-.173-1.757.235-4.212.116-.705.848-1.727.733-1.026 1.317-1.261 0 .53-.381 1.755c-.254.819-.38 1.428-.38 1.814q0 1.288.702 1.99 1.052-.407 1.872-2.634.701-1.697.82-3.276-2.46-.114-4.712-2.225-2.252-2.107-2.252-4.563-.002-.41.117-.819.348.529 1.054 1.64.993 1.46 1.521 1.461.702 0 .701-1.461 0-1.872-.994-3.395-1.113-1.815-2.867-1.814-.821 0-2.458.879-1.64.877-2.982.877-.411-.002-3.63-1.055 5.675-.936 5.676-1.697 0-1.99-7.783-2.69-.76-.057-2.808-.235.233-.29 3.336-.644c1.755-.192 2.983-.294 3.685-.294q13.927 0 17.673 13.521.646-.535.646-1.779 0-1.604-.937-4.035a133 133 0 0 0-1.113-2.848c3.197 4.075 4.8 7.938 4.8 11.584q-.001 2.882-1.348 5.23c-.583 1.061-1.678 2.412-3.276 4.059q-2.398 2.469-3.277 3.822 3.22-.88 4.215-1.348 2.221-.995 4.036-2.984-.002.765-.643 2.283M26.422 15.08q0 1.052-1.17 1.348l-1.521.233q-.822.408-2.398 3.218-.176-.876-.528-2.458-.526.06-1.755.937a46 46 0 0 1-1.698 1.229q.353-2.105 2.342-4.271 2.107-2.397 4.096-2.396 2.632-.003 2.632 2.16m10.182 5.385c0 .661-.36 1.221-1.083 1.668q-1.083.673-2.135.674-1.407.002-2.517-1.582-1.346-1.928-2.751-2.516a.96.96 0 0 1 .704-.293q.525-.001 1.783.818 1.256.822 1.609.82.293.002.965-.82.672-.82 1.493-.818 1.933 0 1.932 2.049"/><path fill="#027920" d="M89.519 67.618q0 1.135-.879 2.043-.879.906-2.016.905c-1.207 0-2.098-.566-2.663-1.701l-2.667-.112q-.852 0-3.345.737-2.665.736-3.064 1.189-.622.681-1.02 3.178-.34 2.04-.339 3.006 0 1.531.48 2.24.483.71 1.984 1.189c1 .318 1.616.502 1.844.539q.226 0 .737-.057h.681q.736 0 1.532.227 1.133.339.965.907-.796-.112-2.778.34l1.586.795q0 .68-1.928.679c-.342 0-.806-.072-1.39-.225q-.882-.23-1.163-.229h-.737c-.038.379-.15.943-.34 1.701-.646-.037-1.399-.416-2.27-1.133q-1.305-1.08-1.643-1.079-.343 0-.965 1.079-.625 1.074-.624 1.475-.736-.4-1.249-1.475a23 23 0 0 0-.509-1.479q-.567.06-2.099 2.385h-.284q-.115-.168-.852-2.385-1.758-.563-3.288-.563-.737-.001-2.27.341l-1.587-.113q.34-.341 1.984-1.305 1.927-1.137 2.949-1.137.169.001.454.059.283.058.454.058.394 0 1.275-.427.88-.425 1.019-.766.146-.342.145-1.759c0-2.153-.568-3.763-1.703-4.819q-1.474-1.417-4.877-2.043-.908 3.233-5.103 3.234-1.363 0-2.723-1.646t-1.361-3.007q0-2.098 1.758-3.459-1.417-1.471-1.418-3.006 0-1.416.879-2.496.88-1.075 2.297-1.248-.112-1.814 1.19-2.495-.622-.62-.622-2.211-.001-1.87 1.247-3.119 1.247-1.246 3.117-1.248 2.044.002 3.348 1.418 1.645-5.613 7.089-5.613 2.835 0 4.99 2.27.794.849.793.905-.678-.001.681-.254c.909-.171 1.568-.257 1.986-.257q2.21.001 3.915 1.646 1.473 1.474 2.042 3.742.395.057 1.245.341 1.248.625 1.249 2.155 0 .283-.454 1.079 3.63 2.041 3.63 5.67-.001 1.022-.793 2.836 1.478.853 1.478 2.498m-23.368 2.495v-.736q0-1.304-1.275-2.382-1.276-1.079-2.58-1.077-1.59.001-2.949.734c2.004-.11 4.271 1.041 6.804 3.461m-1.02-7.03a14.6 14.6 0 0 1-1.474-1.985c-1.589.414-2.383.889-2.383 1.416q.68-.056 1.984.256 1.306.313 1.873.313m3.462-1.761v-2.495q-1.365-.225-1.646-.226v.851zm7.372-1.586a109 109 0 0 1-2.554-1.135v4.877q2.666-1.532 2.554-3.742m3.116 6.692-1.246-1.529q-1.133.793-2.298 1.615a10.4 10.4 0 0 0-2.011 1.844c1.699-.911 3.554-1.551 5.555-1.93"/></symbol><symbol id="B" viewBox="0 0 100 100"><circle cx="50" cy="50" r="48.5" fill="none" stroke="#0d0f0f" stroke-width="3"/><path fill="none" stroke="#0d0f0f" stroke-width="3" d="m15.645 84.355 68.71-68.71z"/><path fill="#89723e" d="M88 73.111q-3.656-3.396-4.848-3.682-.865-.207-1.672 1.006-.804 1.21-2.268.858-.595-.143-2.334-1.017-1.407 1.328-1.511 1.758-.142.597.551 1.621c.46.685.894 1.072 1.301 1.171q.386.093 1.09.089.702-.002.927.051.664.157.078 2.598-.556 2.33-2.793 6.892-.088-5.864-1.656-6.239-.218-.051-.972.111-.757.162-1.08.085-1.572-.377-2.131-3.546-2.584-.216-3.103 1.949-.26 1.088.589 1.976.844.888.782 1.16c-.233.978-2.021 2.133-5.355 3.473a229 229 0 0 0-3.688 1.522q.99-.793 2.127-2.182c.862-1.057 1.371-1.906 1.528-2.559q.129-.54-.884-1.814-1.013-1.273-.753-2.355.218-.92 1.194-2.12-.51-.981-1.485-1.215-2.166-.52-2.504.891l-.35 1.462q-.375 1.8-3.138 1.141-2.113-.507-6.864-2.674 5.972-.06 6.411-1.901c-.032.146-.003-.308.097-1.353q.184-1.732 3.108-2.465.11-2.608-2.004-3.113-.325-.08-1.463.853-1.141.93-1.898.748-1.302-.308-2.684-3.62a279 279 0 0 0-1.983-4.885q1.09.95 2.182 1.896 1.445 1.148 2.419 1.383.758.179 1.808-.974 1.049-1.153 2.24-.866.165.038 2.013 1.168 1.405-1.324 1.588-2.082.154-.652-.431-1.679t-1.235-1.184q-.271-.067-.878-.039-.608.028-.879-.038-.974-.232-.392-2.671.153-.653 3.022-7.123c-.166.53-.173 1.601-.021 3.202q.271 2.928 1.518 3.228.216.05.946-.118.727-.17 1.104-.078 1.245.297 1.723 1.9l.463 1.655q1.137.274 2.09-.357a2.84 2.84 0 0 0 1.227-1.769q.284-1.192-.568-2.055-.855-.864-.775-1.188.272-1.137 4.495-2.99 3.39-1.478 4.349-1.651c-2.054 1.725-3.199 3.07-3.432 4.047q-.182.759.531 1.848.893 1.302.95 1.771c.161.92-.146 2.047-.925 3.39q1.216 1.378 1.977 1.562 1.569.374 1.958-1.25.039-.163.112-1.063.07-.9.151-.995.399-.708 3.161-.045 1.733.414 6.973 2.698l-3.809.121q-2.325.13-2.519.942-.09.38-.04 1.364.052.986-.053 1.421-.181.758-1.312 1.175l-2.155.859q.366 1.348.531 1.615.387.78 1.306 1.002.65.156 1.465-.854.814-1.008 2.007-.722 1.463.348 2.657 3.499A397 397 0 0 0 88 73.111m-11.274-6.019q.829-3.469-1.108-6.623-1.939-3.155-5.404-3.986-3.523-.842-6.671 1.07-3.149 1.906-4.046 5.416-.885 3.454 1.141 6.604 2.024 3.148 5.493 3.978 3.682.88 6.725-.94 3.039-1.823 3.87-5.519m-.815-.196q-.79 3.306-3.53 4.939-2.74 1.636-6.044.846-3.196-.765-4.94-3.531t-.979-5.961q.753-3.143 3.592-4.842 2.843-1.696 5.984-.943 3.141.75 4.898 3.576 1.758 2.83 1.019 5.916"/><path fill="#fd2302" d="M51.937 38.077q-2.576 6.147-10.24 6.146-1.406-.001-3.044.35-2.458.53-2.457 1.465 0 .291.409.674.41.38.703.38-1.464.001 1.987.086 3.453.09 4.332.089-5.092 2.983-17.029 2.75-3.921-.056-6.729-3.451-2.75-3.22-2.75-7.196-.001-4.214 2.839-7.171 2.836-2.952 7.051-2.953.935 0 2.486.408 1.551.41 2.077.41 2.166-.002 5.384-1.785 3.22-1.785 3.044-1.785-.586 6.145-4.097 8.251-2.517 1.467-2.516 2.866-.001.88 1.052 1.406a4 4 0 0 0 1.815.408q1.52 0 2.984-1.871 1.461-1.872 1.286-3.396-.173-1.757.235-4.212.116-.705.848-1.727.733-1.026 1.317-1.261 0 .53-.381 1.755c-.254.819-.38 1.428-.38 1.814q0 1.288.702 1.99 1.052-.407 1.872-2.634.701-1.697.82-3.276-2.46-.114-4.712-2.225-2.252-2.107-2.252-4.563-.002-.41.117-.819.348.529 1.054 1.64.993 1.46 1.521 1.461.702 0 .701-1.461 0-1.872-.994-3.395-1.113-1.815-2.867-1.814-.821 0-2.458.879-1.64.877-2.982.877-.411-.002-3.63-1.055 5.675-.936 5.676-1.697 0-1.99-7.783-2.69-.76-.057-2.808-.235.233-.29 3.336-.644c1.755-.192 2.983-.294 3.685-.294q13.927 0 17.673 13.521.646-.535.646-1.779 0-1.604-.937-4.035a133 133 0 0 0-1.113-2.848c3.197 4.075 4.8 7.938 4.8 11.584q-.001 2.882-1.348 5.23c-.583 1.061-1.678 2.412-3.276 4.059q-2.398 2.469-3.277 3.822 3.22-.88 4.215-1.348 2.221-.995 4.036-2.984-.002.765-.643 2.283M26.422 15.08q0 1.052-1.17 1.348l-1.521.233q-.822.408-2.398 3.218-.176-.876-.528-2.458-.526.06-1.755.937a46 46 0 0 1-1.698 1.229q.353-2.105 2.342-4.271 2.107-2.397 4.096-2.396 2.632-.003 2.632 2.16m10.182 5.385c0 .661-.36 1.221-1.083 1.668q-1.083.673-2.135.674-1.407.002-2.517-1.582-1.346-1.928-2.751-2.516a.96.96 0 0 1 .704-.293q.525-.001 1.783.818 1.256.822 1.609.82.293.002.965-.82.672-.82 1.493-.818 1.933 0 1.932 2.049"/></symbol><symbol id="C" viewBox="0 0 100 100"><circle cx="50" cy="50" r="48.5" fill="none" stroke="#0d0f0f" stroke-width="3"/><path fill="none" stroke="#0d0f0f" stroke-width="3" d="m15.645 84.355 68.71-68.71z"/><path fill="#89723e" d="M88 73.111q-3.656-3.396-4.848-3.682-.865-.207-1.672 1.006-.804 1.21-2.268.858-.595-.143-2.334-1.017-1.407 1.328-1.511 1.758-.142.597.551 1.621c.46.685.894 1.072 1.301 1.171q.386.093 1.09.089.702-.002.927.051.664.157.078 2.598-.556 2.33-2.793 6.892-.088-5.864-1.656-6.239-.218-.051-.972.111-.757.162-1.08.085-1.572-.377-2.131-3.546-2.584-.216-3.103 1.949-.26 1.088.589 1.976.844.888.782 1.16c-.233.978-2.021 2.133-5.355 3.473a229 229 0 0 0-3.688 1.522q.99-.793 2.127-2.182c.862-1.057 1.371-1.906 1.528-2.559q.129-.54-.884-1.814-1.013-1.273-.753-2.355.218-.92 1.194-2.12-.51-.981-1.485-1.215-2.166-.52-2.504.891l-.35 1.462q-.375 1.8-3.138 1.141-2.113-.507-6.864-2.674 5.972-.06 6.411-1.901c-.032.146-.003-.308.097-1.353q.184-1.732 3.108-2.465.11-2.608-2.004-3.113-.325-.08-1.463.853-1.141.93-1.898.748-1.302-.308-2.684-3.62a279 279 0 0 0-1.983-4.885q1.09.95 2.182 1.896 1.445 1.148 2.419 1.383.758.179 1.808-.974 1.049-1.153 2.24-.866.165.038 2.013 1.168 1.405-1.324 1.588-2.082.154-.652-.431-1.679t-1.235-1.184q-.271-.067-.878-.039-.608.028-.879-.038-.974-.232-.392-2.671.153-.653 3.022-7.123c-.166.53-.173 1.601-.021 3.202q.271 2.928 1.518 3.228.216.05.946-.118.727-.17 1.104-.078 1.245.297 1.723 1.9l.463 1.655q1.137.274 2.09-.357a2.84 2.84 0 0 0 1.227-1.769q.284-1.192-.568-2.055-.855-.864-.775-1.188.272-1.137 4.495-2.99 3.39-1.478 4.349-1.651c-2.054 1.725-3.199 3.07-3.432 4.047q-.182.759.531 1.848.893 1.302.95 1.771c.161.92-.146 2.047-.925 3.39q1.216 1.378 1.977 1.562 1.569.374 1.958-1.25.039-.163.112-1.063.07-.9.151-.995.399-.708 3.161-.045 1.733.414 6.973 2.698l-3.809.121q-2.325.13-2.519.942-.09.38-.04 1.364.052.986-.053 1.421-.181.758-1.312 1.175l-2.155.859q.366 1.348.531 1.615.387.78 1.306 1.002.65.156 1.465-.854.814-1.008 2.007-.722 1.463.348 2.657 3.499A397 397 0 0 0 88 73.111m-11.274-6.019q.829-3.469-1.108-6.623-1.939-3.155-5.404-3.986-3.523-.842-6.671 1.07-3.149 1.906-4.046 5.416-.885 3.454 1.141 6.604 2.024 3.148 5.493 3.978 3.682.88 6.725-.94 3.039-1.823 3.87-5.519m-.815-.196q-.79 3.306-3.53 4.939-2.74 1.636-6.044.846-3.196-.765-4.94-3.531t-.979-5.961q.753-3.143 3.592-4.842 2.843-1.696 5.984-.943 3.141.75 4.898 3.576 1.758 2.83 1.019 5.916"/><path fill="#027920" d="M51.64 34.314q0 1.136-.879 2.043t-2.016.908c-1.207 0-2.098-.567-2.663-1.701l-2.666-.115q-.853 0-3.346.738c-1.777.49-2.798.89-3.064 1.19-.414.452-.755 1.513-1.02 3.175q-.34 2.042-.339 3.008 0 1.533.48 2.239.483.71 1.984 1.191c1.001.319 1.616.501 1.844.536q.226 0 .737-.057h.681a5.6 5.6 0 0 1 1.532.229q1.133.341.965.908-.796-.114-2.778.34l1.586.794q0 .681-1.928.681-.513 0-1.39-.227-.88-.227-1.163-.227h-.736q-.057.565-.341 1.7c-.645-.039-1.399-.416-2.27-1.136q-1.305-1.076-1.643-1.077-.343 0-.965 1.077-.625 1.08-.624 1.476-.735-.397-1.249-1.476a24 24 0 0 0-.509-1.475q-.567.058-2.099 2.383h-.284q-.114-.17-.852-2.383-1.758-.566-3.288-.566-.737.001-2.27.34l-1.586-.111q.339-.342 1.983-1.305 1.928-1.135 2.949-1.135.169 0 .454.057.283.057.454.057.395 0 1.275-.427.88-.421 1.019-.764.146-.34.145-1.761 0-3.23-1.703-4.819-1.474-1.417-4.877-2.04-.907 3.232-5.103 3.232-1.362 0-2.723-1.646-1.36-1.644-1.361-3.005 0-2.1 1.758-3.462-1.417-1.47-1.418-3.004c0-.947.292-1.777.879-2.498q.88-1.076 2.297-1.245-.113-1.816 1.191-2.496-.623-.624-.623-2.211-.001-1.872 1.247-3.119c.83-.833 1.872-1.25 3.117-1.25 1.363 0 2.479.478 3.348 1.42q1.645-5.614 7.089-5.614 2.835 0 4.99 2.269.794.851.793.907-.678 0 .681-.256c.909-.17 1.568-.256 1.986-.256q2.21 0 3.915 1.646 1.473 1.473 2.042 3.742.395.058 1.246.34c.831.419 1.248 1.135 1.248 2.156q0 .284-.454 1.076 3.63 2.041 3.63 5.674 0 1.02-.793 2.834 1.478.857 1.478 2.498m-23.367 2.497v-.734q0-1.305-1.276-2.383-1.276-1.076-2.58-1.077-1.59-.001-2.949.735 3.006-.17 6.805 3.459m-1.021-7.032a14.4 14.4 0 0 1-1.474-1.985q-2.383.626-2.382 1.417c.452-.035 1.115.048 1.983.258q1.306.31 1.873.31m3.463-1.758v-2.496c-.91-.149-1.459-.228-1.646-.228v.851zm7.371-1.587q-.68-.283-2.554-1.135v4.877q2.667-1.533 2.554-3.742m3.116 6.692-1.246-1.532q-1.133.793-2.298 1.617a10.5 10.5 0 0 0-2.011 1.842c1.699-.908 3.554-1.549 5.555-1.927"/></symbol><symbol id="D" viewBox="0 0 100 100"><circle cx="50" cy="50" r="48.5" fill="none" stroke="#0d0f0f" stroke-width="3"/><path fill="none" stroke="#0d0f0f" stroke-width="3" d="m15.645 84.355 68.71-68.71z"/><path fill="#0172bb" d="M76.723 83.675q-4.04 4.109-9.945 4.109-6.634-.001-10.524-4.541-3.678-4.324-3.678-11.028 0-7.205 6.272-16.434 5.117-7.57 12.036-13.264-1.01 4.613-1.009 6.561 0 4.47 2.811 8.721 3.461 5.048 5.262 7.496 2.811 4.254 2.813 8.289-.004 5.985-4.038 10.091m-.075-15.388q-1.08-2.415-2.521-3.208.218.433.217 1.226.001 1.516-.865 4.324l-.938 2.885q0 2.521 2.521 2.522 2.667 0 2.668-3.532 0-1.802-1.082-4.217"/><path fill="#027920" d="M51.64 34.314q0 1.136-.879 2.043t-2.016.908c-1.207 0-2.098-.567-2.663-1.701l-2.666-.115q-.853 0-3.346.738c-1.777.49-2.798.89-3.064 1.19-.414.452-.755 1.513-1.02 3.175q-.34 2.042-.339 3.008 0 1.533.48 2.239.483.71 1.984 1.191c1.001.319 1.616.501 1.844.536q.226 0 .737-.057h.681a5.6 5.6 0 0 1 1.532.229q1.133.341.965.908-.796-.114-2.778.34l1.586.794q0 .681-1.928.681-.513 0-1.39-.227-.88-.227-1.163-.227h-.736q-.057.565-.341 1.7c-.645-.039-1.399-.416-2.27-1.136q-1.305-1.076-1.643-1.077-.343 0-.965 1.077-.625 1.08-.624 1.476-.735-.397-1.249-1.476a24 24 0 0 0-.509-1.475q-.567.058-2.099 2.383h-.284q-.114-.17-.852-2.383-1.758-.566-3.288-.566-.737.001-2.27.34l-1.586-.111q.339-.342 1.983-1.305 1.928-1.135 2.949-1.135.169 0 .454.057.283.057.454.057.395 0 1.275-.427.88-.421 1.019-.764.146-.34.145-1.761 0-3.23-1.703-4.819-1.474-1.417-4.877-2.04-.907 3.232-5.103 3.232-1.362 0-2.723-1.646-1.36-1.644-1.361-3.005 0-2.1 1.758-3.462-1.417-1.47-1.418-3.004c0-.947.292-1.777.879-2.498q.88-1.076 2.297-1.245-.113-1.816 1.191-2.496-.623-.624-.623-2.211-.001-1.872 1.247-3.119c.83-.833 1.872-1.25 3.117-1.25 1.363 0 2.479.478 3.348 1.42q1.645-5.614 7.089-5.614 2.835 0 4.99 2.269.794.851.793.907-.678 0 .681-.256c.909-.17 1.568-.256 1.986-.256q2.21 0 3.915 1.646 1.473 1.473 2.042 3.742.395.058 1.246.34c.831.419 1.248 1.135 1.248 2.156q0 .284-.454 1.076 3.63 2.041 3.63 5.674 0 1.02-.793 2.834 1.478.857 1.478 2.498m-23.367 2.497v-.734q0-1.305-1.276-2.383-1.276-1.076-2.58-1.077-1.59-.001-2.949.735 3.006-.17 6.805 3.459m-1.021-7.032a14.4 14.4 0 0 1-1.474-1.985q-2.383.626-2.382 1.417c.452-.035 1.115.048 1.983.258q1.306.31 1.873.31m3.463-1.758v-2.496c-.91-.149-1.459-.228-1.646-.228v.851zm7.371-1.587q-.68-.283-2.554-1.135v4.877q2.667-1.533 2.554-3.742m3.116 6.692-1.246-1.532q-1.133.793-2.298 1.617a10.5 10.5 0 0 0-2.011 1.842c1.699-.908 3.554-1.549 5.555-1.927"/></symbol><symbol id="E" viewBox="0 0 100 100"><circle cx="50" cy="50" r="48.5" fill="none" stroke="#3f477b" stroke-width="3"/><path fill="#3f477b" d="M77.307 49.928C77.366 44.584 75.668 39.19 72.34 35c-1.607-1.77-2.931-3.787-4.633-5.461-3.755-3.725-9.375-3.973-13.896-6.32-.264-2.357-1.125-4.715-.604-7.094.159-.791.393-1.592-.029-2.348-1.187-2.732-.166-5.699-.377-8.547-.158-1.488-.058-3.309-1.476-4.229-.33 3.098-1.469 5.98-2.392 8.918-.426 2.291-.426 4.676-1.413 6.836.627 2.189-.613 4.031-1.955 5.646-2.968 1.52-6.496 1.881-9.078 4.109-1.84 1.563-3.828 2.932-5.887 4.203-1.545 1.934-3.256 3.797-3.945 6.24-2.762 3.334-3.088 7.811-4.654 11.717-.029 5.799 1.146 12.043 4.85 16.691 2.65 2.188 4.502 5.131 7.149 7.318 2.541 1.518 5.252 2.764 7.875 4.127 1.709.4 3.475.596 5.176 1.061C48.43 84.976 49.373 92.256 52.143 99c.918-2.768.807-5.736 1.6-8.533 1.119-4.135-1.176-8.439.117-12.5 1.938-1.732 5.17-.607 7.32-2.094 4.092-2.523 8.422-4.98 11.391-8.84 1.105-2.219 3.426-3.877 3.426-6.539.019-3.583 2.109-6.941 1.31-10.566M46.934 71.86c-2.965-.721-5.727-2.139-8.213-3.871-2.676-1.783-3.674-5.109-6.314-6.934-2.473-2.949-1.938-6.98-2.951-10.475.406-2.439.885-4.857 1.139-7.326 1.205-1.955 3.066-3.514 3.582-5.869 1.769-2.533 4.459-4.285 6.619-6.48 1.572-1.813 4.074-1.047 6.139-1.119-.204 2-.366 4.07.134 6.041.244 1.213.791 2.408.604 3.676-.414 2.699.598 5.408-.117 8.076-1.443 5.576.131 11.209.268 16.832-.206 2.488-.323 4.998-.89 7.449m22.477-10.57c-1.963 1.398-3.637 3.111-5.35 4.785-2.979 2.061-5.924 4.24-9.469 5.27.319-2.529.631-5.131-.174-7.607-1.979-5.594.444-11.445.854-17.102-.361-3.363-.017-6.951-1.56-10.049-.201-2.326.806-4.574 1.486-6.764 2.342.936 4.547 2.197 6.496 3.82 2.354 1.766 5.961 2.908 6.488 6.199.268 2.16 2.633 3.467 2.564 5.678-.146 5.256.579 10.752-1.335 15.77"/></symbol><symbol id="F" viewBox="0 0 100 100"><circle cx="50" cy="50" r="48.5" fill="none" stroke="#0d0f0f" stroke-width="3"/><path fill="#0d0f0f" d="M85.332 59.918H49.328l13.185-9.383c-4.898-3.887-10.566-5.828-16.984-5.828-3.211 0-5.414.613-6.59 1.836q-1.776 1.84-1.777 6.654 0 13.31 13.691 28.396L40.462 92.114C28.372 77.409 22.333 64.27 22.333 52.69c0-6.928 2.086-12.447 6.27-16.545 4.18-4.098 9.746-6.148 16.668-6.148 8.453 0 17.664 3.215 27.641 9.635L80.64 26.45z"/></symbol><use width="100" height="100" href="#a"/><use width="100" height="100" x="105" href="#b"/><use width="100" height="100" x="210" href="#c"/><use width="100" height="100" x="315" href="#d"/><use width="100" height="100" x="420" href="#e"/><use width="100" height="100" x="525" href="#f"/><use width="100" height="100" x="630" href="#g"/><use width="100" height="100" x="735" href="#h"/><use width="100" height="100" x="840" href="#i"/><use width="100" height="100" x="945" href="#j"/><use width="100" height="100" y="105" href="#k"/><use width="100" height="100" x="105" y="105" href="#l"/><use width="100" height="100" x="210" y="105" href="#m"/><use width="100" height="100" x="315" y="105" href="#n"/><use width="100" height="100" x="420" y="105" href="#o"/><use width="100" height="100" x="525" y="105" href="#p"/><use width="100" height="100" x="630" y="105" href="#q"/><use width="100" height="100" x="735" y="105" href="#r"/><use width="100" height="100" x="840" y="105" href="#s"/><use width="100" height="100" x="945" y="105" href="#t"/><use width="100" height="100" y="210" href="#u"/><use width="100" height="100" x="105" y="210" href="#v"/><use width="100" height="100" x="210" y="210" href="#w"/><use width="100" height="100" x="315" y="210" href="#x"/><use width="100" height="100" x="420" y="210" href="#y"/><use width="100" height="100" x="525" y="210" href="#z"/><use width="100" height="100" x="630" y="210" href="#A"/><use width="100" height="100" x="735" y="210" href="#B"/><use width="100" height="100" x="840" y="210" href="#C"/><use width="100" height="100" x="945" y="210" href="#D"/><use width="100" height="100" x="630" y="315" href="#E"/><use width="100" height="100" y="420" href="#F"/><view viewBox="0 0 100 100"/><view viewBox="105 0 100 100"/><view viewBox="210 0 100 100"/><view viewBox="315 0 100 100"/><view viewBox="420 0 100 100"/><view viewBox="525 0 100 100"/><view viewBox="630 0 100 100"/><view viewBox="735 0 100 100"/><view viewBox="840 0 100 100"/><view viewBox="945 0 100 100"/><view viewBox="0 105 100 100"/><view viewBox="105 105 100 100"/><view viewBox="210 105 100 100"/><view viewBox="315 105 100 100"/><view viewBox="420 105 100 100"/><view viewBox="525 105 100 100"/><view viewBox="630 105 100 100"/><view viewBox="735 105 100 100"/><view viewBox="840 105 100 100"/><view viewBox="945 105 100 100"/><view viewBox="0 210 100 100"/><view viewBox="105 210 100 100"/><view viewBox="210 210 100 100"/><view viewBox="315 210 100 100"/><view viewBox="420 210 100 100"/><view viewBox="525 210 100 100"/><view viewBox="630 210 100 100"/><view viewBox="735 210 100 100"/><view viewBox="840 210 100 100"/><view viewBox="945 210 100 100"/><view viewBox="630 315 100 100"/><view viewBox="0 420 100 100"/></svg>
