<svg xmlns="http://www.w3.org/2000/svg" viewBox="0 0 119.87 99"><path d="M72.21,1.5c-37.4,0-71,47.87-71,47.87s33.64,49.13,71,49.13S118.83,61.93,118.83,50,109.62,1.5,72.21,1.5Z" transform="translate(0.05 -0.5)" style="fill:#fff;stroke:#231815;stroke-miterlimit:10;stroke-width:2px"/><path d="M72.21,90.14c-24.09,0-49.25-26-60.59-40.66A161.48,161.48,0,0,1,28.54,31.39C39.33,21.57,55.66,9.86,72.21,9.86c13.17,0,23.38,5.39,30.35,16,5.8,8.85,7.91,19.28,7.91,24.14s-2.11,15.29-7.91,24.14C95.59,84.75,85.38,90.14,72.21,90.14Z" transform="translate(0.05 -0.5)" style="fill:#231815;stroke:#231815;stroke-miterlimit:10;stroke-width:2px"/><polygon points="53.02 35.94 38.01 61.28 68.04 61.28 53.02 35.94" style="fill:#fff;stroke:#fff;stroke-linecap:round;stroke-linejoin:round;stroke-width:8.22830501047899px"/><polygon points="83.05 59.49 98.07 34.15 68.04 34.15 83.05 59.49" style="fill:#fff;stroke:#fff;stroke-linecap:round;stroke-linejoin:round;stroke-width:8.22830501047899px"/></svg>