<svg xmlns="http://www.w3.org/2000/svg" viewBox="0 0 24 24"><rect x="5" y="2" width="14" height="20" rx="2.3" style="fill:#fff;stroke:#231815;stroke-miterlimit:10"/><path d="M7.66,3.34h8.69a1.3,1.3,0,0,1,1.3,1.3V12a0,0,0,0,1,0,0H6.36a0,0,0,0,1,0,0V4.63a1.3,1.3,0,0,1,1.3-1.3Z" style="fill:#231815;stroke:#231815;stroke-miterlimit:10"/><path d="M6.36,12H17.64a0,0,0,0,1,0,0v7.38a1.3,1.3,0,0,1-1.3,1.3H7.66a1.3,1.3,0,0,1-1.3-1.3V12a0,0,0,0,1,0,0Z" style="fill:#fff;stroke:#231815;stroke-miterlimit:10"/></svg>