<svg xmlns="http://www.w3.org/2000/svg" viewBox="0 0 24 24"><rect x="5" y="2" width="14" height="20" rx="2.3" transform="translate(0 24) rotate(-90)" style="fill:#fff;stroke:#231815;stroke-miterlimit:10"/><path d="M3.32,7.67H12A1.3,1.3,0,0,1,13.31,9v7.37a0,0,0,0,1,0,0H2a0,0,0,0,1,0,0V9A1.3,1.3,0,0,1,3.32,7.67Z" transform="translate(-4.33 19.67) rotate(-90)" style="fill:#231815;stroke:#231815;stroke-miterlimit:10"/><path d="M10.7,7.66H22a0,0,0,0,1,0,0V15a1.3,1.3,0,0,1-1.3,1.3H12A1.3,1.3,0,0,1,10.7,15V7.66a0,0,0,0,1,0,0Z" transform="translate(4.34 28.34) rotate(-90)" style="fill:#fff;stroke:#231815;stroke-miterlimit:10"/></svg>