<svg xmlns="http://www.w3.org/2000/svg" viewBox="0 0 100 100"><circle cx="50" cy="50" r="49" style="fill:#fff;stroke:#231815;stroke-miterlimit:10;stroke-width:2px"/><circle cx="50" cy="50" r="42" style="fill:#231815"/><path d="M43.94,19.78c2.14-1.1,18.66.23,18.66.23L44.3,57.14S37.89,22.87,43.94,19.78Z" style="fill:#fff;stroke:#231815;stroke-miterlimit:10"/><path d="M35.92,15.74l9.71-4C40,19.4,41.42,79.92,57.27,78.48l-5.26,9C42.06,85.8,27.75,49.86,35.92,15.74Z" style="fill:#fff;stroke:#231815;stroke-miterlimit:10"/><path d="M67.4,15.6C51.82,27.05,40.62,61.21,41.31,87.49l9.58.17c-8.64-33,22.33-67.37,22.33-67.37Z" style="fill:#fff;stroke:#231815;stroke-miterlimit:10"/><path d="M44.3,57.14" style="fill:#fff;stroke:#231815;stroke-miterlimit:10"/><path d="M52,19.4c-4.37,1.45-6.35,35.06-6.35,35.06" style="fill:#fff;stroke:#231815;stroke-miterlimit:10"/></svg>