<svg xmlns="http://www.w3.org/2000/svg" viewBox="0 0 100 100"><circle cx="50" cy="50" r="49" style="fill:#fff;stroke:#231815;stroke-miterlimit:10;stroke-width:2px"/><circle cx="50" cy="50" r="42" style="fill:#231815"/><path d="M50,11.18c1.77,0,1.93.42,3.9,1.83s11,10.9,13.42,12.35c2.11,2.53,13.38,8,14.5,9.71s1.52,5.49.52,7.36c-2.63,1-18.16-.14-20.27.56s-2.26,3.8-1.41,5.91,6.66,4.65,7.23,8.17S59.11,72.41,57.7,74.67s-2,7.46-.7,9.57,2.39,1.13,2.39,1.13l.85-2.4s1.4-2.39,3.37-1.26-1.4,5.63-3.8,6.47-3.66.28-5.63-1.27-2.39-6.61-2-9.29,9.48-14.82,10-17.07-1-4.18-2.86-6-4.93-1.83-5.35.7,11.55,11.68,11.69,14.5-.14,3.2-2.54,2.78S54.43,59.47,52.78,60s.32,6.58,1.73,8.55a47.08,47.08,0,0,0,5.14,6.54c1,1,2.74.95,2.84,1.52.28,1.69-1.49,2.76-3.8,2.67s-8.69-11-8.69-11" style="fill:#fff"/><path d="M50,11.18c-1.77,0-1.93.42-3.9,1.83s-11,10.9-13.42,12.35c-2.11,2.53-13.38,8-14.5,9.71s-1.52,5.49-.52,7.36c2.63,1,18.16-.14,20.27.56s2.26,3.8,1.41,5.91-6.66,4.65-7.23,8.17,8.78,15.34,10.19,17.6,2,7.46.7,9.57-2.39,1.13-2.39,1.13L39.76,83s-1.4-2.39-3.37-1.26,1.4,5.63,3.8,6.47,3.66.28,5.63-1.27,2.39-6.61,2-9.29-9.48-14.82-10-17.07,1-4.18,2.86-6,4.93-1.83,5.35.7S34.41,66.92,34.27,69.74s.14,3.2,2.54,2.78,8.76-13,10.41-12.49-.32,6.58-1.73,8.55a47.08,47.08,0,0,1-5.14,6.54c-1,1-2.74.95-2.84,1.52-.28,1.69,1.49,2.76,3.8,2.67s8.69-11,8.69-11" style="fill:#fff"/></svg>