<svg xmlns="http://www.w3.org/2000/svg" xmlns:xlink="http://www.w3.org/1999/xlink" viewBox="0 0 100 100"><defs><clipPath id="a"><circle cx="50" cy="50" r="40" style="fill:none;stroke:#231815;stroke-miterlimit:10;stroke-width:0.25px"/></clipPath></defs><circle cx="50" cy="50" r="49" style="fill:#fff;stroke:#231815;stroke-miterlimit:10;stroke-width:2px"/><circle cx="50" cy="50" r="42" style="fill:#231815"/><g style="clip-path:url(#a)"><path d="M61.38,4.54c-4,15.78-18.81,15.78-22.76,0,4,15.78-8.91,23.73-19.7,12.18,10.79,11.55,3.36,25.33-11.38,21.1,14.74,4.23,14.74,20.13,0,24.36C22.28,58,29.71,71.73,18.92,83.28c10.79-11.55,23.65-3.6,19.7,12.18,4-15.78,18.81-15.78,22.76,0-4-15.78,8.91-23.73,19.7-12.18C70.29,71.73,77.72,58,92.46,62.18c-14.74-4.23-14.74-20.13,0-24.36-14.74,4.23-22.17-9.55-11.38-21.1C70.29,28.27,57.43,20.32,61.38,4.54Z" style="fill:#fff"/><path d="M61.38,4.54c-4,15.78-18.81,15.78-22.76,0,4,15.78-8.91,23.73-19.7,12.18,10.79,11.55,3.36,25.33-11.38,21.1,14.74,4.23,14.74,20.13,0,24.36C22.28,58,29.71,71.73,18.92,83.28c10.79-11.55,23.65-3.6,19.7,12.18,4-15.78,18.81-15.78,22.76,0-4-15.78,8.91-23.73,19.7-12.18C70.29,71.73,77.72,58,92.46,62.18c-14.74-4.23-14.74-20.13,0-24.36-14.74,4.23-22.17-9.55-11.38-21.1C70.29,28.27,57.43,20.32,61.38,4.54Z" style="fill:none;stroke:#231815;stroke-miterlimit:10;stroke-width:2px"/></g><circle cx="50" cy="50" r="40" style="fill:none;stroke:#231815;stroke-miterlimit:10;stroke-width:0.25px"/><circle cx="50" cy="50" r="25" style="fill:#fff;stroke:#231815;stroke-miterlimit:10;stroke-width:2px"/></svg>