<svg xmlns="http://www.w3.org/2000/svg" viewBox="0 0 100 100"><circle cx="50" cy="50" r="49" style="fill:#fff;stroke:#231815;stroke-miterlimit:10;stroke-width:2px"/><circle cx="50" cy="50" r="42" style="fill:#231815"/><path d="M50,10.34s2.24,41.93,5.57,41.93,6.28-32.36,6.28-32.36,1.2,33.43,4.81,33.83,6.4-20.31,6.4-20.31l3.21,27C67.59,62.29,50,83.52,50,86.05" style="fill:#fff"/><path d="M50,10.34s2.24,41.93,5.57,41.93,6.28-32.36,6.28-32.36,1.2,33.43,4.81,33.83,6.4-20.31,6.4-20.31l3.21,27C67.59,62.29,50,83.52,50,86.05" style="fill:none;stroke:#231815;stroke-miterlimit:10"/><path d="M50,10.34s-2.24,41.93-5.57,41.93-6.28-32.36-6.28-32.36S37,53.34,33.34,53.74s-6.4-20.31-6.4-20.31l-3.21,27C32.41,62.29,50,83.52,50,86.05" style="fill:#fff"/><path d="M50,10.34s-2.24,41.93-5.57,41.93-6.28-32.36-6.28-32.36S37,53.34,33.34,53.74s-6.4-20.31-6.4-20.31l-3.21,27C32.41,62.29,50,83.52,50,86.05" style="fill:none;stroke:#231815;stroke-miterlimit:10"/></svg>