<svg xmlns="http://www.w3.org/2000/svg" viewBox="0 0 100 100"><circle cx="50" cy="50" r="49" style="fill:#fff;stroke:#231815;stroke-miterlimit:10;stroke-width:2px"/><circle cx="50" cy="50" r="42" style="fill:#231815"/><path d="M11.65,46.05c-1.82,1.83-.91,11.35-.91,11.35S42,79.39,52.49,79.93c.57-.4,2.08-2.59,2.57-6.41C42.05,73.7,13.67,50,11.65,46.05Z" style="fill:#fff;stroke:#231815;stroke-miterlimit:10"/><path d="M90.12,54.66C73.6,49,32.71,71.69,32.71,78.1c1.63,1.14,2.48,3.2,5.41,2.11,4.12-8,34.91-20.13,49-18.72Z" style="fill:#fff;stroke:#231815;stroke-miterlimit:10"/><path d="M13.54,39c3-7.51,6.72-9.66,10.22-11.66C22.25,34,30.25,55.52,32.69,54,30.62,48.57,28,34.67,29.12,22.3c2.25-2.44,10.5-5.63,13.89-4.7C37.94,22.3,36.44,46.13,38.32,54c2.82.75,5.82-34.73,11.68-36.42,2.59-1.5,16.38-1.22,17.7,1C57.28,24.17,44.7,48.57,44.89,55c5.11-10.7,22-30.41,28.91-32.85,4.15.7,9.47,4.77,10.7,7.51C71.73,34.31,52.13,50,51.08,55c5.28-1.47,25.53-19.15,36.23-18.68,1.84,1.61,3,6.47,2.82,11-9.39,0-31.48,7.8-40.13,14.83H34S14.67,48.76,13.54,39Z" style="fill:#fff;stroke:#231815;stroke-miterlimit:10"/></svg>