<svg xmlns="http://www.w3.org/2000/svg" viewBox="0 0 100 100"><circle cx="50" cy="50" r="49" style="fill:#fff;stroke:#231815;stroke-miterlimit:10;stroke-width:2px"/><circle cx="50" cy="50" r="42" style="fill:#231815"/><path d="M50,47.27l20.45.24c.19-6.39-2-17.08-20.45-17.08" style="fill:#fff"/><path d="M50,47.27l20.45.24c.19-6.39-2-17.08-20.45-17.08" style="fill:none;stroke:#231815;stroke-miterlimit:10"/><path d="M50,47.27l-20.45.24c-.19-6.39,2-17.08,20.45-17.08" style="fill:#fff"/><path d="M50,47.27l-20.45.24c-.19-6.39,2-17.08,20.45-17.08" style="fill:none;stroke:#231815;stroke-miterlimit:10"/><path d="M49.91,82c2.37-5.13,10.49-16.81,19.4-23.85C73.11,55.19,78,54,81.12,53c0,0-8.87-11.07-31.21-11.07" style="fill:#fff"/><path d="M49.91,82c2.37-5.13,10.49-16.81,19.4-23.85C73.11,55.19,78,54,81.12,53c0,0-8.87-11.07-31.21-11.07" style="fill:none;stroke:#231815;stroke-miterlimit:10"/><path d="M50,82c-2.37-5.13-10.49-16.81-19.4-23.85-3.8-3-8.74-4.17-11.81-5.24,0,0,8.87-11.07,31.21-11.07" style="fill:#fff"/><path d="M50,82c-2.37-5.13-10.49-16.81-19.4-23.85-3.8-3-8.74-4.17-11.81-5.24,0,0,8.87-11.07,31.21-11.07" style="fill:none;stroke:#231815;stroke-miterlimit:10"/></svg>