<svg width="24" height="31" fill="none" xmlns="http://www.w3.org/2000/svg"><path d="M20.486 9.351c.11-5.99.07-5.507-5.715-5.474a8.311 8.311 0 0 0-.1.29c-1.755 5.987-1.753 12.9 0 18.884v.005c.032.1.068.198.1.285.113-.007 3.193.008 3.302-.002 2.635 0 2.444-1.97 2.444-2.62l-.041-2.839c-.126-2.326-.616-2.797-3.573-4.258h7.085C23.985 15.762 23.986 31 23.986 31c-1.67-3.165-1.668-3.918-6.181-3.916 0 0-4.717.044-5.99-.002a.878.878 0 0 1-.828-.633C8.853 20.047 8.644 7.596 10.927.764c.135-.409.528-.68.966-.68 5.442 0 11.923-1.307 12.092 6.353.031 1.175.005 3.46.01 4.626L20.486 9.35v.001zM5.95 22.113a46.692 46.692 0 0 1-2.364-4.236 51.704 51.704 0 0 0 2.364 4.236z" fill="#fff" /><path d="M9.538 27.065c.017.027-.022.05-.04.027-.837-1.05-2.34-3.025-3.547-4.979a52.076 52.076 0 0 1-2.454-4.422l-.093-.19c-.03-.061-.06-.123-.088-.185l-.08-.167C.846 12.096.3 8.36.063 6.677c-.025-.179-.045-.335-.059-.466-.034-.31.15-.61.459-.743l3.468-1.5c-.029.395-.054.862-.066 1.398-.021.944 0 2.101.104 3.456a45.37 45.37 0 0 0 .792 5.551c.012.06.026.12.037.181l.042.199.044.205c.863 3.982 3.229 9.829 4.654 12.106v.001z" fill="#FF3C3C"/><path d="M10.366 27.053c.01.029-.033.045-.046.017-.62-1.292-1.785-3.653-2.591-6.02a58.378 58.378 0 0 1-1.474-5.023l-.052-.218-.052-.222-.05-.216-.044-.195C4.73 9.277 4.975 5.136 5.097 3.292c.012-.198.026-.369.04-.513a.78.78 0 0 1 .614-.687l3.809-.848c-.114.414-.238.906-.363 1.474-.222 1-.448 2.237-.631 3.703a52.124 52.124 0 0 0-.385 6.083l-.001.202-.001.22v.228c.021 4.545.606 8.258 1.114 10.483.004.018.01.037.013.056.23.981.803 2.6 1.06 3.361z" fill="#FF3C3C"/></svg>