<svg xmlns="http://www.w3.org/2000/svg" viewBox="0 0 24 24"><path d="M14.43,10.23c.11,0,.23,0,.35-.18a.8.8,0,0,1,.77.46,17.33,17.33,0,0,1,1.81,4.07c.14.69.23,1.32-.1,1.67a6.19,6.19,0,0,1-.91.73c-.08.32,0,.44.29.42a3.07,3.07,0,0,1,1.09-.52,8.62,8.62,0,0,1,2.18-.11,6.35,6.35,0,0,1,1.67.44c.29.09.52-.1.38-.35-.66-.69-1.55-.94-1.86-1.86a30.82,30.82,0,0,0-2.8-6.9,8.75,8.75,0,0,1-.17-1.54c0-.46,0-.67-.49-.5a1.83,1.83,0,0,1-.87,0c-.82-.15-1.25-.13-2-.21-.16,0-.37.37-.18.5s.64.42.93.63a1.34,1.34,0,0,1,.35,1A7.87,7.87,0,0,1,14,9.27c-.1.13-.19.17-.21.3A.76.76,0,0,0,14,10a.57.57,0,0,0,.39.2ZM5.92,9.71c0,.21.91.73,1.11.27a1.85,1.85,0,0,0,.27-.43c.19-.44.15-.61.72-.34,1.94.92,3.47,6.94,3.61,8.55,0,.29.23.48.39.31.6-.54,1.18-1.09,1.77-1.63a.78.78,0,0,0,.33-.56,13.29,13.29,0,0,0-.72-1.61c-.68-1.36.11-2.07.21-3.37-.08-.37-.66-.92-.85-.69-.33.92-.64.92-.84.63C11,9.32,9.45,6.22,8.83,6.24a12.15,12.15,0,0,1-2.95,0c-.19,0-.47.38-.47.48.76.11,1.29.4,1.21,1.3a5.89,5.89,0,0,1-.7,1.73ZM2.07,17.25c-.17.23,0,.57.22.48A4.54,4.54,0,0,1,5.74,17c.24,0,.24-.52,0-.58A.62.62,0,0,1,5.18,16c-.23-1.34.31-2.9,1.38-4.74.21-.23-.82-.77-1-.5-.49,1.54-1,3-1.59,4.38a4.6,4.6,0,0,1-1.93,2.09Z" style="fill:#231815;stroke:#231815;stroke-miterlimit:10"/></svg>