<svg
  data-v-0dd9719b=""
  version="1.0"
  xmlns="http://www.w3.org/2000/svg"
  xmlns:xlink="http://www.w3.org/1999/xlink"
  width="60"
  height="60"
  preserveAspectRatio="xMidYMid meet"
  color-interpolation-filters="sRGB"
  style="margin: auto"
>
  <g
    data-v-0dd9719b=""
    fill="#133157"
    class="icon-text-wrapper icon-svg-group iconsvg"
  >
    <g class="iconsvg-imagesvg" transform="translate(0,0)">
      <g>
        <svg
          x="0"
          y="0"
          width="60"
          height="60"
          class="image-svg-svg primary"
          style="overflow: visible"
        >
          <svg
            xmlns="http://www.w3.org/2000/svg"
            xmlns:xlink="http://www.w3.org/1999/xlink"
            xmlns:serif="http://www.serif.com/"
            viewBox="1.999220609664917 1.9999654293060303 44.00065612792969 44.000030517578125"
            version="1.1"
            xml:space="preserve"
            x="0px"
            y="0px"
            fill-rule="evenodd"
            clip-rule="evenodd"
            stroke-linejoin="round"
            stroke-miterlimit="2"
          >
            <g transform="matrix(1,0,0,1,-77,-272)">
              <g>
                <g transform="matrix(3.81818,0,0,1.33333,-462.182,166.333)">
                  <path
                    d="M151.69,113.75L153,113.75C153.145,113.75 153.262,113.414 153.262,113L153.262,111.5C153.262,110.257 152.91,109.25 152.476,109.25L142.524,109.25C142.09,109.25 141.738,110.257 141.738,111.5C141.738,112.25 141.738,113 141.738,113C141.738,113.414 141.855,113.75 142,113.75L149.595,113.75C149.74,113.75 149.857,113.414 149.857,113C149.857,112.586 149.74,112.25 149.595,112.25L142.262,112.25C142.262,112.25 142.262,111.5 142.262,111.5C142.262,111.086 142.379,110.75 142.524,110.75C142.524,110.75 152.476,110.75 152.476,110.75C152.621,110.75 152.738,111.086 152.738,111.5L152.738,112.25C152.738,112.25 151.69,112.25 151.69,112.25C151.546,112.25 151.429,112.586 151.429,113C151.429,113.414 151.546,113.75 151.69,113.75Z"
                  ></path>
                </g>
                <g transform="matrix(2.18182,0,0,1.33333,-229.818,135.333)">
                  <path
                    d="M153.458,111.5C153.458,110.903 153.313,110.331 153.056,109.909C152.798,109.487 152.448,109.25 152.083,109.25C150.012,109.25 144.988,109.25 142.917,109.25C142.552,109.25 142.202,109.487 141.944,109.909C141.687,110.331 141.542,110.903 141.542,111.5C141.542,112.25 141.542,113 141.542,113C141.542,113.414 141.747,113.75 142,113.75L153,113.75C153.253,113.75 153.458,113.414 153.458,113L153.458,111.5ZM152.542,111.5L152.542,112.25C152.542,112.25 142.458,112.25 142.458,112.25C142.458,112.25 142.458,111.5 142.458,111.5C142.458,111.301 142.507,111.11 142.593,110.97C142.679,110.829 142.795,110.75 142.917,110.75L152.083,110.75C152.205,110.75 152.321,110.829 152.407,110.97C152.493,111.11 152.542,111.301 152.542,111.5Z"
                  ></path>
                </g>
                <g
                  transform="matrix(0.909091,-1.66997e-17,2.12982e-17,-1.33333,-47.0909,436.667)"
                >
                  <path
                    d="M154.1,111.5L154.1,113C154.1,113.414 153.608,113.75 153,113.75L142,113.75C141.392,113.75 140.9,113.414 140.9,113C140.9,113 140.9,112.25 140.9,111.5C140.9,110.903 141.248,110.331 141.867,109.909C142.485,109.487 143.325,109.25 144.2,109.25C146.117,109.25 148.883,109.25 150.8,109.25C151.675,109.25 152.515,109.487 153.133,109.909C153.752,110.331 154.1,110.903 154.1,111.5ZM151.9,111.5C151.9,111.301 151.784,111.11 151.578,110.97C151.372,110.829 151.092,110.75 150.8,110.75L144.2,110.75C143.908,110.75 143.628,110.829 143.422,110.97C143.216,111.11 143.1,111.301 143.1,111.5C143.1,111.5 143.1,112.25 143.1,112.25C143.1,112.25 151.9,112.25 151.9,112.25C151.9,112.25 151.9,111.5 151.9,111.5Z"
                  ></path>
                </g>
                <g
                  transform="matrix(0.909091,-1.66997e-17,2.12982e-17,-1.33333,-33.0909,436.667)"
                >
                  <path
                    d="M154.1,111.5L154.1,113C154.1,113.414 153.608,113.75 153,113.75L142,113.75C141.392,113.75 140.9,113.414 140.9,113C140.9,113 140.9,112.25 140.9,111.5C140.9,110.903 141.248,110.331 141.867,109.909C142.485,109.487 143.325,109.25 144.2,109.25C146.117,109.25 148.883,109.25 150.8,109.25C151.675,109.25 152.515,109.487 153.133,109.909C153.752,110.331 154.1,110.903 154.1,111.5ZM151.9,111.5C151.9,111.301 151.784,111.11 151.578,110.97C151.372,110.829 151.092,110.75 150.8,110.75L144.2,110.75C143.908,110.75 143.628,110.829 143.422,110.97C143.216,111.11 143.1,111.301 143.1,111.5C143.1,111.5 143.1,112.25 143.1,112.25C143.1,112.25 151.9,112.25 151.9,112.25C151.9,112.25 151.9,111.5 151.9,111.5Z"
                  ></path>
                </g>
                <g
                  transform="matrix(0.909091,1.66997e-17,2.12982e-17,1.33333,-47.0909,162.333)"
                >
                  <path
                    d="M154.1,111.5C154.1,110.903 153.752,110.331 153.133,109.909C152.515,109.487 151.675,109.25 150.8,109.25C148.883,109.25 146.117,109.25 144.2,109.25C143.325,109.25 142.485,109.487 141.867,109.909C141.248,110.331 140.9,110.903 140.9,111.5C140.9,112.25 140.9,113 140.9,113C140.9,113.414 141.392,113.75 142,113.75L153,113.75C153.608,113.75 154.1,113.414 154.1,113L154.1,111.5ZM151.9,111.5L151.9,112.25C151.9,112.25 143.1,112.25 143.1,112.25C143.1,112.25 143.1,111.5 143.1,111.5C143.1,111.301 143.216,111.11 143.422,110.97C143.628,110.829 143.908,110.75 144.2,110.75L150.8,110.75C151.092,110.75 151.372,110.829 151.578,110.97C151.784,111.11 151.9,111.301 151.9,111.5Z"
                  ></path>
                </g>
                <g
                  transform="matrix(0.909091,1.66997e-17,2.12982e-17,1.33333,-33.0909,162.333)"
                >
                  <path
                    d="M154.1,111.5C154.1,110.903 153.752,110.331 153.133,109.909C152.515,109.487 151.675,109.25 150.8,109.25C148.883,109.25 146.117,109.25 144.2,109.25C143.325,109.25 142.485,109.487 141.867,109.909C141.248,110.331 140.9,110.903 140.9,111.5C140.9,112.25 140.9,113 140.9,113C140.9,113.414 141.392,113.75 142,113.75L153,113.75C153.608,113.75 154.1,113.414 154.1,113L154.1,111.5ZM151.9,111.5L151.9,112.25C151.9,112.25 143.1,112.25 143.1,112.25C143.1,112.25 143.1,111.5 143.1,111.5C143.1,111.301 143.216,111.11 143.422,110.97C143.628,110.829 143.908,110.75 144.2,110.75L150.8,110.75C151.092,110.75 151.372,110.829 151.578,110.97C151.784,111.11 151.9,111.301 151.9,111.5Z"
                  ></path>
                </g>
                <g
                  transform="matrix(0.909091,1.66997e-17,2.12982e-17,1.33333,-19.0909,162.333)"
                >
                  <path
                    d="M154.1,111.5C154.1,110.903 153.752,110.331 153.133,109.909C152.515,109.487 151.675,109.25 150.8,109.25C148.883,109.25 146.117,109.25 144.2,109.25C143.325,109.25 142.485,109.487 141.867,109.909C141.248,110.331 140.9,110.903 140.9,111.5C140.9,112.25 140.9,113 140.9,113C140.9,113.414 141.392,113.75 142,113.75L153,113.75C153.608,113.75 154.1,113.414 154.1,113L154.1,111.5ZM151.9,111.5L151.9,112.25C151.9,112.25 143.1,112.25 143.1,112.25C143.1,112.25 143.1,111.5 143.1,111.5C143.1,111.301 143.216,111.11 143.422,110.97C143.628,110.829 143.908,110.75 144.2,110.75L150.8,110.75C151.092,110.75 151.372,110.829 151.578,110.97C151.784,111.11 151.9,111.301 151.9,111.5Z"
                  ></path>
                </g>
                <g transform="matrix(0.8,0,0,0.863636,16.2,42.1364)">
                  <path
                    d="M92.25,287C92.25,286.361 91.69,285.842 91,285.842L86,285.842C85.31,285.842 84.75,286.361 84.75,287L84.75,309C84.75,309.639 85.31,310.158 86,310.158L91,310.158C91.69,310.158 92.25,309.639 92.25,309L92.25,287ZM89.75,288.158L89.75,307.842C89.75,307.842 87.25,307.842 87.25,307.842C87.25,307.842 87.25,288.158 87.25,288.158L89.75,288.158Z"
                  ></path>
                </g>
                <g transform="matrix(0.8,0,0,0.863636,30.2,42.1364)">
                  <path
                    d="M92.25,287C92.25,286.361 91.69,285.842 91,285.842L86,285.842C85.31,285.842 84.75,286.361 84.75,287L84.75,309C84.75,309.639 85.31,310.158 86,310.158L91,310.158C91.69,310.158 92.25,309.639 92.25,309L92.25,287ZM89.75,288.158L89.75,307.842C89.75,307.842 87.25,307.842 87.25,307.842C87.25,307.842 87.25,288.158 87.25,288.158L89.75,288.158Z"
                  ></path>
                </g>
                <g transform="matrix(0.8,0,0,0.863636,44.2,42.1364)">
                  <path
                    d="M92.25,290.474C92.25,290.109 92.065,289.766 91.75,289.547L86.75,286.074C86.371,285.811 85.864,285.768 85.441,285.964C85.018,286.16 84.75,286.561 84.75,287L84.75,309C84.75,309.639 85.31,310.158 86,310.158L91,310.158C91.69,310.158 92.25,309.639 92.25,309L92.25,290.474ZM89.75,291.053L89.75,307.842C89.75,307.842 87.25,307.842 87.25,307.842C87.25,307.842 87.25,289.316 87.25,289.316L89.75,291.053Z"
                  ></path>
                </g>
                <path
                  d="M83.401,282.916L97.536,276.732C97.536,276.732 97.03,278.757 97.03,278.757C96.945,279.098 97.045,279.459 97.293,279.707L100.293,282.707C100.683,283.097 101.317,283.097 101.707,282.707C102.097,282.317 102.097,281.683 101.707,281.293L99.107,278.693C99.107,278.693 99.97,275.243 99.97,275.243C100.063,274.873 99.937,274.482 99.646,274.236C99.354,273.99 98.948,273.931 98.599,274.084L82.599,281.084C82.094,281.305 81.863,281.895 82.084,282.401C82.305,282.906 82.895,283.137 83.401,282.916Z"
                ></path>
                <g transform="matrix(1,0,0,1,80,293)">
                  <circle cx="33" cy="24" r="1"></circle>
                </g>
              </g>
            </g>
          </svg>
        </svg>
      </g>
    </g>
  </g>
  <defs v-gra="od"></defs>
</svg>
