<svg xmlns="http://www.w3.org/2000/svg" xmlns:xlink="http://www.w3.org/1999/xlink" version="1.1" height="1255">
    <symbol id="symbol-0" viewBox="000 0 100 100">
        <circle r="48.5" cy="50" cx="50" stroke-width="3" stroke="#0D0F0F" fill="none" />
        <path d="M23 52.428c0-9.787 2.061-18.813 6.191-27.072 5.117-10.236 12.123-15.355 21.012-15.355 8.797 0 15.666 4.359 20.605 13.064 4.127 7.186 6.191 15.537 6.191 25.051 0 9.881-2.064 18.814-6.191 26.803-5.031 10.058-12.035 15.081-21.011 15.081-8.531 0-15.305-4.307-20.336-12.926-4.308-7.361-6.461-15.576-6.461-24.646zm11.309-4.444c0 12.926 1.93 22.984 5.795 30.168 2.691 5.025 6.146 7.541 10.367 7.541 10.146 0 15.221-10.506 15.221-31.518 0-9.244-.809-17.059-2.422-23.434-2.785-10.504-7.498-15.76-14.145-15.76-9.879 0-14.816 10.15-14.816 30.443v2.56z" fill="#0D0F0F"/>
    </symbol>

    <symbol id="symbol-1" viewBox="000 0 100 100">
        <circle r="48.5" cy="50" cx="50" stroke-width="3" stroke="#0D0F0F" fill="none" />
        <path d="M55.685 11.001v64.108c0 7.671 3.226 11.504 9.687 11.504h1.684v4.388h-34.111v-4.388h2.141c6.247 0 9.369-3.833 9.369-11.504v-42.054c0-7.758-2.697-11.643-8.081-11.643h-3.429v-4.247h1.237c6.66 0 12.691-2.057 18.08-6.165l3.423.001z" fill="#0D0F0F"/>
    </symbol>

    <symbol id="symbol-2" viewBox="000 0 100 100">
        <circle r="48.5" cy="50" cx="50" stroke-width="3" stroke="#0D0F0F" fill="none" />
        <path d="M77.442 71.103l-5.896 19.898h-48.991v-4.254c2.38-2.652 7.595-8.001 15.646-16.053 4.849-4.852 9.649-9.972 14.407-15.371 2.378-2.651 4.21-4.942 5.487-6.862 2.836-4.114 4.255-8.32 4.255-12.624 0-4.204-1.301-7.912-3.908-11.112-2.607-3.204-5.97-4.808-10.09-4.808-8.871 0-15.823 5.998-20.854 17.98l-4.395-1.647c5.947-16.829 15.321-25.249 28.131-25.249 6.313 0 11.687 2.149 16.124 6.448 4.439 4.3 6.656 9.604 6.656 15.92 0 8.052-4.617 15.918-13.858 23.601l-9.604 7.956c-6.131 5.127-11.212 9.929-15.231 14.412-.28.273-.826.916-1.647 1.921h25.521c3.932 0 6.907-.776 8.918-2.335 1.735-1.372 3.434-3.98 5.08-7.821h4.249z" fill="#0D0F0F"/>
    </symbol>

    <symbol id="symbol-3" viewBox="000 0 100 100">
        <circle r="48.5" cy="50" cx="50" stroke-width="3" stroke="#0D0F0F" fill="none" />
        <path d="M39.561 53.562l-2.018-3.771 1.337-.807c5.174-3.145 9.903-6.33 14.189-9.563 4.284-3.232 6.427-6.915 6.427-11.048 0-2.778-1.029-5.112-3.085-6.998-2.061-1.892-4.472-2.834-7.244-2.834-6.439 0-13.234 4.001-20.392 11.991l-3.354-2.559c7.453-11.316 16.566-16.974 27.341-16.974 4.757 0 8.795 1.168 12.122 3.503 3.771 2.607 5.655 6.153 5.655 10.642 0 3.229-1.349 6.374-4.039 9.426-1.528 1.798-4.226 4.132-8.083 7.004l-1.616 1.213c.718-.089 1.572-.134 2.56-.134 4.937 0 8.998 1.887 12.188 5.657 3.188 3.771 4.783 8.17 4.783 13.196 0 8.532-3.595 15.667-10.774 21.416-6.647 5.387-14.325 8.077-23.032 8.077-7.991 0-14.276-1.748-18.858-5.249l2.429-3.371c5.387 2.608 10.279 3.907 14.681 3.907 6.373 0 12.051-2.109 17.032-6.33 4.988-4.22 7.475-9.469 7.475-15.755 0-4.132-1.255-7.655-3.77-10.576-2.516-2.915-5.793-4.374-9.832-4.374-3.684.002-7.723 1.437-12.122 4.311z" fill="#0D0F0F"/>
    </symbol>

    <symbol id="symbol-4" viewBox="000 0 100 100">
        <circle r="48.5" cy="50" cx="50" stroke-width="3" stroke="#0D0F0F" fill="none" />
        <path d="M64.27 68.359v6.723c0 7.684 2.695 11.525 8.094 11.525h2.33v4.394h-32.658v-4.394h2.607c5.303 0 7.961-3.798 7.961-11.392v-6.856h-32.795v-6.861l34.578-50.497h9.883v51.592h.82c3.383 0 5.852-2.608 7.408-7.816h4.115l-1.92 13.583-10.423-.001zm-11.666-5.766v-41.458l-27.893 41.458h27.893z" fill="#0D0F0F"/>
    </symbol>

    <symbol id="symbol-5" viewBox="000 0 100 100">
        <circle r="48.5" cy="50" cx="50" stroke-width="3" stroke="#0D0F0F" fill="none" />
        <path d="M34.957 12.352h28.941c3.754 0 5.988-.45 6.703-1.352h4.156l-2.422 10.925h-35.314l-3.408 15.789c5.127-2.07 9.668-3.104 13.625-3.104 7.729 0 14.25 2.587 19.559 7.758 5.305 5.171 7.961 11.622 7.961 19.357 0 8.996-3.465 16.237-10.394 21.722-6.385 5.039-14.162 7.553-23.338 7.553-5.395 0-10.66-.808-15.785-2.426l1.617-4.046c4.32 1.169 8.141 1.751 11.469 1.751 6.654 0 12.477-2.18 17.473-6.544 4.99-4.358 7.488-9.826 7.488-16.392 0-5.665-1.844-10.32-5.533-13.959-3.689-3.646-8.365-5.468-14.033-5.468-5.213 0-10.07 1.8-14.568 5.396l-2.701-.538 8.504-36.422z" fill="#0D0F0F"/>
    </symbol>

    <symbol id="symbol-6" viewBox="000 0 100 100">
        <circle r="48.5" cy="50" cx="50" stroke-width="3" stroke="#0D0F0F" fill="none" />
        <path d="M36.58 45.675c5.934-5.577 11.91-8.364 17.939-8.364 6.564 0 11.828 2.606 15.787 7.821 3.682 4.77 5.529 10.521 5.529 17.27 0 7.376-2.158 13.849-6.475 19.425-4.768 6.114-10.703 9.174-17.807 9.174-8.547 0-15.381-3.69-20.504-11.063-4.59-6.477-6.883-14.167-6.883-23.071 0-9.44 2.607-18.141 7.824-26.101 5.213-7.958 12.184-13.602 20.906-16.928 4.947-1.888 10.168-2.839 15.65-2.839v4.184c-11.691.631-20.414 5.308-26.174 14.031-2.958 4.501-4.895 9.983-5.792 16.461zm-.812 8.092c-.086 1.618-.133 3.238-.133 4.857 0 6.203 1.078 11.96 3.236 17.269 2.785 6.922 6.883 10.385 12.279 10.385 4.674 0 8.18-2.381 10.52-7.151 1.797-3.684 2.697-8.135 2.697-13.355 0-5.571-.857-10.342-2.563-14.299-2.34-5.396-5.936-8.092-10.793-8.092-5.933-.001-11.017 3.464-15.243 10.386z" fill="#0D0F0F"/>
    </symbol>

    <symbol id="symbol-7" viewBox="000 0 100 100">
        <circle r="48.5" cy="50" cx="50" stroke-width="3" stroke="#0D0F0F" fill="none" />
        <path d="M53.494 91h-11.643v-1.238c0-7.396 2.328-16.659 6.98-27.808 7.035-16.799 13.52-29.673 19.453-38.624l.822-1.232h-27.256c-3.93 0-6.92.819-8.975 2.463-2.059 1.645-3.582 4.387-4.586 8.222h-4.52l4.926-21.782h2.881c1.734.914 4.742 1.371 9.041 1.371h35.609v6.165c-1.275 1.829-2.918 4.75-4.926 8.768-3.838 7.485-7.352 16.208-10.553 26.163-4.743 14.702-7.163 27.209-7.253 37.532z" fill="#0D0F0F"/>
    </symbol>

    <symbol id="symbol-8" viewBox="000 0 100 100">
        <circle r="48.5" cy="50" cx="50" stroke-width="3" stroke="#0D0F0F" fill="none" />
        <path d="M40.965 50.463l-1.746-1.211c-5.119-3.502-8.492-6.33-10.107-8.489-2.066-2.691-3.096-5.83-3.096-9.426 0-6.105 2.557-11.087 7.678-14.949 4.758-3.59 10.281-5.388 16.568-5.388 5.922 0 11.18 1.573 15.756 4.713 5.203 3.503 7.813 8.127 7.813 13.876 0 7.004-4.898 12.66-14.682 16.967 11.131 5.388 16.699 12.884 16.699 22.492 0 6.914-2.646 12.389-7.949 16.434-4.753 3.682-10.729 5.518-17.909 5.518-6.734 0-12.525-1.703-17.377-5.119-5.568-3.856-8.348-8.976-8.348-15.349 0-6.373 2.963-11.63 8.889-15.761 1.616-1.074 4.223-2.51 7.811-4.308zm4.572 1.912c-8.08 3.677-12.111 9.466-12.111 17.361 0 5.113 1.635 9.218 4.916 12.314 3.277 3.097 7.475 4.643 12.594 4.643 4.574 0 8.461-1.232 11.646-3.695 3.186-2.464 4.781-5.891 4.781-10.28 0-6.626-4.367-12.001-13.098-16.122l-8.728-4.221zm9.031-7.973c7.088-3.141 10.641-7.854 10.641-14.139 0-4.313-1.506-7.766-4.51-10.375-3.012-2.603-6.715-3.906-11.113-3.906-3.684 0-6.869.991-9.563 2.964-2.965 2.154-4.443 5.03-4.443 8.62 0 4.4 2.063 7.948 6.195 10.643.805.537 4.396 2.286 10.775 5.25l2.018.943z" fill="#0D0F0F"/>
    </symbol>

    <symbol id="symbol-9" viewBox="000 0 100 100">
        <circle r="48.5" cy="50" cx="50" stroke-width="3" stroke="#0D0F0F" fill="none" />
        <path d="M63.402 56.524c-5.922 5.567-11.898 8.353-17.91 8.353-6.555 0-11.809-2.604-15.758-7.814-3.684-4.758-5.523-10.507-5.523-17.241 0-7.272 2.152-13.777 6.461-19.526 4.672-6.199 10.555-9.296 17.648-9.296 8.622 0 15.489 3.728 20.605 11.181 4.582 6.554 6.867 14.319 6.867 23.302 0 12.746-4.224 23.498-12.655 32.257-8.441 8.752-18.993 13.174-31.653 13.261v-4.175c3.859-.176 6.953-.626 9.297-1.344 12.922-3.951 20.469-13.601 22.621-28.958zm.813-8.082c.086-1.706.129-3.322.129-4.846 0-6.285-1.074-12.034-3.23-17.24-2.875-6.916-7-10.374-12.386-10.374-4.676 0-8.125 2.385-10.375 7.141-1.797 3.683-2.691 8.126-2.691 13.334 0 5.566.852 10.324 2.559 14.275 2.332 5.387 5.926 8.083 10.777 8.083 5.92 0 10.99-3.458 15.217-10.373z" fill="#0D0F0F"/>
    </symbol>

     <symbol id="symbol-10" viewBox="000 0 100 100">
        <circle r="48.5" cy="50" cx="50" stroke-width="3" stroke="#0D0F0F" fill="none" />
        <path d="M35.306 19.633v50.439c0 5.998 2.567 8.998 7.693 8.998h1.305v3.42h-26.866v-3.42h1.727c4.931 0 7.4-3 7.4-8.998v-33.08c0-6.08-2.155-9.123-6.467-9.123h-2.66v-3.424h1.016c5.238 0 9.969-1.604 14.191-4.813l2.661.001zm9.76 33.328c0-7.857 1.646-15.082 4.94-21.668 4.142-8.193 9.805-12.293 16.982-12.293 6.931 0 12.422 3.508 16.476 10.516 3.296 5.748 4.945 12.381 4.945 19.898 0 7.859-1.648 15.039-4.945 21.545-4.141 8.029-9.757 12.041-16.853 12.041-6.842 0-12.293-3.465-16.352-10.395-3.464-5.828-5.193-12.376-5.193-19.644zm9.122-3.676c0 6.68.718 12.676 2.156 17.996 2.197 8.195 5.785 12.295 10.771 12.295 8.111 0 12.165-8.447 12.165-25.346 0-20.869-4.394-31.301-13.182-31.301-7.941 0-11.912 8.105-11.912 24.328l.002 2.028z" fill="#0D0F0F"/>
    </symbol>

    <symbol id="symbol-X" viewBox="000 0 100 100">
        <circle r="48.5" cy="50" cx="50" stroke-width="3" stroke="#0D0F0F" fill="none" />
        <path d="M56.641 80v-3.297c4.703-.521 7.059-1.887 7.059-4.082 0-1.582-.629-3.164-1.883-4.746l-13.008-16.01-10.273 12.111c-2.57 2.973-3.863 5.432-3.863 7.354 0 2.976 2.354 4.771 7.07 5.387v3.283h-25.051v-3.287c3.172-.609 5.867-1.752 8.102-3.416 1.539-1.223 3.637-3.371 6.285-6.438l15.449-17.915-17.867-21.66c-2.315-2.797-4.121-4.633-5.401-5.51-1.724-1.225-4.121-2.012-7.203-2.361v-3.413h29.539v3.285c-4.453.877-6.676 2.234-6.676 4.074 0 1.23.594 2.586 1.793 4.072l11.816 14.322 9.508-11.691c1.711-2.104 2.57-3.941 2.57-5.52 0-2.629-2.105-4.34-6.301-5.129v-3.413h23.512v3.291c-2.055.439-3.473.834-4.23 1.188-2.57 1.229-6.496 4.869-11.797 10.92-.852.969-4.453 5.393-10.789 13.285l18.977 23.363c4.113 5.078 8.305 7.971 12.586 8.666v3.287h-29.924z" fill="#0D0F0F"/>
    </symbol>

    <symbol id="symbol-Y" viewBox="000 0 100 100">
        <circle r="48.5" cy="50" cx="50" stroke-width="3" stroke="#0D0F0F" fill="none" />
        <path d="M54.91 65.695c0 3.988.654 6.793 1.963 8.414 1.309 1.621 3.521 2.431 6.639 2.431l.748-.095v3.555h-28.796v-3.553h.934c3.117.063 5.33-.717 6.639-2.338 1.309-1.619 1.963-4.394 1.963-8.319v-12.53l-18.325-26.833-1.964-2.618c-.561-.748-1.091-1.339-1.589-1.776-.811-.686-1.668-1.169-2.571-1.45-.904-.281-2.073-.514-3.506-.701v-3.647h27.955v3.553c-2.805.25-4.708.64-5.703 1.168-.998.53-1.496 1.512-1.496 2.945 0 .624.124 1.248.373 1.87.249.624.592 1.278 1.029 1.963l14.212 20.569 10.378-15.24c.996-1.371 1.713-2.555 2.15-3.553.435-.996.715-1.931.841-2.804v-.749c0-1.931-.53-3.366-1.589-4.3-1.06-.936-2.899-1.527-5.516-1.776v-3.647h23.093v3.553c-.748.125-1.435.296-2.056.514-.624.219-1.216.515-1.777.889-.998.561-2.026 1.449-3.085 2.665-1.061 1.215-2.337 2.915-3.833 5.096l-17.11 24.309v12.436h-.001v-.001z" fill="#0D0F0F"/>
    </symbol>

    <symbol id="symbol-Z" viewBox="000 0 100 100">
        <circle r="48.5" cy="50" cx="50" stroke-width="3" stroke="#0D0F0F" fill="none" />
        <path d="M74.355 79.999h-53.76v-2.711l42.635-57.22h-18.979c-3.118.063-5.517.391-7.2.981-1.683.594-3.242 1.73-4.675 3.413-.125.126-.233.25-.327.374-.093.126-.203.25-.327.373-.25.375-.483.702-.702.982-.219.28-.42.577-.607.889-.063.188-.156.374-.28.561l-.374.562c-.126.374-.281.765-.467 1.168-.188.406-.407.889-.654 1.449l-3.367-.094v-14.491h51.049v2.524l-43.007 57.406h18.605c2.805.063 5.033 0 6.685-.188 1.65-.187 3.193-.59 4.628-1.213l.514-.188.421-.188c.873-.436 1.714-.935 2.524-1.496.809-.561 1.62-1.215 2.431-1.963.561-.562 1.122-1.168 1.683-1.822.561-.655 1.153-1.388 1.777-2.197l2.431-3.461h3.552l-4.209 16.55z" fill="#0D0F0F"/>
    </symbol>

    <symbol id="symbol-W" viewBox="000 0 100 100">
        <circle r="48.5" cy="50" cx="50" stroke-width="3" stroke="#89723E" fill="none" />
        <path d="M97.691 57.064c-6.561-3.699-10.768-5.551-12.617-5.551-1.344 0-2.395 1.032-3.154 3.092-.758 2.063-2.27 3.09-4.541 3.09-.926 0-2.818-.336-5.678-1.008-1.598 2.44-2.398 3.996-2.398 4.668 0 .926.689 2.016 2.064 3.281 1.375 1.262 2.535 1.891 3.482 1.891.602 0 1.416-.125 2.449-.379 1.031-.25 1.721-.377 2.064-.377 1.033 0 1.547 1.893 1.547 5.678 0 3.617-.84 9.168-2.523 16.654-2.188-8.58-4.5-12.871-6.938-12.871-.338 0-1.031.252-2.082.76-1.053.502-1.83.754-2.334.754-2.438 0-4.625-2.227-6.561-6.688-3.869.59-5.805 2.567-5.805 5.934 0 1.684.777 3.027 2.336 4.035 1.553 1.008 2.334 1.727 2.334 2.145 0 2.273-3.324 5.764-9.969 10.473-3.531 2.523-5.973 4.289-7.316 5.297 1.174-1.512 2.352-3.487 3.533-5.928 1.344-2.775 2.018-4.92 2.018-6.436 0-.84-.967-2.02-2.902-3.533-1.936-1.512-2.9-3.111-2.9-4.793 0-1.428.502-3.193 1.512-5.299-1.094-1.262-2.395-1.895-3.91-1.895-3.365 0-5.045 1.096-5.045 3.28v3.406c.082 2.776-2.02 4.164-6.311 4.164-3.279 0-8.791-.759-16.527-2.271 8.748-2.188 13.121-4.711 13.121-7.57 0 .336-.168-.672-.504-3.028-.338-2.604 1.514-4.961 5.551-7.063-.758-3.867-2.773-5.806-6.057-5.806-.504 0-1.432.884-2.775 2.647-1.346 1.771-2.607 2.652-3.783 2.652-2.02 0-4.629-2.186-7.822-6.563-1.516-2.184-3.83-5.424-6.941-9.715 1.934 1.012 3.869 2.02 5.805 3.031 2.523 1.176 4.541 1.766 6.057 1.766 1.178 0 2.334-1.031 3.469-3.092 1.135-2.061 2.629-3.092 4.479-3.092.254 0 1.936.504 5.047 1.516 1.596-2.439 2.398-4.248 2.398-5.426 0-1.01-.611-2.166-1.83-3.471-1.221-1.303-2.334-1.955-3.344-1.955-.422 0-1.072.125-1.957.379-.881.252-1.533.379-1.953.379-1.516 0-2.273-1.893-2.273-5.678 0-1.01.969-6.77 2.904-17.285-.086 1.26.461 3.617 1.639 7.064 1.43 4.207 3.111 6.309 5.049 6.309.334 0 1.008-.252 2.018-.758 1.008-.504 1.807-.754 2.396-.754 1.934 0 3.531 1.094 4.795 3.277l1.893 3.406c1.766 0 3.238-.629 4.414-1.891 1.178-1.262 1.768-2.777 1.768-4.543 0-1.85-.777-3.26-2.334-4.227-1.559-.967-2.336-1.703-2.336-2.207 0-1.768 2.777-4.752 8.328-8.958 4.457-3.363 7.359-5.34 8.707-5.93-3.617 4.879-5.426 8.451-5.426 10.724 0 1.178.713 2.441 2.145 3.785 1.766 1.598 2.775 2.734 3.027 3.406.84 1.938.756 4.586-.252 7.949 2.271 1.6 3.994 2.396 5.174 2.396 2.436 0 3.658-1.264 3.658-3.785 0-.252-.105-1.051-.314-2.396-.213-1.344-.273-2.102-.191-2.271.336-1.178 2.65-1.768 6.939-1.768 2.691 0 8.283.758 16.781 2.273-1.852.504-4.627 1.26-8.326 2.27-3.365 1.01-5.049 2.145-5.049 3.406 0 .59.209 1.598.631 3.027.42 1.432.633 2.48.633 3.156 0 1.176-.758 2.27-2.271 3.277l-4.291 3.031c1.01 1.852 1.682 2.945 2.02 3.279.84 1.008 1.975 1.514 3.406 1.514 1.01 0 1.934-.883 2.775-2.648.84-1.768 2.188-2.65 4.037-2.65 2.27 0 4.838 2.104 7.697 6.311 1.593 2.36 4.075 5.933 7.44 10.727zm-28.007-7.316c0-5.381-1.979-10.051-5.932-14.006-3.953-3.953-8.621-5.93-14.004-5.93-5.469 0-10.18 1.957-14.131 5.869-3.953 3.91-5.973 8.6-6.055 14.066-.086 5.383 1.912 10.03 5.992 13.938 4.08 3.912 8.811 5.869 14.193 5.869 5.719 0 10.492-1.873 14.318-5.615 3.83-3.74 5.701-8.47 5.619-14.191zm-1.893 0c0 5.131-1.725 9.381-5.174 12.74-3.451 3.367-7.74 5.049-12.869 5.049-4.963 0-9.211-1.723-12.742-5.174-3.531-3.445-5.299-7.652-5.299-12.615 0-4.877 1.785-9.064 5.359-12.553 3.578-3.49 7.803-5.238 12.682-5.238 4.877 0 9.104 1.766 12.68 5.301 3.574 3.533 5.363 7.695 5.363 12.49z" fill="#89723E"/>
    </symbol>

    <symbol id="symbol-U" viewBox="000 0 100 100">
        <circle r="48.5" cy="50" cx="50" stroke-width="3" stroke="#0172BB" fill="none" />
        <path d="M67.488 83.719c-4.787 4.871-10.684 7.307-17.688 7.307-7.861 0-14.098-2.69-18.711-8.073-4.359-5.127-6.537-11.662-6.537-19.606 0-8.543 3.717-18.286 11.15-29.224 6.064-8.969 13.199-16.83 21.402-23.58-1.197 5.469-1.793 9.355-1.793 11.662 0 5.299 1.664 10.467 4.996 15.508 4.102 5.98 7.219 10.426 9.357 13.328 3.332 5.043 4.998 9.955 4.998 14.737.002 7.093-2.391 13.074-7.174 17.941zm-.129-27.362c-1.281-2.861-2.777-4.762-4.486-5.703.256.514.385 1.24.385 2.18 0 1.795-.512 4.357-1.539 7.689l-1.664 5.127c0 2.99 1.492 4.486 4.484 4.486 3.16 0 4.742-2.095 4.742-6.281 0-2.134-.64-4.632-1.922-7.498z" fill="#0172BB"/>
    </symbol>

    <symbol id="symbol-B" viewBox="000 0 100 100">
        <circle r="48.5" cy="50" cx="50" stroke-width="3" stroke="#281C1C" fill="none" />
        <path d="M90.695 49.619c0 5.518-2.008 9.281-6.02 11.287-1.172.586-4.85 1.379-11.037 2.383-4.012.67-6.018 2.217-6.018 4.639v10.158c0 .422.125 1.715.375 3.889l.377 4.014c0 1.255-.293 3.306-.879 6.146-1.588.334-3.428.709-5.518 1.132-.67-2.511-1.004-4.224-1.004-5.146 0-.416.105-1.045.313-1.882.207-.834.316-1.461.316-1.883 0-.58-.52-2.213-1.559-4.887h-1.945c-.258.418-.344.961-.26 1.629.334 1.422.459 2.633.377 3.637-1.422 1.004-3.387 2.341-5.895 4.013-.586-.166-.793-.25-.629-.25v-8.904c-.164-.416-.584-.581-1.254-.502h-1.504l-1.504 11.787c-1.174.084-2.592.084-4.264 0-.588-2.758-1.631-6.853-3.135-12.289h-1.004c-.922 2.929-1.422 4.519-1.506 4.769 0 .334.104.981.314 1.942.207.962.313 1.609.313 1.943 0 .25-.084.877-.25 1.881l-.377 3.01c-.168.166-.377.25-.627.25-2.508 0-4.182-.627-5.016-1.879-.836-1.256-1.172-3.012-1.004-5.271l1.004-15.047c0-.252.082-.586.25-1.004.164-.418.25-.711.25-.877 0-.67-.711-2.008-2.131-4.014-.248-.082-1.549-.377-3.887-.879-1.424-.334-4.225-.918-8.402-1.756-5.771-1.084-8.654-5.725-8.654-13.92 0-12.207 5.018-22.365 15.051-30.475.414 2.258 1.127 5.266 2.129 9.029.754.17 2.385.545 4.891 1.129.504.168 3.053 1.088 7.652 2.76-2.344-1.422-5.393-3.719-9.156-6.898-1.422-1.672-2.133-4.471-2.133-8.4 0-.92 1.59-2.008 4.768-3.264 2.84-1.17 4.975-1.836 6.396-2.006 4.514-.582 7.984-.879 10.41-.879 10.449 0 18.891 2.678 25.328 8.029-2.088 2.426-5.684 5.014-10.783 7.773 2.008.084 4.934-.707 8.779-2.383 3.844-1.67 5.475-2.508 4.891-2.508.668 0 2.008 1.34 4.014 4.014 1.504 2.006 2.715 3.807 3.637 5.391 2.674 4.768 4.471 9.908 5.393 15.426 0 1.926.041 3.305.125 4.139v1.004h.002zm-48.031 2.258c0-3.594-1.568-7.002-4.703-10.223-3.137-3.219-6.502-4.826-10.096-4.826-3.178 0-5.977 1.348-8.402 4.039-2.426 2.693-3.637 5.682-3.637 8.963 0 2.859 1.379 4.713 4.139 5.553 1.756.506 4.219.801 7.398.883h6.898c5.598.084 8.403-1.379 8.403-4.389zm13.668 15.553v-3.889c-.584-1.086-1.17-2.215-1.754-3.387-.502-1.674-1.422-4.014-2.76-7.025l-1.381 14.674c0 1.172-.25 1.756-.752 1.756-.334 0-.584-.082-.752-.248-.586-8.863-.879-12.709-.879-11.541v-4.387c-.168-.254-.375-.379-.625-.379-2.844 2.93-4.264 7.652-4.264 14.172 0 3.596.33 5.811 1.002 6.648.67-.166 1.422-.459 2.258-.877.334-.168 1.295-.252 2.887-.252 1.584 0 3.51.502 5.766 1.504.836 0 1.254-2.256 1.254-6.769zm28.344-17.475c0-3.367-1.254-6.375-3.762-9.025-2.51-2.648-5.395-3.975-8.652-3.975-3.512 0-6.795 1.607-9.846 4.826-3.053 3.219-4.578 6.584-4.578 10.096 0 2.928 1.42 4.389 4.264 4.389h14.422c5.433-.082 8.152-2.186 8.152-6.311z" fill="#281C1C"/>
    </symbol>

    <symbol id="symbol-R" viewBox="000 0 100 100">
        <circle r="48.5" cy="50" cx="50" stroke-width="3" stroke="#FD2302" fill="none" />
        <path d="M91.965 66.617c-3.736 8.912-11.16 13.367-22.275 13.367-2.037 0-4.246.254-6.621.762-3.564.764-5.346 1.828-5.346 3.186 0 .424.295.91.891 1.463.592.553 1.104.826 1.527.826-2.123 0-.68.064 4.326.191 5.008.127 8.148.191 9.422.191-7.383 4.326-19.732 6.319-37.043 5.981-5.688-.084-10.566-2.588-14.639-7.51-3.992-4.669-5.984-9.888-5.984-15.658 0-6.108 2.057-11.308 6.176-15.595 4.113-4.282 9.229-6.427 15.338-6.427 1.357 0 3.16.297 5.41.891 2.248.594 3.756.891 4.518.891 3.139 0 7.045-1.293 11.713-3.883 4.666-2.588 6.875-3.883 6.621-3.883-.85 8.912-3.82 14.896-8.914 17.948-3.648 2.123-5.473 4.201-5.473 6.236 0 1.273.764 2.293 2.291 3.057 1.188.595 2.502.892 3.945.892 2.207 0 4.371-1.356 6.494-4.071 2.119-2.718 3.055-5.177 2.801-7.386-.254-2.545-.084-5.603.51-9.164.168-1.02.783-2.27 1.844-3.754 1.061-1.486 2.016-2.398 2.865-2.738 0 .762-.275 2.037-.828 3.818-.553 1.781-.826 3.1-.826 3.947 0 1.867.508 3.309 1.527 4.326 1.525-.592 2.883-2.502 4.074-5.729 1.016-2.459 1.609-4.836 1.781-7.127-3.566-.17-6.982-1.781-10.248-4.838-3.268-3.057-4.9-6.365-4.9-9.928 0-.594.082-1.188.256-1.783.508.764 1.271 1.953 2.289 3.564 1.443 2.121 2.547 3.182 3.313 3.182 1.016 0 1.525-1.061 1.525-3.182 0-2.715-.723-5.176-2.164-7.383-1.613-2.631-3.693-3.947-6.238-3.947-1.189 0-2.971.637-5.344 1.91-2.379 1.271-4.543 1.91-6.492 1.91-.596 0-3.229-.766-7.895-2.293 8.23-1.355 12.348-2.586 12.348-3.691 0-2.885-5.645-4.838-16.93-5.855-1.105-.084-3.141-.254-6.111-.51.338-.424 2.758-.891 7.258-1.4 3.818-.422 6.492-.637 8.018-.637 20.197 0 33.012 9.805 38.443 29.408.934-.773 1.402-2.066 1.402-3.871 0-2.324-.68-5.25-2.037-8.777-.512-1.375-1.318-3.441-2.42-6.193 6.957 8.867 10.439 17.27 10.439 25.199 0 4.178-.979 7.973-2.93 11.381-1.27 2.303-3.65 5.244-7.127 8.826-3.48 3.58-5.857 6.352-7.131 8.313 4.668-1.271 7.725-2.248 9.168-2.928 3.223-1.44 6.15-3.606 8.783-6.492 0 1.106-.467 2.762-1.4 4.967zm-55.502-50.025c0 1.525-.85 2.502-2.545 2.926l-3.311.51c-1.189.594-2.928 2.928-5.219 7-.256-1.271-.637-3.053-1.146-5.346-.764.086-2.035.764-3.818 2.037-.764.594-1.996 1.484-3.693 2.672.512-3.055 2.207-6.148 5.094-9.293 3.055-3.477 6.025-5.217 8.91-5.217 3.818 0 5.728 1.572 5.728 4.711zm22.15 11.709c0 1.443-.785 2.654-2.355 3.629-1.57.977-3.119 1.465-4.646 1.465-2.037 0-3.863-1.146-5.473-3.438-1.955-2.801-3.947-4.625-5.984-5.477.424-.422.934-.635 1.529-.635.764 0 2.055.594 3.881 1.781 1.824 1.189 2.99 1.783 3.502 1.783.424 0 1.123-.594 2.1-1.783.975-1.188 2.057-1.781 3.246-1.781 2.8.001 4.2 1.487 4.2 4.456z" fill="#FD2302"/>
    </symbol>

    <symbol id="symbol-G" viewBox="000 0 100 100">
        <circle r="48.5" cy="50" cx="50" stroke-width="3" stroke="#027920" fill="none" />
        <path d="M93.762 56.225c0 1.668-.645 3.164-1.936 4.498-1.289 1.332-2.77 1.998-4.436 1.998-2.662 0-4.623-1.25-5.869-3.748l-5.871-.25c-1.252 0-3.709.543-7.371 1.625-3.914 1.082-6.164 1.957-6.746 2.623-.916.998-1.664 3.332-2.248 6.996-.502 2.998-.748 5.205-.748 6.621 0 2.246.352 3.893 1.061 4.934.709 1.041 2.166 1.916 4.371 2.623 2.205.707 3.561 1.104 4.061 1.187.332 0 .873-.041 1.625-.125h1.498c1.08 0 2.205.17 3.373.5 1.666.5 2.375 1.166 2.125 2-1.168-.166-3.207.084-6.121.75l3.496 1.748c0 1-1.416 1.498-4.246 1.498-.752 0-1.771-.166-3.063-.498-1.291-.336-2.145-.5-2.559-.5h-1.625c-.082.832-.334 2.08-.75 3.746-1.418-.084-3.08-.918-4.996-2.498-1.918-1.58-3.123-2.373-3.621-2.373-.502 0-1.211.793-2.125 2.373-.918 1.58-1.375 2.664-1.375 3.248-1.082-.584-1.996-1.668-2.75-3.248-.332-1.084-.707-2.166-1.121-3.248-.832.084-2.375 1.834-4.621 5.248h-.627c-.166-.252-.795-2-1.873-5.248-2.582-.832-4.996-1.248-7.246-1.248-1.082 0-2.748.25-4.996.748l-3.496-.248c.498-.5 1.955-1.457 4.371-2.873 2.83-1.666 4.996-2.5 6.496-2.5.246 0 .578.043 1 .125.414.086.75.125 1 .125.578 0 1.518-.312 2.809-.938 1.291-.623 2.039-1.186 2.246-1.684.211-.504.316-1.793.316-3.875 0-4.746-1.25-8.285-3.75-10.617-2.168-2.082-5.746-3.58-10.744-4.498-1.332 4.746-5.08 7.123-11.24 7.123-2 0-3.998-1.207-5.996-3.623-1.996-2.416-2.996-4.623-2.996-6.621 0-3.082 1.287-5.621 3.869-7.623-2.08-2.162-3.121-4.369-3.121-6.617 0-2.084.643-3.914 1.936-5.5 1.291-1.578 2.977-2.496 5.059-2.748-.166-2.662.707-4.496 2.623-5.496-.916-.914-1.373-2.537-1.373-4.869 0-2.748.916-5.039 2.748-6.871 1.83-1.832 4.121-2.75 6.869-2.75 3 0 5.457 1.045 7.371 3.125 2.416-8.244 7.621-12.367 15.613-12.367 4.164 0 7.828 1.666 10.994 4.998 1.166 1.248 1.748 1.916 1.748 1.996-1 0-.498-.188 1.5-.561 1.996-.375 3.453-.563 4.373-.563 3.246 0 6.119 1.207 8.619 3.623 2.164 2.166 3.664 4.912 4.498 8.244.58.084 1.498.332 2.748.748 1.83.92 2.748 2.498 2.748 4.748 0 .418-.336 1.209-1 2.373 5.328 2.998 7.994 7.162 7.994 12.492 0 1.498-.582 3.584-1.748 6.247 2.166 1.247 3.246 3.081 3.246 5.495zm-51.467 5.496v-1.623c0-1.914-.936-3.664-2.809-5.246-1.875-1.582-3.77-2.373-5.684-2.373-2.334 0-4.496.541-6.496 1.621 4.413-.248 9.411 2.293 14.989 7.621zm-2.246-15.489c-1.25-1.418-2.332-2.875-3.25-4.373-3.498.916-5.246 1.957-5.246 3.121 1-.08 2.457.105 4.371.564 1.914.459 3.291.688 4.125.688zm7.621-3.873v-5.496c-2-.332-3.211-.5-3.623-.5v1.873l3.623 4.123zm16.238-3.498c-1-.416-2.875-1.25-5.621-2.498v10.742c3.912-2.25 5.785-4.998 5.621-8.244zm6.867 14.741l-2.746-3.373c-1.664 1.167-3.352 2.354-5.061 3.561-1.709 1.207-3.186 2.563-4.432 4.06 3.747-2.002 7.829-3.414 12.239-4.248z" fill="#027920"/>
    </symbol>

    <symbol id="symbol-C" viewBox="000 0 100 100">
        <circle r="48.5" cy="50" cx="50" stroke-width="3" stroke="#0D0F0F" fill="none" />
        <path d="M49.687 12.026c2.475 4.968 5.504 9.793 9.096 14.475 1.528 1.966 3.279 4.021 5.254 6.147 1.948 2.126 4.11 4.253 6.451 6.344 2.359 2.091 4.941 4.074 7.756 5.951 2.815 1.876 5.843 3.592 9.096 5.129-4.78 2.556-9.516 5.665-14.225 9.346-1.956 1.537-4.003 3.306-6.147 5.325-2.126 2.002-4.217 4.2-6.263 6.576-2.046 2.412-4.012 5.004-5.897 7.827-1.877 2.806-3.583 5.79-5.12 8.953-2.395-4.7-5.379-9.346-8.962-13.956-3.074-3.931-6.96-8.059-11.66-12.42-4.691-4.36-10.373-8.238-17.03-11.651 4.789-2.484 9.525-5.557 14.224-9.221 4.012-3.163 8.149-7.112 12.411-11.848 4.27-4.736 7.933-10.383 11.016-16.977zm-5.504 52.895c2.225 2.824 4.056 5.683 5.504 8.578 1.885-4.021 4.146-7.47 6.781-10.365 2.645-2.913 5.218-5.343 7.693-7.309 2.814-2.198 5.754-4.128 8.837-5.772-4.101-1.859-7.586-4.128-10.436-6.773-2.868-2.645-5.281-5.2-7.237-7.684-2.225-2.805-4.11-5.79-5.638-8.953-1.876 4.092-4.128 7.595-6.719 10.49-2.609 2.913-5.146 5.325-7.622 7.309-2.823 2.216-5.763 4.074-8.837 5.629 4.101 2.127 7.595 4.521 10.499 7.166 2.904 2.645 5.299 5.218 7.175 7.684z" fill="#000"/>
    </symbol>

     <symbol id="symbol-W/U" viewBox="000 0 100 100">
        <circle r="48.5" cy="50" cx="50" stroke-width="3" stroke="#0D0F0F" fill="none" />
        <path d="M15.645 84.355L84.355 15.645z" stroke-width="3" stroke="#0D0F0F" fill="none" />
        <path d="M76.722 83.675c-2.693 2.739-6.007 4.109-9.946 4.109-4.423 0-7.93-1.515-10.525-4.541-2.452-2.884-3.676-6.558-3.676-11.028 0-4.804 2.09-10.281 6.271-16.434 3.41-5.047 7.423-9.467 12.037-13.264-.672 3.076-1.009 5.262-1.009 6.561 0 2.98.935 5.886 2.812 8.721 2.305 3.365 4.06 5.864 5.261 7.496 1.874 2.835 2.813 5.6 2.813 8.289-.001 3.99-1.348 7.354-4.038 10.091zm-.071-15.388c-.722-1.609-1.563-2.68-2.524-3.208.145.288.216.698.216 1.226 0 1.01-.287 2.453-.864 4.324l-.938 2.885c0 1.68.84 2.522 2.524 2.522 1.776 0 2.667-1.177 2.667-3.532-.001-1.201-.361-2.608-1.081-4.217z" fill="#0172BB"/>
        <path d="M54.667 38.253c-2.436-2.264-4.054-3.492-4.848-3.682-.577-.139-1.135.197-1.672 1.005-.537.808-1.292 1.095-2.268.858-.397-.094-1.175-.434-2.333-1.016-.938.885-1.441 1.471-1.511 1.758-.095.397.089.938.55 1.621.46.685.894 1.072 1.301 1.17.257.063.622.092 1.09.09.468-.002.777.015.926.051.444.104.469.971.079 2.597-.37 1.552-1.302 3.853-2.794 6.892-.058-3.908-.609-5.988-1.655-6.238-.145-.035-.469.003-.972.111-.505.106-.864.138-1.08.086-1.048-.252-1.758-1.434-2.131-3.547-1.722-.145-2.757.506-3.103 1.949-.173.725.024 1.383.589 1.975.564.594.824.98.783 1.16-.232.978-2.021 2.133-5.355 3.474-1.777.721-3.007 1.228-3.688 1.522.659-.527 1.369-1.257 2.126-2.183.862-1.056 1.372-1.905 1.528-2.558.086-.359-.208-.967-.883-1.815-.676-.849-.926-1.633-.753-2.354.146-.614.543-1.319 1.193-2.121-.34-.653-.834-1.06-1.484-1.215-1.444-.346-2.279-.049-2.504.892l-.349 1.462c-.25 1.2-1.296 1.58-3.138 1.141-1.409-.339-3.696-1.229-6.864-2.673 3.982-.04 6.119-.675 6.412-1.903-.033.146-.003-.307.096-1.353.123-1.153 1.16-1.976 3.108-2.464.073-1.738-.593-2.775-2.003-3.114-.216-.052-.706.232-1.463.853-.76.621-1.393.871-1.898.748-.867-.205-1.762-1.412-2.684-3.619-.426-1.096-1.087-2.723-1.982-4.885l2.181 1.896c.963.766 1.77 1.225 2.419 1.382.506.12 1.108-.204 1.808-.973.698-.769 1.446-1.058 2.24-.866.111.025.78.414 2.012 1.169.937-.884 1.466-1.577 1.588-2.084.102-.435-.04-.991-.431-1.678-.389-.685-.802-1.078-1.235-1.185-.181-.043-.472-.057-.877-.037-.406.018-.699.004-.879-.039-.65-.155-.781-1.045-.392-2.672.102-.434 1.111-2.808 3.022-7.123-.166.531-.173 1.601-.021 3.203.181 1.953.687 3.026 1.518 3.228.144.034.459-.005.945-.119.485-.112.853-.14 1.105-.078.83.198 1.404.833 1.722 1.901l.463 1.656c.757.182 1.455.063 2.089-.358.636-.42 1.046-1.011 1.227-1.769.189-.795 0-1.479-.568-2.056-.57-.575-.829-.971-.775-1.188.181-.758 1.68-1.754 4.495-2.989 2.26-.985 3.709-1.537 4.349-1.651-2.054 1.725-3.199 3.07-3.431 4.047-.121.506.055 1.123.531 1.848.595.867.912 1.459.95 1.771.162.92-.146 2.047-.924 3.389.811.92 1.469 1.439 1.977 1.562 1.044.25 1.699-.167 1.958-1.25.027-.108.063-.462.112-1.062.046-.6.098-.931.151-.996.267-.471 1.32-.486 3.162-.045 1.156.277 3.479 1.176 6.972 2.699-.846.026-2.116.065-3.809.12-1.549.087-2.388.402-2.519.943-.059.254-.074.708-.04 1.364.034.656.016 1.133-.053 1.42-.12.507-.558.896-1.311 1.176l-2.156.859c.246.897.42 1.438.531 1.615.259.52.693.854 1.307 1.002.434.104.922-.181 1.465-.854.542-.672 1.212-.912 2.006-.723.975.232 1.861 1.398 2.658 3.5.441 1.174 1.139 2.965 2.092 5.37zm-11.275-6.021c.552-2.312.183-4.521-1.108-6.623-1.292-2.104-3.094-3.433-5.404-3.986-2.349-.562-4.573-.206-6.671 1.069-2.098 1.271-3.448 3.078-4.045 5.417-.59 2.303-.21 4.505 1.141 6.603 1.35 2.1 3.18 3.426 5.493 3.979 2.455.587 4.698.275 6.725-.941 2.025-1.214 3.315-3.055 3.869-5.518zm-.814-.194c-.527 2.203-1.703 3.852-3.53 4.939-1.826 1.09-3.843 1.373-6.044.846-2.131-.51-3.777-1.688-4.94-3.531-1.163-1.843-1.489-3.828-.979-5.962.503-2.095 1.698-3.708 3.592-4.841 1.896-1.129 3.889-1.445 5.983-.943 2.094.5 3.728 1.693 4.899 3.577 1.171 1.886 1.512 3.854 1.019 5.915z" fill="#89723E" />
    </symbol>

    <symbol id="symbol-W/B" viewBox="000 0 100 100">
        <circle r="48.5" cy="50" cx="50" stroke-width="3" stroke="#0D0F0F" fill="none" />
        <path d="M15.645 84.355L84.355 15.645z" stroke-width="3" stroke="#0D0F0F" fill="none" />
        <path d="M89.62 65.99c0 2.701-.982 4.544-2.947 5.525-.574.287-2.374.678-5.404 1.166-1.963.33-2.946 1.086-2.946 2.271v4.973c0 .209.063.842.185 1.905l.185 1.966c0 .613-.144 1.617-.431 3.008-.777.163-1.678.348-2.701.555-.328-1.23-.491-2.069-.491-2.52 0-.203.05-.512.153-.921.102-.407.154-.716.154-.922 0-.284-.253-1.083-.762-2.394h-.953c-.126.205-.167.472-.127.797.164.697.225 1.289.186 1.781-.697.491-1.657 1.146-2.885 1.965-.289-.082-.389-.123-.308-.123v-4.359c-.081-.203-.285-.285-.614-.246h-.737l-.737 5.771c-.573.041-1.268.041-2.086 0-.287-1.351-.799-3.354-1.535-6.017h-.493c-.45 1.433-.695 2.211-.737 2.334 0 .163.052.479.155.951.102.472.153.787.153.951 0 .122-.042.43-.125.921l-.184 1.475c-.083.079-.183.12-.306.12-1.228 0-2.048-.307-2.455-.919-.412-.615-.576-1.475-.493-2.58l.493-7.365c0-.123.039-.287.121-.492.082-.203.123-.348.123-.428 0-.328-.348-.984-1.043-1.968-.123-.04-.757-.185-1.904-.431-.695-.162-2.066-.449-4.112-.857-2.825-.531-4.238-2.803-4.238-6.814 0-5.978 2.457-10.949 7.367-14.92.204 1.106.554 2.578 1.045 4.42l2.394.554c.247.081 1.494.532 3.745 1.351-1.145-.695-2.64-1.818-4.48-3.375-.697-.818-1.046-2.19-1.046-4.113 0-.452.778-.982 2.335-1.6 1.391-.572 2.434-.896 3.131-.979 2.209-.286 3.908-.431 5.096-.431 5.115 0 9.25 1.311 12.401 3.932-1.022 1.188-2.783 2.453-5.279 3.806.982.041 2.415-.347 4.298-1.168 1.882-.815 2.68-1.228 2.394-1.228.327 0 .983.656 1.965 1.965.734.982 1.329 1.863 1.78 2.64 1.31 2.333 2.19 4.853 2.641 7.552 0 .942.02 1.617.061 2.025l-.002.49zm-23.516 1.108c0-1.761-.767-3.429-2.301-5.006-1.536-1.576-3.186-2.363-4.944-2.363-1.555 0-2.925.66-4.113 1.978-1.187 1.319-1.78 2.782-1.78 4.39 0 1.4.675 2.309 2.026 2.719.86.248 2.066.392 3.621.434h3.377c2.743.035 4.114-.682 4.114-2.152zm6.693 7.612v-1.901c-.286-.533-.573-1.088-.858-1.66-.246-.817-.697-1.963-1.351-3.439l-.676 7.184c0 .576-.122.861-.369.861-.163 0-.287-.04-.368-.123-.287-4.338-.429-6.222-.429-5.646v-2.148c-.083-.126-.185-.188-.308-.188-1.391 1.437-2.086 3.748-2.086 6.938 0 1.761.163 2.845.49 3.257.329-.082.695-.226 1.106-.431.163-.083.633-.123 1.411-.123.775 0 1.72.245 2.823.735.411-.003.615-1.105.615-3.316zm13.876-8.556c0-1.646-.614-3.119-1.842-4.418-1.228-1.297-2.64-1.945-4.234-1.945-1.72 0-3.328.787-4.821 2.361-1.495 1.576-2.242 3.224-2.242 4.945 0 1.432.697 2.147 2.088 2.147h7.059c2.662-.04 3.992-1.068 3.992-3.09z" fill="#281C1C"/>
        <path d="M54.667 38.253c-2.436-2.264-4.054-3.492-4.848-3.682-.577-.139-1.135.197-1.672 1.005-.537.808-1.292 1.095-2.268.858-.397-.094-1.175-.434-2.333-1.016-.938.885-1.441 1.471-1.511 1.758-.095.397.089.938.55 1.621.46.685.894 1.072 1.301 1.17.257.063.622.092 1.09.09.468-.002.777.015.926.051.444.104.469.971.079 2.597-.37 1.552-1.302 3.853-2.794 6.892-.058-3.908-.609-5.988-1.655-6.238-.145-.035-.469.003-.972.111-.505.106-.864.138-1.08.086-1.048-.252-1.758-1.434-2.131-3.547-1.722-.145-2.757.506-3.103 1.949-.173.725.024 1.383.589 1.975.564.594.824.98.783 1.16-.232.978-2.021 2.133-5.355 3.474-1.777.721-3.007 1.228-3.688 1.522.659-.527 1.369-1.257 2.126-2.183.862-1.056 1.372-1.905 1.528-2.558.086-.359-.208-.967-.883-1.815-.676-.849-.926-1.633-.753-2.354.146-.614.543-1.319 1.193-2.121-.34-.653-.834-1.06-1.484-1.215-1.444-.346-2.279-.049-2.504.892l-.349 1.462c-.25 1.2-1.296 1.58-3.138 1.141-1.409-.339-3.696-1.229-6.864-2.673 3.982-.04 6.119-.675 6.412-1.903-.033.146-.003-.307.096-1.353.123-1.153 1.16-1.976 3.108-2.464.073-1.738-.593-2.775-2.003-3.114-.216-.052-.706.232-1.463.853-.76.621-1.393.871-1.898.748-.867-.205-1.762-1.412-2.684-3.619-.426-1.096-1.087-2.723-1.982-4.885l2.181 1.896c.963.766 1.77 1.225 2.419 1.382.506.12 1.108-.204 1.808-.973.698-.769 1.446-1.058 2.24-.866.111.025.78.414 2.012 1.169.937-.884 1.466-1.577 1.588-2.084.102-.435-.04-.991-.431-1.678-.389-.685-.802-1.078-1.235-1.185-.181-.043-.472-.057-.877-.037-.406.018-.699.004-.879-.039-.65-.155-.781-1.045-.392-2.672.102-.434 1.111-2.808 3.022-7.123-.166.531-.173 1.601-.021 3.203.181 1.953.687 3.026 1.518 3.228.144.034.459-.005.945-.119.485-.112.853-.14 1.105-.078.83.198 1.404.833 1.722 1.901l.463 1.656c.757.182 1.455.063 2.089-.358.636-.42 1.046-1.011 1.227-1.769.189-.795 0-1.479-.568-2.056-.57-.575-.829-.971-.775-1.188.181-.758 1.68-1.754 4.495-2.989 2.26-.985 3.709-1.537 4.349-1.651-2.054 1.725-3.199 3.07-3.431 4.047-.121.506.055 1.123.531 1.848.595.867.912 1.459.95 1.771.162.92-.146 2.047-.924 3.389.811.92 1.469 1.439 1.977 1.562 1.044.25 1.699-.167 1.958-1.25.027-.108.063-.462.112-1.062.046-.6.098-.931.151-.996.267-.471 1.32-.486 3.162-.045 1.156.277 3.479 1.176 6.972 2.699-.846.026-2.116.065-3.809.12-1.549.087-2.388.402-2.519.943-.059.254-.074.708-.04 1.364.034.656.016 1.133-.053 1.42-.12.507-.558.896-1.311 1.176l-2.156.859c.246.897.42 1.438.531 1.615.259.52.693.854 1.307 1.002.434.104.922-.181 1.465-.854.542-.672 1.212-.912 2.006-.723.975.232 1.861 1.398 2.658 3.5.441 1.174 1.139 2.965 2.092 5.37zm-11.275-6.021c.552-2.312.183-4.521-1.108-6.623-1.292-2.104-3.094-3.433-5.404-3.986-2.349-.562-4.573-.206-6.671 1.069-2.098 1.271-3.448 3.078-4.045 5.417-.59 2.303-.21 4.505 1.141 6.603 1.35 2.1 3.18 3.426 5.493 3.979 2.455.587 4.698.275 6.725-.941 2.025-1.214 3.315-3.055 3.869-5.518zm-.814-.194c-.527 2.203-1.703 3.852-3.53 4.939-1.826 1.09-3.843 1.373-6.044.846-2.131-.51-3.777-1.688-4.94-3.531-1.163-1.843-1.489-3.828-.979-5.962.503-2.095 1.698-3.708 3.592-4.841 1.896-1.129 3.889-1.445 5.983-.943 2.094.5 3.728 1.693 4.899 3.577 1.171 1.886 1.512 3.854 1.019 5.915z" fill="#89723E" />
    </symbol>

    <symbol id="symbol-U/B" viewBox="000 0 100 100">
        <circle r="48.5" cy="50" cx="50" stroke-width="3" stroke="#0D0F0F" fill="none" />
        <path d="M15.645 84.355L84.355 15.645z" stroke-width="3" stroke="#0D0F0F" fill="none" />
        <path d="M41.116 48.156c-2.692 2.736-6.007 4.107-9.946 4.107-4.422 0-7.929-1.513-10.524-4.541-2.452-2.885-3.677-6.56-3.677-11.027 0-4.805 2.09-10.284 6.271-16.436 3.411-5.044 7.423-9.465 12.037-13.262-.673 3.077-1.009 5.262-1.009 6.559 0 2.98.935 5.889 2.811 8.723 2.306 3.363 4.061 5.863 5.262 7.496 1.874 2.836 2.812 5.6 2.812 8.287 0 3.993-1.347 7.354-4.037 10.094zm-.072-15.386c-.721-1.611-1.561-2.681-2.523-3.211.145.289.216.697.216 1.228 0 1.01-.287 2.45-.864 4.323l-.938 2.885c0 1.681.841 2.521 2.523 2.521 1.777 0 2.668-1.178 2.668-3.531-.001-1.202-.362-2.607-1.082-4.215z" fill="#0172BB"/>
        <path d="M89.62 65.99c0 2.701-.982 4.544-2.947 5.525-.574.287-2.374.678-5.404 1.166-1.963.33-2.946 1.086-2.946 2.271v4.973c0 .209.063.842.185 1.905l.185 1.966c0 .613-.144 1.617-.431 3.008-.777.163-1.678.348-2.701.555-.328-1.23-.491-2.069-.491-2.52 0-.203.05-.512.153-.921.102-.407.154-.716.154-.922 0-.284-.253-1.083-.762-2.394h-.953c-.126.205-.167.472-.127.797.164.697.225 1.289.186 1.781-.697.491-1.657 1.146-2.885 1.965-.289-.082-.389-.123-.308-.123v-4.359c-.081-.203-.285-.285-.614-.246h-.737l-.737 5.771c-.573.041-1.268.041-2.086 0-.287-1.351-.799-3.354-1.535-6.017h-.493c-.45 1.433-.695 2.211-.737 2.334 0 .163.052.479.155.951.102.472.153.787.153.951 0 .122-.042.43-.125.921l-.184 1.475c-.083.079-.183.12-.306.12-1.228 0-2.048-.307-2.455-.919-.412-.615-.576-1.475-.493-2.58l.493-7.365c0-.123.039-.287.121-.492.082-.203.123-.348.123-.428 0-.328-.348-.984-1.043-1.968-.123-.04-.757-.185-1.904-.431-.695-.162-2.066-.449-4.112-.857-2.825-.531-4.238-2.803-4.238-6.814 0-5.978 2.457-10.949 7.367-14.92.204 1.106.554 2.578 1.045 4.42l2.394.554c.247.081 1.494.532 3.745 1.351-1.145-.695-2.64-1.818-4.48-3.375-.697-.818-1.046-2.19-1.046-4.113 0-.452.778-.982 2.335-1.6 1.391-.572 2.434-.896 3.131-.979 2.209-.286 3.908-.431 5.096-.431 5.115 0 9.25 1.311 12.401 3.932-1.022 1.188-2.783 2.453-5.279 3.806.982.041 2.415-.347 4.298-1.168 1.882-.815 2.68-1.228 2.394-1.228.327 0 .983.656 1.965 1.965.734.982 1.329 1.863 1.78 2.64 1.31 2.333 2.19 4.853 2.641 7.552 0 .942.02 1.617.061 2.025l-.002.49zm-23.516 1.108c0-1.761-.767-3.429-2.301-5.006-1.536-1.576-3.186-2.363-4.944-2.363-1.555 0-2.925.66-4.113 1.978-1.187 1.319-1.78 2.782-1.78 4.39 0 1.4.675 2.309 2.026 2.719.86.248 2.066.392 3.621.434h3.377c2.743.035 4.114-.682 4.114-2.152zm6.693 7.612v-1.901c-.286-.533-.573-1.088-.858-1.66-.246-.817-.697-1.963-1.351-3.439l-.676 7.184c0 .576-.122.861-.369.861-.163 0-.287-.04-.368-.123-.287-4.338-.429-6.222-.429-5.646v-2.148c-.083-.126-.185-.188-.308-.188-1.391 1.437-2.086 3.748-2.086 6.938 0 1.761.163 2.845.49 3.257.329-.082.695-.226 1.106-.431.163-.083.633-.123 1.411-.123.775 0 1.72.245 2.823.735.411-.003.615-1.105.615-3.316zm13.876-8.556c0-1.646-.614-3.119-1.842-4.418-1.228-1.297-2.64-1.945-4.234-1.945-1.72 0-3.328.787-4.821 2.361-1.495 1.576-2.242 3.224-2.242 4.945 0 1.432.697 2.147 2.088 2.147h7.059c2.662-.04 3.992-1.068 3.992-3.09z" fill="#281C1C"/>
    </symbol>

    <symbol id="symbol-U/R" viewBox="000 0 100 100">
        <circle r="48.5" cy="50" cx="50" stroke-width="3" stroke="#0D0F0F" fill="none" />
        <path d="M15.645 84.355L84.355 15.645z" stroke-width="3" stroke="#0D0F0F" fill="none" />
        <path d="M88.3 74.439c-1.718 4.1-5.13 6.146-10.24 6.146-.937 0-1.952.115-3.044.35-1.639.353-2.458.84-2.458 1.465 0 .195.136.418.41.674.272.253.508.381.703.381-.977 0-.314.029 1.987.085 2.303.06 3.747.089 4.333.089-3.394 1.989-9.07 2.906-17.029 2.75-2.614-.037-4.857-1.188-6.729-3.451-1.835-2.146-2.751-4.545-2.751-7.197 0-2.81.946-5.198 2.839-7.17 1.89-1.968 4.242-2.953 7.051-2.953.623 0 1.453.137 2.486.408 1.034.273 1.727.41 2.077.41 1.444 0 3.239-.597 5.385-1.785 2.146-1.189 3.16-1.785 3.043-1.785-.391 4.097-1.756 6.849-4.097 8.25-1.678.978-2.516 1.934-2.516 2.867 0 .586.35 1.055 1.052 1.406.546.271 1.151.408 1.815.408 1.014 0 2.008-.623 2.984-1.872.974-1.247 1.403-2.379 1.286-3.394-.116-1.172-.037-2.576.235-4.213.077-.47.361-1.045.848-1.727.488-.684.928-1.104 1.317-1.262 0 .354-.127.939-.38 1.756-.254.82-.38 1.427-.38 1.814 0 .86.234 1.523.703 1.99.701-.271 1.324-1.15 1.872-2.634.468-1.13.74-2.224.82-3.274-1.64-.078-3.211-.82-4.711-2.227-1.501-1.404-2.252-2.925-2.252-4.563 0-.271.037-.547.117-.819.232.353.583.899 1.053 1.64.662.975 1.17 1.463 1.521 1.463.468 0 .702-.488.702-1.463 0-1.249-.332-2.38-.995-3.395-.743-1.211-1.699-1.814-2.867-1.814-.548 0-1.366.292-2.458.878-1.093.584-2.088.878-2.983.878-.273 0-1.484-.353-3.629-1.054 3.783-.625 5.676-1.19 5.676-1.699 0-1.325-2.594-2.223-7.783-2.688-.508-.039-1.443-.117-2.809-.235.155-.194 1.268-.407 3.336-.644 1.755-.192 2.983-.293 3.685-.293 9.285 0 15.175 4.506 17.673 13.521.431-.358.645-.95.645-1.78 0-1.068-.312-2.412-.937-4.033-.235-.635-.607-1.584-1.113-2.849 3.198 4.075 4.8 7.938 4.8 11.583 0 1.922-.451 3.667-1.348 5.232-.583 1.059-1.678 2.41-3.276 4.059-1.6 1.645-2.691 2.919-3.277 3.821 2.146-.586 3.551-1.035 4.214-1.347 1.481-.664 2.828-1.66 4.037-2.985 0 .51-.215 1.272-.643 2.281zm-25.514-22.996c0 .701-.391 1.152-1.17 1.348l-1.521.232c-.547.272-1.347 1.348-2.398 3.219-.119-.584-.293-1.403-.528-2.457-.351.037-.935.352-1.755.936-.351.273-.917.684-1.699 1.229.235-1.403 1.017-2.826 2.342-4.271 1.404-1.598 2.77-2.396 4.096-2.396 1.755-.002 2.633.719 2.633 2.16zm10.182 5.385c0 .662-.361 1.22-1.083 1.668-.722.447-1.434.673-2.135.673-.938 0-1.777-.524-2.517-1.581-.898-1.285-1.814-2.125-2.75-2.516.194-.195.429-.293.704-.293.349 0 .944.271 1.783.818.837.549 1.375.82 1.61.82.195 0 .516-.271.964-.82.448-.547.946-.818 1.493-.818 1.288 0 1.931.684 1.931 2.049z" fill="#FD2302"/>
        <path d="M41.116 48.156c-2.692 2.736-6.007 4.107-9.946 4.107-4.422 0-7.929-1.513-10.524-4.541-2.452-2.885-3.677-6.56-3.677-11.027 0-4.805 2.09-10.284 6.271-16.436 3.411-5.044 7.423-9.465 12.037-13.262-.673 3.077-1.009 5.262-1.009 6.559 0 2.98.935 5.889 2.811 8.723 2.306 3.363 4.061 5.863 5.262 7.496 1.874 2.836 2.812 5.6 2.812 8.287 0 3.993-1.347 7.354-4.037 10.094zm-.072-15.386c-.721-1.611-1.561-2.681-2.523-3.211.145.289.216.697.216 1.228 0 1.01-.287 2.45-.864 4.323l-.938 2.885c0 1.681.841 2.521 2.523 2.521 1.777 0 2.668-1.178 2.668-3.531-.001-1.202-.362-2.607-1.082-4.215z" fill="#0172BB"/>
    </symbol>

    <symbol id="symbol-B/R" viewBox="000 0 100 100">
        <circle r="48.5" cy="50" cx="50" stroke-width="3" stroke="#0D0F0F" fill="none" />
        <path d="M15.645 84.355L84.355 15.645z" stroke-width="3" stroke="#0D0F0F" fill="none" />
        <path d="M88.3 74.439c-1.718 4.1-5.13 6.146-10.24 6.146-.937 0-1.952.115-3.044.35-1.639.353-2.458.84-2.458 1.465 0 .195.136.418.41.674.272.253.508.381.703.381-.977 0-.314.029 1.987.085 2.303.06 3.747.089 4.333.089-3.394 1.989-9.07 2.906-17.029 2.75-2.614-.037-4.857-1.188-6.729-3.451-1.835-2.146-2.751-4.545-2.751-7.197 0-2.81.946-5.198 2.839-7.17 1.89-1.968 4.242-2.953 7.051-2.953.623 0 1.453.137 2.486.408 1.034.273 1.727.41 2.077.41 1.444 0 3.239-.597 5.385-1.785 2.146-1.189 3.16-1.785 3.043-1.785-.391 4.097-1.756 6.849-4.097 8.25-1.678.978-2.516 1.934-2.516 2.867 0 .586.35 1.055 1.052 1.406.546.271 1.151.408 1.815.408 1.014 0 2.008-.623 2.984-1.872.974-1.247 1.403-2.379 1.286-3.394-.116-1.172-.037-2.576.235-4.213.077-.47.361-1.045.848-1.727.488-.684.928-1.104 1.317-1.262 0 .354-.127.939-.38 1.756-.254.82-.38 1.427-.38 1.814 0 .86.234 1.523.703 1.99.701-.271 1.324-1.15 1.872-2.634.468-1.13.74-2.224.82-3.274-1.64-.078-3.211-.82-4.711-2.227-1.501-1.404-2.252-2.925-2.252-4.563 0-.271.037-.547.117-.819.232.353.583.899 1.053 1.64.662.975 1.17 1.463 1.521 1.463.468 0 .702-.488.702-1.463 0-1.249-.332-2.38-.995-3.395-.743-1.211-1.699-1.814-2.867-1.814-.548 0-1.366.292-2.458.878-1.093.584-2.088.878-2.983.878-.273 0-1.484-.353-3.629-1.054 3.783-.625 5.676-1.19 5.676-1.699 0-1.325-2.594-2.223-7.783-2.688-.508-.039-1.443-.117-2.809-.235.155-.194 1.268-.407 3.336-.644 1.755-.192 2.983-.293 3.685-.293 9.285 0 15.175 4.506 17.673 13.521.431-.358.645-.95.645-1.78 0-1.068-.312-2.412-.937-4.033-.235-.635-.607-1.584-1.113-2.849 3.198 4.075 4.8 7.938 4.8 11.583 0 1.922-.451 3.667-1.348 5.232-.583 1.059-1.678 2.41-3.276 4.059-1.6 1.645-2.691 2.919-3.277 3.821 2.146-.586 3.551-1.035 4.214-1.347 1.481-.664 2.828-1.66 4.037-2.985 0 .51-.215 1.272-.643 2.281zm-25.514-22.996c0 .701-.391 1.152-1.17 1.348l-1.521.232c-.547.272-1.347 1.348-2.398 3.219-.119-.584-.293-1.403-.528-2.457-.351.037-.935.352-1.755.936-.351.273-.917.684-1.699 1.229.235-1.403 1.017-2.826 2.342-4.271 1.404-1.598 2.77-2.396 4.096-2.396 1.755-.002 2.633.719 2.633 2.16zm10.182 5.385c0 .662-.361 1.22-1.083 1.668-.722.447-1.434.673-2.135.673-.938 0-1.777-.524-2.517-1.581-.898-1.285-1.814-2.125-2.75-2.516.194-.195.429-.293.704-.293.349 0 .944.271 1.783.818.837.549 1.375.82 1.61.82.195 0 .516-.271.964-.82.448-.547.946-.818 1.493-.818 1.288 0 1.931.684 1.931 2.049z" fill="#FD2302"/>
        <path d="M55.257 30.111c0 2.701-.982 4.543-2.948 5.525-.574.287-2.373.678-5.403 1.166-1.964.329-2.946 1.088-2.946 2.271v4.973c0 .209.063.842.184 1.906l.185 1.965c0 .613-.144 1.617-.431 3.008-.777.163-1.678.348-2.7.555-.329-1.229-.491-2.069-.491-2.52 0-.203.05-.512.152-.921.102-.408.154-.716.154-.921 0-.284-.253-1.084-.762-2.393h-.953c-.126.203-.167.469-.127.795.165.696.225 1.289.185 1.781-.697.491-1.657 1.146-2.885 1.965-.289-.082-.389-.123-.308-.123v-4.359c-.082-.202-.286-.285-.614-.245h-.737l-.737 5.771c-.573.041-1.268.041-2.086 0-.287-1.35-.799-3.354-1.534-6.015h-.493c-.45 1.433-.696 2.21-.737 2.333 0 .163.052.48.155.951.101.471.152.787.152.951 0 .121-.042.43-.125.921l-.183 1.474c-.083.08-.184.121-.307.121-1.228 0-2.048-.306-2.455-.919-.411-.614-.576-1.476-.493-2.58l.493-7.366c0-.121.039-.285.121-.492.082-.203.123-.348.123-.428 0-.328-.348-.984-1.043-1.967-.123-.039-.758-.184-1.904-.43-.696-.163-2.067-.45-4.112-.858-2.824-.53-4.237-2.803-4.237-6.815 0-5.977 2.456-10.948 7.367-14.918.204 1.105.553 2.576 1.044 4.418l2.394.555c.247.081 1.495.533 3.745 1.352-1.146-.695-2.64-1.82-4.48-3.377-.697-.818-1.046-2.189-1.046-4.113 0-.45.778-.981 2.335-1.599 1.391-.571 2.434-.897 3.131-.979 2.209-.286 3.908-.432 5.096-.432 5.115 0 9.249 1.312 12.401 3.932-1.022 1.188-2.783 2.453-5.279 3.807.982.041 2.415-.348 4.298-1.168 1.882-.816 2.68-1.227 2.394-1.227.327 0 .982.654 1.965 1.963.735.982 1.329 1.865 1.78 2.641 1.31 2.333 2.19 4.852 2.641 7.553 0 .941.02 1.616.061 2.024v.488zm-23.516 1.108c0-1.761-.767-3.429-2.301-5.006-1.536-1.576-3.184-2.363-4.943-2.363-1.555 0-2.925.66-4.114 1.978-1.187 1.319-1.78 2.782-1.78 4.389 0 1.401.675 2.31 2.027 2.72.859.248 2.065.392 3.621.434h3.376c2.742.036 4.114-.682 4.114-2.152zm6.692 7.612v-1.901c-.286-.533-.573-1.087-.858-1.66-.246-.817-.697-1.963-1.351-3.439l-.676 7.186c0 .574-.121.859-.368.859-.163 0-.287-.04-.369-.122-.287-4.339-.429-6.224-.429-5.647v-2.148c-.083-.126-.185-.188-.308-.188-1.391 1.437-2.086 3.748-2.086 6.938 0 1.761.163 2.845.49 3.257.329-.083.695-.226 1.107-.431.163-.083.633-.123 1.412-.123.775 0 1.719.246 2.823.735.409-.001.613-1.105.613-3.316zm13.876-8.556c0-1.646-.614-3.118-1.842-4.418-1.229-1.297-2.64-1.945-4.235-1.945-1.719 0-3.328.787-4.821 2.363-1.494 1.574-2.242 3.223-2.242 4.942 0 1.433.697 2.148 2.088 2.148h7.06c2.662-.04 3.992-1.068 3.992-3.09z" fill="#281C1C"/>
    </symbol>

    <symbol id="symbol-B/G" viewBox="000 0 100 100">
        <circle r="48.5" cy="50" cx="50" stroke-width="3" stroke="#0D0F0F" fill="none" />
        <path d="M15.645 84.355L84.355 15.645z" stroke-width="3" stroke="#0D0F0F" fill="none" />
        <path d="M55.257 30.111c0 2.701-.982 4.543-2.948 5.525-.574.287-2.373.678-5.403 1.166-1.964.329-2.946 1.088-2.946 2.271v4.973c0 .209.063.842.184 1.906l.185 1.965c0 .613-.144 1.617-.431 3.008-.777.163-1.678.348-2.7.555-.329-1.229-.491-2.069-.491-2.52 0-.203.05-.512.152-.921.102-.408.154-.716.154-.921 0-.284-.253-1.084-.762-2.393h-.953c-.126.203-.167.469-.127.795.165.696.225 1.289.185 1.781-.697.491-1.657 1.146-2.885 1.965-.289-.082-.389-.123-.308-.123v-4.359c-.082-.202-.286-.285-.614-.245h-.737l-.737 5.771c-.573.041-1.268.041-2.086 0-.287-1.35-.799-3.354-1.534-6.015h-.493c-.45 1.433-.696 2.21-.737 2.333 0 .163.052.48.155.951.101.471.152.787.152.951 0 .121-.042.43-.125.921l-.183 1.474c-.083.08-.184.121-.307.121-1.228 0-2.048-.306-2.455-.919-.411-.614-.576-1.476-.493-2.58l.493-7.366c0-.121.039-.285.121-.492.082-.203.123-.348.123-.428 0-.328-.348-.984-1.043-1.967-.123-.039-.758-.184-1.904-.43-.696-.163-2.067-.45-4.112-.858-2.824-.53-4.237-2.803-4.237-6.815 0-5.977 2.456-10.948 7.367-14.918.204 1.105.553 2.576 1.044 4.418l2.394.555c.247.081 1.495.533 3.745 1.352-1.146-.695-2.64-1.82-4.48-3.377-.697-.818-1.046-2.189-1.046-4.113 0-.45.778-.981 2.335-1.599 1.391-.571 2.434-.897 3.131-.979 2.209-.286 3.908-.432 5.096-.432 5.115 0 9.249 1.312 12.401 3.932-1.022 1.188-2.783 2.453-5.279 3.807.982.041 2.415-.348 4.298-1.168 1.882-.816 2.68-1.227 2.394-1.227.327 0 .982.654 1.965 1.963.735.982 1.329 1.865 1.78 2.641 1.31 2.333 2.19 4.852 2.641 7.553 0 .941.02 1.616.061 2.024v.488zm-23.516 1.108c0-1.761-.767-3.429-2.301-5.006-1.536-1.576-3.184-2.363-4.943-2.363-1.555 0-2.925.66-4.114 1.978-1.187 1.319-1.78 2.782-1.78 4.389 0 1.401.675 2.31 2.027 2.72.859.248 2.065.392 3.621.434h3.376c2.742.036 4.114-.682 4.114-2.152zm6.692 7.612v-1.901c-.286-.533-.573-1.087-.858-1.66-.246-.817-.697-1.963-1.351-3.439l-.676 7.186c0 .574-.121.859-.368.859-.163 0-.287-.04-.369-.122-.287-4.339-.429-6.224-.429-5.647v-2.148c-.083-.126-.185-.188-.308-.188-1.391 1.437-2.086 3.748-2.086 6.938 0 1.761.163 2.845.49 3.257.329-.083.695-.226 1.107-.431.163-.083.633-.123 1.412-.123.775 0 1.719.246 2.823.735.409-.001.613-1.105.613-3.316zm13.876-8.556c0-1.646-.614-3.118-1.842-4.418-1.229-1.297-2.64-1.945-4.235-1.945-1.719 0-3.328.787-4.821 2.363-1.494 1.574-2.242 3.223-2.242 4.942 0 1.433.697 2.148 2.088 2.148h7.06c2.662-.04 3.992-1.068 3.992-3.09z" fill="#281C1C"/>
        <path d="M89.519 67.618c0 .758-.293 1.437-.879 2.043-.586.604-1.258.905-2.016.905-1.207 0-2.098-.566-2.663-1.701l-2.667-.112c-.567 0-1.684.246-3.345.737-1.777.49-2.798.888-3.064 1.189-.414.454-.755 1.514-1.02 3.178-.228 1.36-.339 2.363-.339 3.006 0 1.02.16 1.768.48 2.24.321.473.984.869 1.984 1.189 1 .318 1.616.502 1.844.539.151 0 .396-.018.737-.057h.681c.491 0 1.001.076 1.532.227.755.227 1.077.527.965.907-.531-.074-1.456.038-2.778.34l1.586.795c0 .454-.643.679-1.928.679-.342 0-.806-.072-1.39-.225-.588-.154-.976-.229-1.163-.229h-.737c-.038.379-.15.943-.34 1.701-.646-.037-1.399-.416-2.27-1.133-.87-.72-1.418-1.079-1.643-1.079-.228 0-.551.359-.965 1.079-.417.717-.624 1.207-.624 1.475-.491-.268-.906-.758-1.249-1.475-.151-.494-.321-.986-.509-1.479-.379.039-1.077.836-2.099 2.385h-.284c-.077-.113-.36-.906-.852-2.385-1.172-.375-2.268-.563-3.288-.563-.491 0-1.249.112-2.27.341l-1.587-.113c.226-.228.888-.662 1.984-1.305 1.284-.758 2.269-1.137 2.949-1.137.112 0 .264.021.454.059.188.039.341.058.454.058.262 0 .689-.142 1.275-.427.586-.283.927-.539 1.019-.766.098-.229.145-.813.145-1.759 0-2.153-.568-3.763-1.703-4.819-.983-.945-2.608-1.625-4.877-2.043-.604 2.154-2.307 3.234-5.103 3.234-.909 0-1.816-.549-2.723-1.646-.907-1.098-1.361-2.099-1.361-3.007 0-1.399.586-2.551 1.758-3.459-.944-.981-1.418-1.983-1.418-3.006 0-.944.292-1.776.879-2.496.586-.716 1.353-1.133 2.297-1.248-.074-1.208.321-2.042 1.19-2.495-.415-.414-.622-1.15-.622-2.211 0-1.246.414-2.287 1.247-3.119.83-.83 1.871-1.248 3.117-1.248 1.363 0 2.479.475 3.348 1.418 1.098-3.742 3.459-5.613 7.089-5.613 1.889 0 3.554.756 4.99 2.27.53.565.793.868.793.905-.452 0-.225-.086.681-.254.909-.171 1.568-.257 1.986-.257 1.474 0 2.778.55 3.915 1.646.982.984 1.663 2.229 2.042 3.742.263.039.679.151 1.245.341.832.417 1.249 1.135 1.249 2.155 0 .188-.152.549-.454 1.079 2.419 1.361 3.63 3.251 3.63 5.67 0 .681-.266 1.627-.793 2.836.986.569 1.478 1.401 1.478 2.498zm-23.368 2.495v-.736c0-.869-.424-1.664-1.275-2.382-.851-.72-1.71-1.077-2.58-1.077-1.06 0-2.042.246-2.949.734 2.004-.11 4.271 1.041 6.804 3.461zm-1.02-7.03c-.566-.646-1.058-1.306-1.474-1.985-1.589.414-2.383.889-2.383 1.416.453-.037 1.116.047 1.984.256.87.209 1.496.313 1.873.313zm3.462-1.761v-2.495c-.909-.149-1.459-.226-1.646-.226v.851l1.646 1.87zm7.372-1.586c-.454-.189-1.305-.568-2.554-1.135v4.877c1.778-1.022 2.628-2.268 2.554-3.742zm3.116 6.692l-1.246-1.529c-.755.529-1.521 1.066-2.298 1.615-.775.547-1.445 1.162-2.011 1.844 1.699-.911 3.554-1.551 5.555-1.93z" fill="#027920"/>
    </symbol>

    <symbol id="symbol-R/G" viewBox="000 0 100 100">
        <circle r="48.5" cy="50" cx="50" stroke-width="3" stroke="#0D0F0F" fill="none" />
        <path d="M15.645 84.355L84.355 15.645z" stroke-width="3" stroke="#0D0F0F" fill="none" />
        <path d="M51.937 38.077c-1.718 4.099-5.13 6.146-10.24 6.146-.937 0-1.952.115-3.044.35-1.639.353-2.457.841-2.457 1.465 0 .195.136.418.409.674.272.253.508.38.703.38-.977 0-.313.03 1.987.086 2.302.06 3.746.089 4.332.089-3.395 1.988-9.07 2.906-17.029 2.75-2.614-.037-4.857-1.188-6.729-3.451-1.834-2.146-2.75-4.545-2.75-7.196 0-2.81.945-5.199 2.839-7.171 1.89-1.967 4.242-2.953 7.051-2.953.623 0 1.453.137 2.486.408 1.034.273 1.727.41 2.077.41 1.444 0 3.238-.597 5.384-1.785 2.146-1.19 3.161-1.785 3.044-1.785-.391 4.096-1.756 6.848-4.097 8.251-1.679.978-2.516 1.933-2.516 2.866 0 .586.349 1.055 1.052 1.406.546.271 1.151.408 1.815.408 1.014 0 2.008-.623 2.984-1.871.974-1.248 1.403-2.38 1.286-3.396-.115-1.171-.037-2.576.235-4.212.077-.471.361-1.045.848-1.727.488-.684.928-1.104 1.317-1.261 0 .353-.128.938-.381 1.755-.254.819-.38 1.428-.38 1.814 0 .859.233 1.522.702 1.99.702-.271 1.325-1.15 1.872-2.634.468-1.131.74-2.224.82-3.276-1.64-.075-3.211-.818-4.712-2.225-1.502-1.404-2.252-2.926-2.252-4.563 0-.272.037-.547.117-.819.232.353.583.899 1.054 1.64.661.973 1.17 1.461 1.521 1.461.468 0 .701-.488.701-1.461 0-1.248-.331-2.379-.994-3.395-.742-1.211-1.698-1.814-2.867-1.814-.548 0-1.366.293-2.458.879-1.093.584-2.088.877-2.982.877-.274 0-1.484-.354-3.63-1.055 3.783-.624 5.676-1.189 5.676-1.697 0-1.326-2.594-2.224-7.783-2.69-.507-.038-1.442-.116-2.808-.235.155-.193 1.268-.408 3.336-.644 1.755-.192 2.983-.294 3.685-.294 9.285 0 15.175 4.508 17.673 13.521.431-.357.646-.949.646-1.779 0-1.069-.313-2.414-.937-4.035-.235-.633-.607-1.584-1.113-2.848 3.197 4.075 4.8 7.938 4.8 11.584 0 1.92-.451 3.666-1.348 5.23-.583 1.061-1.678 2.412-3.276 4.059-1.599 1.646-2.691 2.92-3.277 3.822 2.146-.586 3.552-1.036 4.215-1.348 1.48-.663 2.827-1.659 4.036-2.984-.001.511-.216 1.27-.643 2.283zm-25.515-22.997c0 .702-.391 1.15-1.17 1.348l-1.521.233c-.548.271-1.347 1.346-2.398 3.218-.118-.584-.293-1.404-.528-2.458-.351.039-.936.353-1.755.937-.351.272-.917.684-1.698 1.229.235-1.404 1.017-2.826 2.342-4.271 1.404-1.599 2.771-2.396 4.096-2.396 1.755-.003 2.632.719 2.632 2.16zm10.182 5.385c0 .661-.36 1.221-1.083 1.668-.722.448-1.434.674-2.135.674-.938 0-1.777-.525-2.517-1.582-.898-1.285-1.814-2.125-2.751-2.516.193-.195.429-.293.704-.293.35 0 .944.271 1.783.818.837.549 1.374.82 1.609.82.195 0 .517-.271.965-.82.448-.547.945-.818 1.493-.818 1.289 0 1.932.684 1.932 2.049z" fill="#FD2302"/>
        <path d="M89.519 67.618c0 .758-.293 1.437-.879 2.043-.586.604-1.258.905-2.016.905-1.207 0-2.098-.566-2.663-1.701l-2.667-.112c-.567 0-1.684.246-3.345.737-1.777.49-2.798.888-3.064 1.189-.414.454-.755 1.514-1.02 3.178-.228 1.36-.339 2.363-.339 3.006 0 1.02.16 1.768.48 2.24.321.473.984.869 1.984 1.189 1 .318 1.616.502 1.844.539.151 0 .396-.018.737-.057h.681c.491 0 1.001.076 1.532.227.755.227 1.077.527.965.907-.531-.074-1.456.038-2.778.34l1.586.795c0 .454-.643.679-1.928.679-.342 0-.806-.072-1.39-.225-.588-.154-.976-.229-1.163-.229h-.737c-.038.379-.15.943-.34 1.701-.646-.037-1.399-.416-2.27-1.133-.87-.72-1.418-1.079-1.643-1.079-.228 0-.551.359-.965 1.079-.417.717-.624 1.207-.624 1.475-.491-.268-.906-.758-1.249-1.475-.151-.494-.321-.986-.509-1.479-.379.039-1.077.836-2.099 2.385h-.284c-.077-.113-.36-.906-.852-2.385-1.172-.375-2.268-.563-3.288-.563-.491 0-1.249.112-2.27.341l-1.587-.113c.226-.228.888-.662 1.984-1.305 1.284-.758 2.269-1.137 2.949-1.137.112 0 .264.021.454.059.188.039.341.058.454.058.262 0 .689-.142 1.275-.427.586-.283.927-.539 1.019-.766.098-.229.145-.813.145-1.759 0-2.153-.568-3.763-1.703-4.819-.983-.945-2.608-1.625-4.877-2.043-.604 2.154-2.307 3.234-5.103 3.234-.909 0-1.816-.549-2.723-1.646-.907-1.098-1.361-2.099-1.361-3.007 0-1.399.586-2.551 1.758-3.459-.944-.981-1.418-1.983-1.418-3.006 0-.944.292-1.776.879-2.496.586-.716 1.353-1.133 2.297-1.248-.074-1.208.321-2.042 1.19-2.495-.415-.414-.622-1.15-.622-2.211 0-1.246.414-2.287 1.247-3.119.83-.83 1.871-1.248 3.117-1.248 1.363 0 2.479.475 3.348 1.418 1.098-3.742 3.459-5.613 7.089-5.613 1.889 0 3.554.756 4.99 2.27.53.565.793.868.793.905-.452 0-.225-.086.681-.254.909-.171 1.568-.257 1.986-.257 1.474 0 2.778.55 3.915 1.646.982.984 1.663 2.229 2.042 3.742.263.039.679.151 1.245.341.832.417 1.249 1.135 1.249 2.155 0 .188-.152.549-.454 1.079 2.419 1.361 3.63 3.251 3.63 5.67 0 .681-.266 1.627-.793 2.836.986.569 1.478 1.401 1.478 2.498zm-23.368 2.495v-.736c0-.869-.424-1.664-1.275-2.382-.851-.72-1.71-1.077-2.58-1.077-1.06 0-2.042.246-2.949.734 2.004-.11 4.271 1.041 6.804 3.461zm-1.02-7.03c-.566-.646-1.058-1.306-1.474-1.985-1.589.414-2.383.889-2.383 1.416.453-.037 1.116.047 1.984.256.87.209 1.496.313 1.873.313zm3.462-1.761v-2.495c-.909-.149-1.459-.226-1.646-.226v.851l1.646 1.87zm7.372-1.586c-.454-.189-1.305-.568-2.554-1.135v4.877c1.778-1.022 2.628-2.268 2.554-3.742zm3.116 6.692l-1.246-1.529c-.755.529-1.521 1.066-2.298 1.615-.775.547-1.445 1.162-2.011 1.844 1.699-.911 3.554-1.551 5.555-1.93z" fill="#027920"/>
    </symbol>

    <symbol id="symbol-R/W" viewBox="000 0 100 100">
        <circle r="48.5" cy="50" cx="50" stroke-width="3" stroke="#0D0F0F" fill="none" />
        <path d="M15.645 84.355L84.355 15.645z" stroke-width="3" stroke="#0D0F0F" fill="none" />
        <path d="M88 73.111c-2.436-2.264-4.054-3.491-4.848-3.682-.576-.138-1.135.198-1.672 1.006-.537.808-1.291 1.092-2.268.858-.396-.095-1.175-.435-2.334-1.017-.938.885-1.441 1.471-1.511 1.758-.095.398.089.938.551 1.621.46.685.894 1.072 1.301 1.171.257.062.621.091 1.09.089.468-.001.777.016.927.051.443.104.469.971.078 2.598-.37 1.552-1.302 3.852-2.793 6.892-.059-3.909-.61-5.989-1.656-6.239-.145-.035-.469.004-.972.111-.505.107-.864.137-1.08.085-1.048-.251-1.758-1.433-2.131-3.546-1.723-.145-2.757.506-3.103 1.949-.174.726.023 1.383.589 1.976.563.592.823.979.782 1.16-.233.978-2.021 2.133-5.355 3.473-1.776.722-3.007 1.228-3.688 1.522.659-.528 1.369-1.256 2.127-2.182.862-1.057 1.371-1.906 1.528-2.559.086-.359-.209-.966-.884-1.814-.676-.849-.926-1.634-.753-2.355.146-.614.543-1.319 1.194-2.12-.341-.653-.835-1.06-1.485-1.215-1.444-.347-2.279-.05-2.504.891l-.35 1.462c-.25 1.2-1.296 1.58-3.138 1.141-1.409-.338-3.696-1.229-6.864-2.674 3.981-.039 6.118-.674 6.411-1.901-.032.146-.003-.308.097-1.353.122-1.154 1.16-1.977 3.108-2.465.072-1.738-.594-2.777-2.004-3.113-.216-.053-.705.231-1.463.853-.761.619-1.393.87-1.898.748-.867-.205-1.763-1.413-2.684-3.62-.427-1.095-1.088-2.723-1.983-4.885.727.632 1.453 1.266 2.182 1.896.963.766 1.77 1.226 2.419 1.383.506.119 1.108-.205 1.808-.974.699-.768 1.446-1.058 2.24-.866.111.026.78.414 2.013 1.168.937-.883 1.466-1.576 1.588-2.082.102-.435-.04-.994-.431-1.679-.39-.687-.802-1.079-1.235-1.184-.181-.044-.473-.058-.878-.039-.405.019-.698.005-.879-.038-.649-.155-.781-1.045-.392-2.671.102-.435 1.11-2.81 3.022-7.123-.166.53-.173 1.601-.021 3.202.181 1.953.687 3.027 1.518 3.228.144.033.459-.005.946-.118.485-.113.852-.14 1.104-.078.83.197 1.404.832 1.723 1.9l.463 1.655c.758.183 1.455.063 2.09-.357.636-.421 1.046-1.011 1.227-1.769.189-.795 0-1.479-.568-2.055-.569-.576-.829-.972-.775-1.188.181-.758 1.68-1.755 4.495-2.99 2.26-.985 3.709-1.536 4.349-1.651-2.054 1.725-3.199 3.07-3.432 4.047-.121.507.055 1.121.531 1.848.595.867.912 1.459.95 1.771.161.92-.146 2.047-.925 3.39.811.92 1.47 1.438 1.977 1.562 1.045.25 1.699-.168 1.958-1.25.026-.109.063-.463.112-1.063.046-.6.098-.932.151-.995.266-.472 1.319-.487 3.161-.045 1.156.276 3.479 1.175 6.973 2.698l-3.809.121c-1.55.086-2.389.401-2.519.942-.06.253-.074.708-.04 1.364.034.656.017 1.132-.053 1.421-.12.506-.559.896-1.312 1.175l-2.155.859c.245.898.42 1.438.531 1.615.259.521.692.854 1.306 1.002.434.104.922-.18 1.465-.854.542-.672 1.212-.913 2.007-.722.975.232 1.861 1.398 2.657 3.499.445 1.176 1.143 2.967 2.096 5.37zm-11.274-6.019c.552-2.313.184-4.52-1.108-6.623-1.292-2.103-3.094-3.433-5.404-3.986-2.348-.561-4.573-.205-6.671 1.07-2.099 1.27-3.448 3.077-4.046 5.416-.59 2.303-.21 4.504 1.141 6.604 1.35 2.098 3.18 3.425 5.493 3.978 2.454.587 4.697.274 6.725-.94 2.026-1.215 3.316-3.056 3.87-5.519zm-.815-.196c-.526 2.203-1.703 3.851-3.53 4.939-1.826 1.09-3.843 1.373-6.044.846-2.131-.51-3.777-1.687-4.94-3.531-1.163-1.844-1.489-3.83-.979-5.961.503-2.096 1.698-3.709 3.592-4.842 1.896-1.13 3.889-1.445 5.984-.943 2.094.5 3.727 1.693 4.898 3.576 1.171 1.887 1.512 3.858 1.019 5.916z" fill="#89723E"/>
        <path d="M51.937 38.077c-1.718 4.099-5.13 6.146-10.24 6.146-.937 0-1.952.115-3.044.35-1.639.353-2.457.841-2.457 1.465 0 .195.136.418.409.674.272.253.508.38.703.38-.977 0-.313.03 1.987.086 2.302.06 3.746.089 4.332.089-3.395 1.988-9.07 2.906-17.029 2.75-2.614-.037-4.857-1.188-6.729-3.451-1.834-2.146-2.75-4.545-2.75-7.196 0-2.81.945-5.199 2.839-7.171 1.89-1.967 4.242-2.953 7.051-2.953.623 0 1.453.137 2.486.408 1.034.273 1.727.41 2.077.41 1.444 0 3.238-.597 5.384-1.785 2.146-1.19 3.161-1.785 3.044-1.785-.391 4.096-1.756 6.848-4.097 8.251-1.679.978-2.516 1.933-2.516 2.866 0 .586.349 1.055 1.052 1.406.546.271 1.151.408 1.815.408 1.014 0 2.008-.623 2.984-1.871.974-1.248 1.403-2.38 1.286-3.396-.115-1.171-.037-2.576.235-4.212.077-.471.361-1.045.848-1.727.488-.684.928-1.104 1.317-1.261 0 .353-.128.938-.381 1.755-.254.819-.38 1.428-.38 1.814 0 .859.233 1.522.702 1.99.702-.271 1.325-1.15 1.872-2.634.468-1.131.74-2.224.82-3.276-1.64-.075-3.211-.818-4.712-2.225-1.502-1.404-2.252-2.926-2.252-4.563 0-.272.037-.547.117-.819.232.353.583.899 1.054 1.64.661.973 1.17 1.461 1.521 1.461.468 0 .701-.488.701-1.461 0-1.248-.331-2.379-.994-3.395-.742-1.211-1.698-1.814-2.867-1.814-.548 0-1.366.293-2.458.879-1.093.584-2.088.877-2.982.877-.274 0-1.484-.354-3.63-1.055 3.783-.624 5.676-1.189 5.676-1.697 0-1.326-2.594-2.224-7.783-2.69-.507-.038-1.442-.116-2.808-.235.155-.193 1.268-.408 3.336-.644 1.755-.192 2.983-.294 3.685-.294 9.285 0 15.175 4.508 17.673 13.521.431-.357.646-.949.646-1.779 0-1.069-.313-2.414-.937-4.035-.235-.633-.607-1.584-1.113-2.848 3.197 4.075 4.8 7.938 4.8 11.584 0 1.92-.451 3.666-1.348 5.23-.583 1.061-1.678 2.412-3.276 4.059-1.599 1.646-2.691 2.92-3.277 3.822 2.146-.586 3.552-1.036 4.215-1.348 1.48-.663 2.827-1.659 4.036-2.984-.001.511-.216 1.27-.643 2.283zm-25.515-22.997c0 .702-.391 1.15-1.17 1.348l-1.521.233c-.548.271-1.347 1.346-2.398 3.218-.118-.584-.293-1.404-.528-2.458-.351.039-.936.353-1.755.937-.351.272-.917.684-1.698 1.229.235-1.404 1.017-2.826 2.342-4.271 1.404-1.599 2.771-2.396 4.096-2.396 1.755-.003 2.632.719 2.632 2.16zm10.182 5.385c0 .661-.36 1.221-1.083 1.668-.722.448-1.434.674-2.135.674-.938 0-1.777-.525-2.517-1.582-.898-1.285-1.814-2.125-2.751-2.516.193-.195.429-.293.704-.293.35 0 .944.271 1.783.818.837.549 1.374.82 1.609.82.195 0 .517-.271.965-.82.448-.547.945-.818 1.493-.818 1.289 0 1.932.684 1.932 2.049z" fill="#FD2302"/>
    </symbol>

    <symbol id="symbol-G/W" viewBox="000 0 100 100">
        <circle r="48.5" cy="50" cx="50" stroke-width="3" stroke="#0D0F0F" fill="none" />
        <path d="M15.645 84.355L84.355 15.645z" stroke-width="3" stroke="#0D0F0F" fill="none" />
        <path d="M88 73.111c-2.436-2.264-4.054-3.491-4.848-3.682-.576-.138-1.135.198-1.672 1.006-.537.808-1.291 1.092-2.268.858-.396-.095-1.175-.435-2.334-1.017-.938.885-1.441 1.471-1.511 1.758-.095.398.089.938.551 1.621.46.685.894 1.072 1.301 1.171.257.062.621.091 1.09.089.468-.001.777.016.927.051.443.104.469.971.078 2.598-.37 1.552-1.302 3.852-2.793 6.892-.059-3.909-.61-5.989-1.656-6.239-.145-.035-.469.004-.972.111-.505.107-.864.137-1.08.085-1.048-.251-1.758-1.433-2.131-3.546-1.723-.145-2.757.506-3.103 1.949-.174.726.023 1.383.589 1.976.563.592.823.979.782 1.16-.233.978-2.021 2.133-5.355 3.473-1.776.722-3.007 1.228-3.688 1.522.659-.528 1.369-1.256 2.127-2.182.862-1.057 1.371-1.906 1.528-2.559.086-.359-.209-.966-.884-1.814-.676-.849-.926-1.634-.753-2.355.146-.614.543-1.319 1.194-2.12-.341-.653-.835-1.06-1.485-1.215-1.444-.347-2.279-.05-2.504.891l-.35 1.462c-.25 1.2-1.296 1.58-3.138 1.141-1.409-.338-3.696-1.229-6.864-2.674 3.981-.039 6.118-.674 6.411-1.901-.032.146-.003-.308.097-1.353.122-1.154 1.16-1.977 3.108-2.465.072-1.738-.594-2.777-2.004-3.113-.216-.053-.705.231-1.463.853-.761.619-1.393.87-1.898.748-.867-.205-1.763-1.413-2.684-3.62-.427-1.095-1.088-2.723-1.983-4.885.727.632 1.453 1.266 2.182 1.896.963.766 1.77 1.226 2.419 1.383.506.119 1.108-.205 1.808-.974.699-.768 1.446-1.058 2.24-.866.111.026.78.414 2.013 1.168.937-.883 1.466-1.576 1.588-2.082.102-.435-.04-.994-.431-1.679-.39-.687-.802-1.079-1.235-1.184-.181-.044-.473-.058-.878-.039-.405.019-.698.005-.879-.038-.649-.155-.781-1.045-.392-2.671.102-.435 1.11-2.81 3.022-7.123-.166.53-.173 1.601-.021 3.202.181 1.953.687 3.027 1.518 3.228.144.033.459-.005.946-.118.485-.113.852-.14 1.104-.078.83.197 1.404.832 1.723 1.9l.463 1.655c.758.183 1.455.063 2.09-.357.636-.421 1.046-1.011 1.227-1.769.189-.795 0-1.479-.568-2.055-.569-.576-.829-.972-.775-1.188.181-.758 1.68-1.755 4.495-2.99 2.26-.985 3.709-1.536 4.349-1.651-2.054 1.725-3.199 3.07-3.432 4.047-.121.507.055 1.121.531 1.848.595.867.912 1.459.95 1.771.161.92-.146 2.047-.925 3.39.811.92 1.47 1.438 1.977 1.562 1.045.25 1.699-.168 1.958-1.25.026-.109.063-.463.112-1.063.046-.6.098-.932.151-.995.266-.472 1.319-.487 3.161-.045 1.156.276 3.479 1.175 6.973 2.698l-3.809.121c-1.55.086-2.389.401-2.519.942-.06.253-.074.708-.04 1.364.034.656.017 1.132-.053 1.421-.12.506-.559.896-1.312 1.175l-2.155.859c.245.898.42 1.438.531 1.615.259.521.692.854 1.306 1.002.434.104.922-.18 1.465-.854.542-.672 1.212-.913 2.007-.722.975.232 1.861 1.398 2.657 3.499.445 1.176 1.143 2.967 2.096 5.37zm-11.274-6.019c.552-2.313.184-4.52-1.108-6.623-1.292-2.103-3.094-3.433-5.404-3.986-2.348-.561-4.573-.205-6.671 1.07-2.099 1.27-3.448 3.077-4.046 5.416-.59 2.303-.21 4.504 1.141 6.604 1.35 2.098 3.18 3.425 5.493 3.978 2.454.587 4.697.274 6.725-.94 2.026-1.215 3.316-3.056 3.87-5.519zm-.815-.196c-.526 2.203-1.703 3.851-3.53 4.939-1.826 1.09-3.843 1.373-6.044.846-2.131-.51-3.777-1.687-4.94-3.531-1.163-1.844-1.489-3.83-.979-5.961.503-2.096 1.698-3.709 3.592-4.842 1.896-1.13 3.889-1.445 5.984-.943 2.094.5 3.727 1.693 4.898 3.576 1.171 1.887 1.512 3.858 1.019 5.916z" fill="#89723E"/>
        <path d="m51.64 34.314c0 .758-.293 1.438-.879 2.043-.586.604-1.258.908-2.016.908-1.207 0-2.098-.567-2.663-1.701l-2.666-.115c-.568 0-1.685.246-3.346.738-1.777.49-2.798.89-3.064 1.19-.414.452-.755 1.513-1.02 3.175-.228 1.361-.339 2.364-.339 3.008 0 1.021.16 1.769.48 2.239.321.474.984.87 1.984 1.191 1.001.319 1.616.501 1.844.536.151 0 .396-.018.737-.057h.681c.491 0 1.001.077 1.532.229.755.229 1.077.529.965.908-.531-.076-1.456.037-2.778.34l1.586.794c0 .454-.643.681-1.928.681-.342 0-.805-.076-1.39-.227-.587-.152-.975-.227-1.163-.227h-.736c-.039.377-.151.943-.341 1.7-.645-.039-1.399-.416-2.27-1.136-.87-.717-1.418-1.077-1.643-1.077-.228 0-.551.36-.965 1.077-.417.72-.624 1.211-.624 1.476-.491-.265-.905-.756-1.249-1.476-.151-.491-.321-.982-.509-1.475-.379.039-1.077.832-2.099 2.383h-.284c-.076-.114-.36-.908-.852-2.383-1.172-.377-2.268-.566-3.288-.566-.491 0-1.249.115-2.27.34l-1.586-.111c.225-.229.888-.662 1.983-1.305 1.284-.756 2.269-1.135 2.949-1.135.112 0 .264.02.454.057.188.038.341.057.454.057.263 0 .689-.142 1.275-.427.586-.28.927-.536 1.019-.764.098-.228.145-.813.145-1.761 0-2.153-.568-3.76-1.703-4.819-.983-.944-2.608-1.625-4.877-2.04-.604 2.154-2.307 3.232-5.103 3.232-.909 0-1.815-.549-2.723-1.646-.905-1.096-1.361-2.098-1.361-3.005 0-1.399.586-2.554 1.758-3.462-.944-.98-1.418-1.982-1.418-3.004 0-.947.292-1.777.879-2.498.586-.717 1.353-1.133 2.297-1.245-.074-1.211.321-2.042 1.191-2.496-.416-.416-.623-1.153-.623-2.211 0-1.247.414-2.288 1.247-3.119.83-.833 1.872-1.25 3.117-1.25 1.363 0 2.479.478 3.348 1.42 1.098-3.743 3.459-5.614 7.089-5.614 1.89 0 3.554.756 4.99 2.269.53.567.793.87.793.907-.452 0-.225-.086.681-.256.909-.17 1.568-.256 1.986-.256 1.474 0 2.778.549 3.915 1.646.982.982 1.663 2.229 2.042 3.742.263.039.679.152 1.246.34.831.419 1.248 1.135 1.248 2.156 0 .188-.152.549-.454 1.076 2.419 1.361 3.63 3.252 3.63 5.674 0 .679-.265 1.625-.793 2.834.986.571 1.478 1.405 1.478 2.498zm-23.367 2.497v-.734c0-.87-.425-1.665-1.276-2.383-.851-.717-1.71-1.077-2.58-1.077-1.06 0-2.042.243-2.949.735 2.004-.114 4.272 1.041 6.805 3.459zm-1.021-7.032c-.566-.645-1.058-1.305-1.474-1.985-1.589.417-2.382.89-2.382 1.417.452-.035 1.115.048 1.983.258.87.207 1.496.31 1.873.31zm3.463-1.758v-2.496c-.91-.149-1.459-.228-1.646-.228v.851l1.646 1.873zm7.371-1.587c-.454-.189-1.305-.567-2.554-1.135v4.877c1.779-1.022 2.628-2.27 2.554-3.742zm3.116 6.692l-1.246-1.532c-.755.53-1.521 1.067-2.298 1.617-.775.549-1.445 1.162-2.011 1.842 1.699-.908 3.554-1.549 5.555-1.927z" fill="#027920"/>
    </symbol>

    <symbol id="symbol-G/U" viewBox="000 0 100 100">
        <circle r="48.5" cy="50" cx="50" stroke-width="3" stroke="#0D0F0F" fill="none" />
        <path d="M15.645 84.355L84.355 15.645z" stroke-width="3" stroke="#0D0F0F" fill="none" />
        <path d="M76.723 83.675c-2.693 2.739-6.008 4.109-9.945 4.109-4.424 0-7.93-1.515-10.524-4.541-2.452-2.884-3.678-6.558-3.678-11.028 0-4.804 2.091-10.281 6.272-16.434 3.41-5.047 7.424-9.467 12.036-13.264-.675 3.076-1.009 5.262-1.009 6.561 0 2.98.936 5.886 2.811 8.721 2.307 3.365 4.062 5.864 5.262 7.496 1.873 2.835 2.813 5.6 2.813 8.289-.002 3.99-1.349 7.354-4.038 10.091zm-.075-15.388c-.719-1.609-1.561-2.68-2.521-3.208.146.288.217.698.217 1.226 0 1.01-.287 2.453-.865 4.324l-.938 2.885c0 1.68.84 2.522 2.521 2.522 1.777 0 2.668-1.177 2.668-3.532 0-1.201-.36-2.608-1.082-4.217z" fill="#0172BB"/>
        <path d="m51.64 34.314c0 .758-.293 1.438-.879 2.043-.586.604-1.258.908-2.016.908-1.207 0-2.098-.567-2.663-1.701l-2.666-.115c-.568 0-1.685.246-3.346.738-1.777.49-2.798.89-3.064 1.19-.414.452-.755 1.513-1.02 3.175-.228 1.361-.339 2.364-.339 3.008 0 1.021.16 1.769.48 2.239.321.474.984.87 1.984 1.191 1.001.319 1.616.501 1.844.536.151 0 .396-.018.737-.057h.681c.491 0 1.001.077 1.532.229.755.229 1.077.529.965.908-.531-.076-1.456.037-2.778.34l1.586.794c0 .454-.643.681-1.928.681-.342 0-.805-.076-1.39-.227-.587-.152-.975-.227-1.163-.227h-.736c-.039.377-.151.943-.341 1.7-.645-.039-1.399-.416-2.27-1.136-.87-.717-1.418-1.077-1.643-1.077-.228 0-.551.36-.965 1.077-.417.72-.624 1.211-.624 1.476-.491-.265-.905-.756-1.249-1.476-.151-.491-.321-.982-.509-1.475-.379.039-1.077.832-2.099 2.383h-.284c-.076-.114-.36-.908-.852-2.383-1.172-.377-2.268-.566-3.288-.566-.491 0-1.249.115-2.27.34l-1.586-.111c.225-.229.888-.662 1.983-1.305 1.284-.756 2.269-1.135 2.949-1.135.112 0 .264.02.454.057.188.038.341.057.454.057.263 0 .689-.142 1.275-.427.586-.28.927-.536 1.019-.764.098-.228.145-.813.145-1.761 0-2.153-.568-3.76-1.703-4.819-.983-.944-2.608-1.625-4.877-2.04-.604 2.154-2.307 3.232-5.103 3.232-.909 0-1.815-.549-2.723-1.646-.905-1.096-1.361-2.098-1.361-3.005 0-1.399.586-2.554 1.758-3.462-.944-.98-1.418-1.982-1.418-3.004 0-.947.292-1.777.879-2.498.586-.717 1.353-1.133 2.297-1.245-.074-1.211.321-2.042 1.191-2.496-.416-.416-.623-1.153-.623-2.211 0-1.247.414-2.288 1.247-3.119.83-.833 1.872-1.25 3.117-1.25 1.363 0 2.479.478 3.348 1.42 1.098-3.743 3.459-5.614 7.089-5.614 1.89 0 3.554.756 4.99 2.269.53.567.793.87.793.907-.452 0-.225-.086.681-.256.909-.17 1.568-.256 1.986-.256 1.474 0 2.778.549 3.915 1.646.982.982 1.663 2.229 2.042 3.742.263.039.679.152 1.246.34.831.419 1.248 1.135 1.248 2.156 0 .188-.152.549-.454 1.076 2.419 1.361 3.63 3.252 3.63 5.674 0 .679-.265 1.625-.793 2.834.986.571 1.478 1.405 1.478 2.498zm-23.367 2.497v-.734c0-.87-.425-1.665-1.276-2.383-.851-.717-1.71-1.077-2.58-1.077-1.06 0-2.042.243-2.949.735 2.004-.114 4.272 1.041 6.805 3.459zm-1.021-7.032c-.566-.645-1.058-1.305-1.474-1.985-1.589.417-2.382.89-2.382 1.417.452-.035 1.115.048 1.983.258.87.207 1.496.31 1.873.31zm3.463-1.758v-2.496c-.91-.149-1.459-.228-1.646-.228v.851l1.646 1.873zm7.371-1.587c-.454-.189-1.305-.567-2.554-1.135v4.877c1.779-1.022 2.628-2.27 2.554-3.742zm3.116 6.692l-1.246-1.532c-.755.53-1.521 1.067-2.298 1.617-.775.549-1.445 1.162-2.011 1.842 1.699-.908 3.554-1.549 5.555-1.927z" fill="#027920"/>
    </symbol>

    <symbol id="symbol-U/P" viewBox="000 0 100 100">
        <circle r="48.5" cy="50" cx="50" stroke-width="3" stroke="#3F477B" fill="none" />
        <path d="M77.307 49.928c.059-5.344-1.639-10.738-4.967-14.928-1.607-1.77-2.931-3.787-4.633-5.461-3.755-3.725-9.375-3.973-13.896-6.32-.264-2.357-1.125-4.715-.604-7.094.159-.791.393-1.592-.029-2.348-1.187-2.732-.166-5.699-.377-8.547-.158-1.488-.058-3.309-1.476-4.229-.33 3.098-1.469 5.98-2.392 8.918-.426 2.291-.426 4.676-1.413 6.836.627 2.189-.613 4.031-1.955 5.646-2.968 1.52-6.496 1.881-9.078 4.109-1.84 1.563-3.828 2.932-5.887 4.203-1.545 1.934-3.256 3.797-3.945 6.24-2.762 3.334-3.088 7.811-4.654 11.717-.029 5.799 1.146 12.043 4.85 16.691 2.65 2.188 4.502 5.131 7.149 7.318 2.541 1.518 5.252 2.764 7.875 4.127 1.709.4 3.475.596 5.176 1.061 1.379 7.109 2.322 14.389 5.092 21.133.918-2.768.807-5.736 1.6-8.533 1.119-4.135-1.176-8.439.117-12.5 1.938-1.732 5.17-.607 7.32-2.094 4.092-2.523 8.422-4.98 11.391-8.84 1.105-2.219 3.426-3.877 3.426-6.539.019-3.583 2.109-6.941 1.31-10.566zm-30.373 21.932c-2.965-.721-5.727-2.139-8.213-3.871-2.676-1.783-3.674-5.109-6.314-6.934-2.473-2.949-1.938-6.98-2.951-10.475.406-2.439.885-4.857 1.139-7.326 1.205-1.955 3.066-3.514 3.582-5.869 1.769-2.533 4.459-4.285 6.619-6.48 1.572-1.813 4.074-1.047 6.139-1.119-.204 2-.366 4.07.134 6.041.244 1.213.791 2.408.604 3.676-.414 2.699.598 5.408-.117 8.076-1.443 5.576.131 11.209.268 16.832-.206 2.488-.323 4.998-.89 7.449zm22.477-10.57c-1.963 1.398-3.637 3.111-5.35 4.785-2.979 2.061-5.924 4.24-9.469 5.27.319-2.529.631-5.131-.174-7.607-1.979-5.594.444-11.445.854-17.102-.361-3.363-.017-6.951-1.56-10.049-.201-2.326.806-4.574 1.486-6.764 2.342.936 4.547 2.197 6.496 3.82 2.354 1.766 5.961 2.908 6.488 6.199.268 2.16 2.633 3.467 2.564 5.678-.146 5.256.579 10.752-1.335 15.77z" fill="#3F477B"/>
    </symbol>

     <symbol id="symbol-T" viewBox="000 0 100 100">
        <circle r="48.5" cy="50" cx="50" stroke-width="3" stroke="#0D0F0F" fill="none" />
        <path d="M85.332 59.918h-36.004l13.185-9.383c-4.898-3.887-10.566-5.828-16.984-5.828-3.211 0-5.414.613-6.59 1.836-1.184 1.227-1.777 3.445-1.777 6.654 0 8.873 4.563 18.34 13.691 28.396l-10.391 10.521c-12.09-14.705-18.129-27.844-18.129-39.424 0-6.928 2.086-12.447 6.27-16.545 4.18-4.098 9.746-6.148 16.668-6.148 8.453 0 17.664 3.215 27.641 9.635l7.728-13.182 4.692 33.468z" fill="#0D0F0F" />
    </symbol>

    <use x="000" y="000" width="100" height="100" href="#symbol-0" />
    <use x="105" y="000" width="100" height="100" href="#symbol-1" />
    <use x="210" y="000" width="100" height="100" href="#symbol-2" />
    <use x="315" y="000" width="100" height="100" href="#symbol-3" />
    <use x="420" y="000" width="100" height="100" href="#symbol-4" />
    <use x="525" y="000" width="100" height="100" href="#symbol-5" />
    <use x="630" y="000" width="100" height="100" href="#symbol-6" />
    <use x="735" y="000" width="100" height="100" href="#symbol-7" />
    <use x="840" y="000" width="100" height="100" href="#symbol-8" />
    <use x="945" y="000" width="100" height="100" href="#symbol-9" />
    <use x="000" y="105" width="100" height="100" href="#symbol-10" />
    <use x="105" y="105" width="100" height="100" href="#symbol-X" />
    <use x="210" y="105" width="100" height="100" href="#symbol-Y" />
    <use x="315" y="105" width="100" height="100" href="#symbol-Z" />
    <use x="420" y="105" width="100" height="100" href="#symbol-W" />
    <use x="525" y="105" width="100" height="100" href="#symbol-U" />
    <use x="630" y="105" width="100" height="100" href="#symbol-B" />
    <use x="735" y="105" width="100" height="100" href="#symbol-R" />
    <use x="840" y="105" width="100" height="100" href="#symbol-G" />
    <use x="945" y="105" width="100" height="100" href="#symbol-C" />
    <use x="000" y="210" width="100" height="100" href="#symbol-W/U" />
    <use x="105" y="210" width="100" height="100" href="#symbol-W/B" />
    <use x="210" y="210" width="100" height="100" href="#symbol-U/B" />
    <use x="315" y="210" width="100" height="100" href="#symbol-U/R" />
    <use x="420" y="210" width="100" height="100" href="#symbol-B/R" />
    <use x="525" y="210" width="100" height="100" href="#symbol-B/G" />
    <use x="630" y="210" width="100" height="100" href="#symbol-R/G" />
    <use x="735" y="210" width="100" height="100" href="#symbol-R/W" />
    <use x="840" y="210" width="100" height="100" href="#symbol-G/W" />
    <use x="945" y="210" width="100" height="100" href="#symbol-G/U" />
    <use x="630" y="315" width="100" height="100" href="#symbol-U/P" />
    <use x="000" y="420" width="100" height="100" href="#symbol-T" />

    <view viewBox="000 000 100 100" id="icon-0" />
    <view viewBox="105 000 100 100" id="icon-1" />
    <view viewBox="210 000 100 100" id="icon-2" />
    <view viewBox="315 000 100 100" id="icon-3" />
    <view viewBox="420 000 100 100" id="icon-4" />
    <view viewBox="525 000 100 100" id="icon-5" />
    <view viewBox="630 000 100 100" id="icon-6" />
    <view viewBox="735 000 100 100" id="icon-7" />
    <view viewBox="840 000 100 100" id="icon-8" />
    <view viewBox="945 000 100 100" id="icon-9" />
    <view viewBox="000 105 100 100" id="icon-10" />
    <view viewBox="105 105 100 100" id="icon-X" />
    <view viewBox="210 105 100 100" id="icon-Y" />
    <view viewBox="315 105 100 100" id="icon-Z" />
    <view viewBox="420 105 100 100" id="icon-W" />
    <view viewBox="525 105 100 100" id="icon-U" />
    <view viewBox="630 105 100 100" id="icon-B" />
    <view viewBox="735 105 100 100" id="icon-R" />
    <view viewBox="840 105 100 100" id="icon-G" />
    <view viewBox="945 105 100 100" id="icon-C" />
    <view viewBox="000 210 100 100" id="icon-W/U" />
    <view viewBox="105 210 100 100" id="icon-W/B" />
    <view viewBox="210 210 100 100" id="icon-U/B" />
    <view viewBox="315 210 100 100" id="icon-U/R" />
    <view viewBox="420 210 100 100" id="icon-B/R" />
    <view viewBox="525 210 100 100" id="icon-B/G" />
    <view viewBox="630 210 100 100" id="icon-R/G" />
    <view viewBox="735 210 100 100" id="icon-R/W" />
    <view viewBox="840 210 100 100" id="icon-G/W" />
    <view viewBox="945 210 100 100" id="icon-G/U" />
    <view viewBox="630 315 100 100" id="icon-U/P" />
    <view viewBox="000 420 100 100" id="icon-T" />
</svg>