<?xml version="1.0" encoding="UTF-8"?>
<svg id="Layer_1" data-name="Layer 1" xmlns="http://www.w3.org/2000/svg" viewBox="0 0 400 400">
  <defs>
    <style>
      .cls-1 {
        fill: #d2b984;
        stroke-width: 0px;
      }
    </style>
  </defs>
  <path class="cls-1" d="m62.95,259.6206c10.0134,5.281,19.4085,10.5594,29.0801,15.2699,20.456,9.963,42.1865,15.3734,64.7999,17.5436,2.8512.2736,5.807,1.3573,8.3345,2.7534,8.0384,4.4399,15.7887,9.4063,23.872,13.7576,3.9259,2.1134,6.5056,4.8109,7.6271,9.102.6804,2.6033,1.7142,5.1143,3.0897,9.1264.6526-2.0837,2.7265-8.9491,2.8378-9.4059,1.4701-6.0348,3.2333-6.0485,9.9522-9.8083,27.2448-15.2457,54.1178-31.1558,81.697-47.1508-.3693,9.4142-1.9267,18.0872-3.8373,26.6881-2.8976,13.0445-7.6894,25.4523-13.0505,37.6583-1.5246,3.4712-3.7021,6.0452-7.211,7.8342-30.6544,15.6299-62.7697,21.1994-96.8371,14.9777-28.088-5.1296-52.6343-17.301-73.7554-36.3532-15.5303-14.009-27.6225-30.6342-36.302-49.6952-.255-.56-.1751-1.2725-.2969-2.2979Z"/>
  <path class="cls-1" d="m199.3164,73.1863c-1.7468,4.5809-2.4663,6.4309-3.4647,9.5143-1.3197,4.0755-3.4432,6.8789-7.0411,8.9442-20.8878,11.9905-41.6791,24.1492-62.5157,36.229-1.17.6783-2.4531,1.1616-4.4702,2.1027.1863-2.0355.0265-3.5494.4875-4.8421,7.9326-22.243,20.1397-41.6535,38.322-56.991,5.4308-4.5811,11.2253-8.7306,16.6663-13.3003,4.0787-3.4255,8.6736-4.7899,13.8904-5.0725,24.5459-1.33,47.9718,3.0457,70.3945,13.1453,23.3303,10.5084,42.5788,26.0666,58.0924,46.3249,1.7407,2.273,3.3154,5.9815,4.132,9.2558-1.2627-.925-3.0417-2.0282-4.3562-2.7008-26.3103-13.4626-54.3918-15.6865-83.1939-12.9551-3.1899.3025-5.7458-.0896-8.4425-1.7232-6.0847-3.6858-12.2474-7.2576-18.5165-10.6181-3.0757-1.6487-5.2771-4.4648-6.3133-7.6447-.9913-3.042-2.0325-5.0618-3.671-9.6684Z"/>
  <path class="cls-1" d="m289.916,318.6838c1.8979-6.2465,4.016-12.4595,5.6691-18.7938,6.1602-23.6041,7.6239-47.4375,3.6126-71.608-.8934-5.3832-.6043-11.0026-.4197-16.4984.0504-1.5022,1.3772-3.3903,2.6753-4.34,3.6554-2.6745,7.6005-4.9531,12.1644-7.8536-2.9876-1.7664-5.5751-3.3697-8.2311-4.8504-4.7642-2.656-7.3433-6.0077-6.913-12.1145.6607-9.3764.1508-18.8341.1777-28.2572.005-1.7597-.2584-3.5189-.1248-5.7301,5.909,2.6533,9.8506,7.2505,13.3459,11.6819,12.7774,16.1999,20.1759,34.8225,24.2273,54.8976,2.2798,11.2968,3.4795,22.708,3.1163,34.2301-.0918,2.9119-.5784,5.9922-1.685,8.6631-9.9588,24.0378-25.5531,43.8727-45.5759,60.3335-.3294.2708-2.8068,2.103-2.6015,1.7167.1872-.3524.5623-1.477.5623-1.477Z"/>
  <path class="cls-1" d="m348.1469,223.8272c-1.4201-6.0867-2.3781-11.1527-3.7904-16.0887-8.224-28.7425-22.2141-53.8035-46.9638-71.6675-11.6047-8.3761-24.4212-14.5574-38.158-18.6254-6.8988-2.043-13.0889-5.269-19.8194-10.1037,6.3185,0,11.6654-.2301,16.9867.0415,18.8751.9634,37.3941,3.8482,55.0618,10.9369,2.1276.8537,4.3033,1.6525,6.2984,2.7616,17.1549,9.5374,15.2516,6.7171,22.6213,26.3581,2.8109,7.4913,4.9426,15.2515,7.1178,22.9642,3.2586,11.5541,10.5878,19.5533,20.977,25.1215,2.0845,1.1172,5.4568,1.2008,5.5057,4.4157.0505,3.3185-3.5032,3.2658-5.5102,4.3768-6.5669,3.6352-11.9876,8.4122-16.3071,14.5144-.9971,1.4086-2.1619,2.6984-4.0195,4.9947Z"/>
  <path class="cls-1" d="m49.2914,181.933c2.6996,6.0261,5.6591,12.9269,8.8572,19.7152,8.8827,18.855,20.9608,35.4178,35.6724,50.1823,6.1273,6.1493,13.7303,9.9165,20.926,14.3099,9.7536,5.9552,19.8812,11.8476,29.7073,17.9162-7.0537-.2643-13.7795-2.037-20.5009-3.6202-21.3604-5.0314-39.8578-15.972-57.7662-28.1089-1.5187-1.0293-2.9626-1.9819-4.5078-3.1519-2.9878-2.2623-4.8056-4.5863-5.8305-8.0719-1.8689-6.356-3.6893-12.7873-6.3223-18.8426-3.6035-8.2874-10.2489-13.9365-18.1452-18.1269-1.4146-.7507-3.0503-1.1622-4.3182-2.0924-1.5881-1.1652-1.2204-2.9088.1011-3.9366.3442-.2677.6622-.563,1.0484-.8026,3.6825-2.2841,7.5042-4.3788,10.9962-6.9252,3.5074-2.5577,6.6847-5.5681,10.0826-8.4443Z"/>
  <path class="cls-1" d="m100.4196,212.6494c-.7571-3.1943-2.7596-5.4715-5.9442-7.2615-3.132-1.7605-6.2532-3.5404-9.927-5.6221,4.5822-2.8675,8.2661-5.1521,11.9284-7.4707,2.1632-1.3696,3.3908-3.0979,3.9427-5.2785v-44.6595c4.2375-2.4701,8.477-4.9412,12.7152-7.4114,1.1702-1.4944,1.9051-3.3378,2.3223-5.5094.6018-3.1329,1.8-6.1549,2.7815-9.2106,8.3995-26.1456,23.1907-47.6838,45.8353-63.5622,1.0419-.7306,3.604-2.4323,5.7457-4.1502-2.9692.5638-5.958,1.4785-7.6256,2.0226-8.9245,2.9124-17.8315,6.0129-26.3844,9.8351-27.0202,12.0755-47.4368,31.7481-63.3342,56.4013-8.2873,12.852-13.6001,26.9344-17.7294,41.5994-1.2541,4.454-1.4449,8.4193.0212,12.6877,8.9383,26.0243,22.6075,49.1367,42.1473,68.6396.8141.8125,1.989,2.0647,3.505,3.3143v-34.3639Z"/>
  <path class="cls-1" d="m199.3164,93.1838c-30.9716,18.0529-61.2765,35.7174-91.622,53.4053v106.9786c30.8089,17.8944,61.3526,35.6346,91.9637,53.414,30.9797-17.9697,61.5275-35.689,91.9479-53.3343v-107.0686c-30.8086-17.9751-61.2882-36.3406-92.2895-53.3951Zm79.7141,153.1384c-26.2604,15.2323-52.6306,30.5284-79.3735,46.0407-26.4248-15.348-52.7917-30.6622-79.3873-46.1094v-92.3488c26.1957-15.2691,52.3563-30.5179,79.0921-46.1019,26.7618,14.7221,53.0734,30.5761,79.6687,46.093v92.4264Z"/>
</svg>