<?xml version="1.0" encoding="UTF-8"?>
<svg id="_图层_1" data-name="图层 1" xmlns="http://www.w3.org/2000/svg" viewBox="0 0 24 24">
  <defs>
    <style>
      .cls-1 {
        fill: #231815;
      }
    </style>
  </defs>
  <path class="cls-1" d="M7.54,12.6c0,.05.1.07.28.09,2.1.24,3.73,1.9,4.01,3.99.03.2.09.56.17.56s.14-.35.17-.56c.28-2.09,1.91-3.75,4.01-3.99.18-.02.28-.04.28-.09s-.1-.07-.28-.09c-3.52-.54-3.55-3.75-4.07-8.82-.06-.55-.04-.96-.11-.96s-.06.42-.11.96c-.52,5.06-.55,8.28-4.07,8.82-.17.03-.28.04-.28.09Z"/>
  <path class="cls-1" d="M7.35,9.98s0,0,0,0c.59-1.06,1.54-1.89,2.69-2.33.35-.13.89-2.65,1.07-3.68,0,0-3.1,1.45-3.76,6.01Z"/>
  <path class="cls-1" d="M8.65,16.75c-.92-.73-1.58-1.76-1.83-2.96-.12-.56-.98-.95-1.08-.98-.06-.02-.32-.12-.32-.21s.26-.19.32-.21c.1-.03.89-.44,1.08-.98.2-.57,0-4.87,3.17-7.26-3.21.74-5.6,3.22-6.42,6.43,0,.04.8,4.31,5.08,6.16.02,0,0,0,0,0Z"/>
  <path class="cls-1" d="M2.92,13.29c.27.27.48.59.58,1.04.06.25.12.49.2.74,2.92,2.39,6.07,2.36,6.07,2.36-1.25-.29-4.87-1.51-6.49-5.98,0,0,0,0,0,0-.1.17-.22.33-.36.46-.66.66-.92.49-.92.69s.26.03.92.69Z"/>
  <path class="cls-1" d="M14.88,8.12s0,0,0,0c1.16.73,2.01,1.89,2.3,3.29.12.56.98.95,1.08.98.06.02.32.12.32.21s-.26.19-.32.21c-.07.02-.48.2-.77.49.58,3.04-.3,5.82-.51,6.43,1.4-.99,2.48-2.39,3.12-4.04,0-.08-.04-6.33-5.21-7.57Z"/>
  <path class="cls-1" d="M17.26,13.58c-.04.07-.07.14-.08.21-.44,2.14-2.2,3.66-4.37,4.06-.16.03-.67,2.03-.81,2.03s-.5-1.94-.8-2.02c0,0-.21-.07-.29-.07-3.57.17-5.92-1.19-6.94-1.94,1.31,3.21,4.28,5.43,8.02,5.43,1.47,0,2.83-.35,4.01-.96,1.54-2.86,1.32-6,1.25-6.74Z"/>
  <path class="cls-1" d="M19.29,7.93c-1.38-2.18-3.64-3.69-6.4-3.95.12.71.42,2.12.7,2.97,3.73-.35,5.41.83,5.7.98Z"/>
  <path class="cls-1" d="M21.08,11.91c-.27-.27-.48-.59-.58-1.04-.18-.78-.44-1.52-.79-2.2-2.34-1.71-5.53-1.5-6.03-1.46.1.25.19.41.27.45,0,0,5.41.03,6.53,6.73,0-.02.01-.04.01-.06.1-.45.31-.77.58-1.04.66-.66.92-.49.92-.69s-.26-.03-.92-.69Z"/>
</svg>