<?xml version="1.0" encoding="UTF-8"?>
<svg id="Layer_1" data-name="Layer 1" xmlns="http://www.w3.org/2000/svg" viewBox="0 0 14.2043 14.5617">
  <defs>
    <style>
      .cls-1 {
        fill: #a8a5a8;
        stroke-width: 0px;
      }
    </style>
  </defs>
  <path class="cls-1" d="m13.1956,7.1783c.001.904-.1535,1.5848-.4011,2.2617-.2085.5701-.4883,1.0954-.8576,1.5579-.4884.6118-1.0576,1.1431-1.7586,1.5355-.455.2547-.9203.4589-1.4137.6095-.204.0622-.4127.1128-.6225.1505-.0842.0151-.1772-.0185-.2662-.0299.0193-.0847.0171-.1836.0621-.2512.1054-.1583.1532-.3227.1439-.5115-.0148-.2985.0415-.6036-.1247-.8835-.2092-.3524-.4758-.6389-.8388-.841-.1854-.1032-.3551-.2393-.5186-.3763-.5621-.4711-.9916-1.0475-1.3304-1.6955-.2161-.4134-.2941-.8632-.3235-1.317-.028-.432-.0538-.8753.0129-1.2989.057-.3618.2275-.7115.3831-1.0503.1496-.3256.3126-.6549.5288-.9374.2119-.2769.477-.5253.7572-.7349.3997-.2991.825-.5644,1.3157-.7088.6392-.1881,1.2941-.2794,1.9433-.1519.5663.1112,1.1063.3182,1.5875.6812.5435.41.8445.981,1.1452,1.5502.4315.8167.5345,1.7185.5759,2.4417Z"/>
  <path class="cls-1" d="m4.2765,6.9854c.0026.9987.3089,1.8949.8684,2.7119.0114.0166.0259.032.0331.0503.0324.0823.0627.1654.0938.2483-.0938-.0142-.1935-.0128-.2802-.0457-.1875-.0711-.3644-.1703-.5525-.2394-.8603-.3161-1.6101-.8014-2.2008-1.5008-.4848-.5741-.7845-1.2424-.8471-2.0037-.0627-.7625.1369-1.4749.5278-2.107.5476-.8854,1.2837-1.6117,2.2078-2.1061.6975-.3732,1.4368-.6417,2.2413-.7229.7011-.0708,1.3905-.0363,2.0766.092.3152.0589.6217.1654.9309.2547.0494.0143.1018.0431.1359.0806.0736.0808.0521.1485-.0545.1767-.0442.0117-.0938.0117-.1398.0067-.9793-.1073-1.8395.2144-2.6635.7071-.8875.5307-1.479,1.3042-1.8902,2.2283-.1623.3648-.312.7429-.4013,1.1302-.0772.335-.0607.6916-.0856,1.0387Z"/>
  <path class="cls-1" d="m6.3619,13.3236c-.5653-.0665-1.1205-.1819-1.6417-.4231-.2976-.1377-.6018-.2701-.8764-.4464-.4512-.2896-.8657-.6325-1.2152-1.0422-.2381-.2791-.4773-.5624-.6731-.871-.3529-.5562-.6052-1.1617-.7544-1.8058-.0709-.3059-.1322-.6142-.1903-.9229-.0097-.0515.019-.1102.0299-.1656.0485.026.1146.0397.1424.08.1365.1979.2699.3986.3911.6061.2386.4086.5947.7021.951.9972.6708.5555,1.4517.9014,2.2589,1.2033.6707.2508,1.3372.5136,1.9988.7872.4299.1778.7.5121.7237.9791.0096.1891-.0729.414-.1853.5714-.2251.3152-.5499.4848-.9592.4526Z"/>
</svg>