<?xml version="1.0" encoding="UTF-8"?>
<svg id="Layer_1" data-name="Layer 1" xmlns="http://www.w3.org/2000/svg" xmlns:xlink="http://www.w3.org/1999/xlink" viewBox="0 0 17.983 18.3669">
  <defs>
    <style>
      .cls-1 {
        fill: url(#linear-gradient);
      }

      .cls-1, .cls-2 {
        stroke-width: 0px;
      }

      .cls-2 {
        fill: none;
      }

      .cls-3 {
        clip-path: url(#clippath);
      }
    </style>
    <clipPath id="clippath">
      <path class="cls-2" d="m9.0168,4.9952c-.342.372-.678.737-1.047,1.139-.157-.382-.32-.708-.425-1.052-.173-.566-.308-1.143-.458-1.716-.024-.09.007-.148.092-.196.569-.326,1.137-.653,1.699-.989.098-.058.157-.022.231.021,1.814,1.06,3.622,2.129,5.447,3.169.336.191.466.389.449.779-.036.822-.011,1.646-.011,2.47v.199c-2.449-.59-4.426-1.881-5.977-3.826v.002Zm-.02,8.405c.269-.298.525-.594.795-.879.53-.561,1.124-1.047,1.769-1.471.041-.027.117-.047.152-.027,1.005.571,2.075.963,3.207,1.189.021.004.041.008.074.015,0,.161.01.323-.006.482-.005.052-.068.114-.12.144-1.251.725-2.505,1.447-3.758,2.169-.666.384-1.333.766-1.997,1.154-.091.053-.159.053-.249,0-.406-.242-.819-.472-1.224-.716-.081-.049-.153-.129-.205-.21-.586-.896-1.065-1.847-1.424-2.854-.218-.613-.385-1.244-.574-1.868-.004-.013.004-.03.012-.075,1.415.72,2.578,1.719,3.548,2.947Zm-2.625,1.326c-.841-.492-1.643-.96-2.445-1.429-.283-.165-.568-.328-.847-.5-.048-.03-.097-.103-.097-.157-.006-1.006-.004-2.012-.004-3.018,0-.021.005-.042.011-.091.425.133.838.282,1.261.387.362.09.476.305.554.657.312,1.423.832,2.773,1.528,4.054.009.017.015.037.039.096v.001Zm.095-11.138c.081.332.151.65.237.962.178.645.419,1.268.72,1.866.049.098.045.152-.044.226-.696.577-1.451,1.059-2.304,1.461-.021-.286-.052-.549-.059-.812-.026-.974.071-1.94.228-2.9.007-.044.028-.103.062-.123.381-.228.766-.45,1.159-.68h.001Zm-1.943,1.138c-.023.239-.051.46-.063.682-.03.573-.067,1.147-.074,1.72-.005.386.039.772.055,1.158.002.037-.031.099-.062.109-.453.155-.909.304-1.401.466v-.218c0-.957.002-1.914-.002-2.872,0-.108.026-.173.126-.229.426-.239.846-.489,1.269-.735.045-.026.092-.05.152-.083v.002Zm10.463,6.819c-.933-.184-1.81-.489-2.675-.944.858-.476,1.736-.815,2.675-1.033v1.977Z"/>
    </clipPath>
    <linearGradient id="linear-gradient" x1="5.1637" y1="3.2398" x2="12.7812" y2="15.0681" gradientUnits="userSpaceOnUse">
      <stop offset="0" stop-color="#d67f6e"/>
      <stop offset=".2499" stop-color="#fded6d"/>
      <stop offset=".4571" stop-color="#7cb97f"/>
      <stop offset=".6937" stop-color="#87b3e0"/>
      <stop offset=".8867" stop-color="#7072b3"/>
      <stop offset="1" stop-color="#c671ae"/>
    </linearGradient>
  </defs>
  <g class="cls-3">
    <polygon class="cls-1" points="1.957 5.1221 1.957 13.2448 8.9915 17.3062 16.026 13.2448 16.026 5.1221 8.9915 1.0607 1.957 5.1221"/>
  </g>
</svg>