<?xml version="1.0" standalone="no"?>
<!DOCTYPE svg PUBLIC "-//W3C//DTD SVG 20010904//EN"
 "http://www.w3.org/TR/2001/REC-SVG-20010904/DTD/svg10.dtd">
<svg version="1.0" xmlns="http://www.w3.org/2000/svg"
 width="512.000000pt" height="768.000000pt" viewBox="0 0 512.000000 768.000000"
 preserveAspectRatio="xMidYMid meet">
<metadata>
Created by potrace 1.16, written by Peter Selinger 2001-2019
</metadata>
<g transform="translate(0.000000,768.000000) scale(0.100000,-0.100000)" fill="none" stroke="none">
<path fill="#C0C0C0" stroke="none" d="M2815 6786 l210 -34 190 -97 c181 -93 194 -102 282 -188 l92 -90 363
-4 c229 -2 377 -8 401 -15 33 -10 40 -9 60 10 20 19 35 22 101 22 42 0 86 -5
97 -10 19 -11 19 -47 19 -2347 l0 -2336 29 -51 c53 -92 102 -227 122 -332 l20
-103 -26 -103 c-25 -98 -29 -105 -92 -178 -60 -68 -75 -79 -161 -118 -83 -37
-103 -42 -167 -42 -63 0 -83 5 -169 44 -53 24 -103 52 -111 62 -11 14 -17 16
-23 7 -13 -20 -74 -13 -80 9 -3 13 -10 17 -21 13 -35 -14 -69 -16 -75 -6 -10
16 -1111 15 -1224 -1 -63 -8 -86 -8 -94 0 -8 8 -71 12 -200 12 -110 0 -188 4
-188 9 0 20 -40 21 -89 1 -29 -11 -62 -20 -75 -20 -13 0 -29 -7 -36 -15 -17
-21 -37 -19 -50 5 -10 19 -21 20 -170 20 -153 0 -159 -1 -187 -24 -21 -18 -33
-22 -46 -15 -10 6 -23 6 -35 -2 -14 -9 -27 -7 -60 10 -32 16 -59 21 -122 21
l-80 0 0 -60 c0 -33 -3 -60 -7 -60 -23 1 -152 39 -180 53 -30 16 -33 16 -75
-7 -35 -20 -64 -26 -153 -31 -109 -7 -111 -7 -215 29 -97 34 -110 42 -180 109
-67 64 -80 83 -122 177 -48 105 -48 105 -42 190 10 156 30 228 84 300 27 36
47 67 44 69 -2 2 -35 -24 -73 -57 -38 -34 -72 -62 -74 -62 -3 0 -19 25 -35 55
-35 63 -37 57 56 125 73 53 73 55 -6 152 -56 71 -65 74 -121 58 -28 -8 -38 -6
-52 6 -15 13 -16 21 -5 68 17 73 56 121 113 140 92 32 140 9 134 -63 -2 -32 6
-47 58 -113 34 -42 68 -79 77 -82 46 -18 44 -122 44 2254 0 2031 1 2238 16
2244 9 3 57 6 109 6 l93 0 27 -36 27 -36 26 36 25 36 396 0 396 0 80 81 c76
76 90 86 270 177 l190 96 195 32 c107 17 211 32 230 33 19 0 130 -14 245 -33z"/>
<path fill="#404040" stroke="none" d="M2433 6354 c-136 -23 -149 -27 -280 -93 -132 -66 -143 -74 -245 -178
-97 -98 -113 -119 -173 -235 -65 -125 -67 -131 -91 -281 l-25 -152 25 -151
c22 -138 28 -159 75 -252 37 -73 50 -109 45 -126 -5 -20 0 -27 28 -42 18 -9
78 -60 133 -114 87 -85 116 -106 226 -163 124 -66 127 -67 280 -91 85 -14 166
-22 181 -19 17 3 36 18 47 37 26 40 116 127 161 154 45 26 150 65 220 82 70
16 144 53 195 97 36 32 44 34 86 30 l45 -6 67 137 c65 132 68 143 90 282 l23
145 -26 155 c-26 153 -27 157 -94 285 -61 116 -80 141 -170 233 -96 99 -108
107 -238 173 -130 65 -145 70 -265 89 -71 11 -139 22 -153 24 -14 3 -89 -6
-167 -20z"/>
<path fill="#404040" stroke="none" d="M425 1880 c-3 -5 -2 -10 4 -10 5 0 13 5 16 10 3 6 2 10 -4 10 -5 0
-13 -4 -16 -10z"/>
</g>
</svg>
