<svg xmlns="http://www.w3.org/2000/svg" viewBox="0 0 100 100"><circle cx="50" cy="50" r="49" style="fill:#fff;stroke:#231815;stroke-miterlimit:10;stroke-width:2px"/><circle cx="50" cy="50" r="42" style="fill:#231815"/><circle cx="50" cy="50" r="34" style="fill:#fff"/><path d="M58.44 21.3c-13.44 0-30.09 5.64-31.23 8.44s.84 2.78 2.74 3.91c2.74 1.62 4 0 5.54 1.42 0 0 1.83 2.25 0 4.3-2 1.47-3 .91-4.5 0s-1.37-4.11-1.83-4.76c-.86-.44-2.37-2-4.9 0s-2.53 9-2.53 15.42c0 24.44 23.36 28.58 23.36 28.58 11.62.53 12.82-7.21 12.82-7.21s-8.92.57-12.15-.14c-2.94-1.6-.27-4-1.73-5.74s-3.48.8-6.55-1.87c1.67-4.9 1.25-14.47-.13-19.36 2.74.76 6.45-.74 4.75-4.86 4 0 3.81-3.37 2.12-5.88-2-1.52-10.07.86-11.28-1 .58-6.07 19.73-8.32 25.5-11.25" style="fill:#9fa0a0"/><path d="M60 26.7c-2.68 1.12-2.11 7.32 0 8.86s6.9 1.69 7.74-2-5.07-7.99-7.74-6.86M71.54 36.59c-3.72 1.23-9.85 7.56-9.85 11.22s.28 9.43 3.8 11 10.56 1 12.39-1.12 1.54-19.48-1-21.08-1.62-1.24-5.34-.02M58.68 54.15c-2.68 0-7.48 4.36-7.48 7.39s4 5 7.24 3.87 2.92-11.26.24-11.26M54.22 39.37C51 39.37 49.15 40.63 50 43s3.66 2.39 5.35 1.26 2.11-4.89-1.13-4.89M48.17 48.23c-2.46 0-6.76 3.52-5.63 5.21s5.21 2.12 6.34.71 1.76-5.92-.71-5.92M70.37 63.3c-3.19 0-6 1.69-6 3.94s3.57 5.91 6 5.35 4.41-2 4.41-5.63-1.22-3.66-4.41-3.66" style="fill:#dcdddd"/></svg>